<?xml version="1.0" encoding="UTF-8"?>
<svg width="32" height="32" xmlns="http://www.w3.org/2000/svg">
  <symbol id="basement" viewBox="0 0 8.4667 8.4667">
    <path d="m1.9564 5.545-5.482e-4 2.2566h4.3394l1.99e-4 -2.2566" fill="#969696" stroke="#000" stroke-width=".26458"/>
    <g transform="translate(0 -292.69)" opacity=".48">
      <path d="m1.9378 292.15v3.8086h4.3765l0.033073-3.8086" fill="#eee" stroke="#000" stroke-width=".26458"/>
      <g fill="#69a49e">
        <rect x="4.4016" y="294.04" width="1.2862" height="1.3698" style=""/>
        <rect x="2.5808" y="292.1" width="1.2862" height="1.3698" style=""/>
        <rect x="4.3849" y="292.1" width="1.2862" height="1.3698" style=""/>
      </g>
      <path d="m3.5089 295.01-3e-7 0.25968" fill="#520" stroke="#825120" stroke-width=".26458px"/>
      <path d="m2.5892 295.96v-1.8709h1.2862v1.8709" fill="none" opacity=".75" stroke="#000" stroke-width=".26458px"/>
    </g>
    <g stroke="#000" stroke-width=".26458">
      <path d="m1.9566 3.2883-5.483e-4 2.2566h4.3394l1.992e-4 -2.2566z" fill="#969696"/>
      <path d="m4.4992 5.545v-0.77784h0.53353v-0.68356h0.53353v-0.78963l0.72936-0.00561-1.993e-4 2.2566z" fill="#2c2c2c"/>
      <path d="m3.7521 7.8016v-0.77784h-0.53353v-0.68356h-0.53353v-0.78963l-0.72936-0.0056109 1.993e-4 2.2566z" fill="#2c2c2c"/>
    </g>
  </symbol>

  <symbol id="beehive" viewBox="0 0 8.4667 8.4667">
    <path d="m1.543 2.5488c0.95702-1.543 2.4218-1.9726 2.4218-1.9726l0.42968 0.019531s1.5039 0.52734 2.4218 1.9726c0.99758 1.5707 0.95702 4.2169 0.95702 4.2169s0 1.1151-3.6132 1.1151c-3.6132 0-3.5742-1.1346-3.5742-1.1346s-0.023736-2.6357 0.95702-4.2169z" fill="#c6a632"/>
    <path d="m1.9336 7.6269s-0.058593-0.89843 0.54687-0.78124c0.60546 0.11719 0.48828 0.99608 0.48828 0.99608" fill="#3b3624" stroke="#221d0c" stroke-width=".26458px"/>
    <g fill="none" stroke="#221d0c" stroke-width=".26458px">
      <path d="m0.66405 5.4199s0.44921 0.83983 3.3984 0.85937c2.9492 0.019532 3.5937-0.93749 3.5937-0.93749" opacity=".666"/>
      <path d="m0.5897 6.1775s0.26165 0.47485 1.4471 0.76241m0.85734 0.14824c0.34028 0.03886 0.72883 0.062974 1.1721 0.065909 2.9492 0.019531 3.6914-1.0156 3.6914-1.0156" opacity=".666"/>
      <path d="m0.80423 4.6679s0.48828 0.78124 3.2617 0.80077c2.7734 0.019531 3.4961-0.8789 3.4961-0.8789" opacity=".666"/>
      <path d="m1.0006 3.8618s0.62499 0.74218 3.0273 0.80077c2.4023 0.058593 3.3398-0.8789 3.3398-0.8789" opacity=".666"/>
      <path d="m1.354 2.9909s0.60363 0.76171 2.7325 0.80077c2.1289 0.039063 2.9669-0.8789 2.9669-0.8789" opacity=".666"/>
      <path d="m1.7457 2.1653s0.60363 0.76171 2.3028 0.80077 2.381-0.8789 2.381-0.8789" opacity=".666"/>
      <path d="m2.4242 1.5938s0.48461 0.48828 1.6565 0.52734c1.1719 0.039062 1.7151-0.58593 1.7151-0.58593" opacity=".666"/>
      <path d="m3.131 0.92971s0.14892 0.39062 1.0083 0.39062 0.8911-0.46874 0.8911-0.46874" opacity=".666"/>
      <path d="m1.543 2.5488c0.95702-1.543 2.4218-1.9726 2.4218-1.9726l0.42968 0.019531s1.5039 0.52734 2.4218 1.9726c0.99758 1.5707 0.95702 4.2169 0.95702 4.2169s0 1.1151-3.6132 1.1151c-3.6132 0-3.5742-1.1346-3.5742-1.1346s-0.023736-2.6357 0.95702-4.2169z"/>
    </g>
  </symbol>

  <symbol id="library" viewBox="0 0 8.4667 8.4667">
    <g stroke="#191919" stroke-width=".26458px">
      <path d="m6.3309 4.0855 2e-7 -1.7433 0.71108 0.022938-0.022937 5.2299-0.71108-1.8e-6" fill="#ecaffe"/>
      <path d="m5.4822 4.0626 0.84871 0.022937-0.022939 3.5095-0.91752-0.022939" fill="#656565"/>
      <path d="m4.0142 2.8927h1.468l-0.091752 4.6794-1.468 1.4e-6" fill="#4baf50"/>
      <path d="m3.4866 3.4662v-0.57345h0.52758l-0.091752 4.6794-0.50464-1.1e-6" fill="#aa4949"/>
      <path d="m2.5461 3.4891 0.94046-0.022939-0.068814 4.1059-0.94046 0.022938" fill="#c9bf80"/>
      <path d="m1.9268 3.512 0.61933-0.022938-0.068814 4.1059-0.57345-1e-7" fill="#006d91"/>
      <path d="m0.64227 7.595 0.022938-5.0923 1.2387-0.022938v5.1152z" fill="#ffb811"/>
    </g>
    <g fill="#fff">
      <path d="m4.1326 3.3698 1.2003-0.016219-0.016219 0.8272-1.205 0.048659z"/>
      <path d="m4.1238 4.5538 1.1888-0.016219-0.00811 0.3102-1.2138 0.036494z"/>
      <path d="m4.0839 6.9107 1.1888-0.016219-0.016219 0.29804-1.1935 0.048659z"/>
    </g>
    <g>
      <path d="m0.7971 3.0992h0.97487l-4.5e-6 0.34981-0.9806 0.00574z" fill="#8a6100"/>
      <path d="m0.79136 3.7472 0.9806 0.011469v0.3326l-0.98634 0.01147z" fill="#8a6100"/>
      <ellipse cx="3.0106" cy="4.1715" rx=".20071" ry=".34981" fill="#fff"/>
      <path d="m5.5883 4.4605 0.60013 0.016219 0.00406 0.26762-0.61229-0.016219z" fill="#fffb15"/>
      <path d="m6.4513 6.127 0.44156 0.0086-0.00635 1.3274-0.44653 0.00385z" fill="#aa38cc"/>
    </g>
  </symbol>

  <symbol id="bookstore" viewBox="0 0 8.4667 8.4667" xmlns="http://www.w3.org/2000/svg">
    <g transform="translate(0 -288.53)">
      <g>
        <path d="m1.8864 291.06 0.48443-0.55124 3.9255 0.0167 0.46772 0.53454" fill="#464d71" stroke="#2c314d" stroke-linecap="round" stroke-linejoin="round" stroke-width=".26458px"/>
        <path d="m2.7049 291.21s-0.016704-1.7874 1.5535-1.7874c1.5702 0 1.637 1.7874 1.637 1.7874l-0.60136 0.0334s-0.050113-1.2361-1.0357-1.2361c-0.98556 0-1.0524 1.2361-1.0524 1.2361z" fill="#b5bef1" stroke="#2c314d" stroke-linecap="round" stroke-linejoin="round" stroke-width=".26458px"/>
        <rect x="1.8864" y="291.06" width="4.8777" height="5.0948" fill="#7482cf"/>
        <path d="m4.3266 292.53c-0.95036 1.6e-4 -1.8488 0.1999-2.4402 0.94384v2.652h4.8777v-2.6551c-0.59145-0.74207-1.4886-0.94054-2.4376-0.94074z" fill="#b5bef1"/>
      </g>
      <rect x="1.8864" y="291.06" width="4.8777" height="5.0948" fill="none" stroke="#2c314d" stroke-linecap="round" stroke-linejoin="round" stroke-width=".26458"/>
      <g transform="matrix(1.3306 0 0 1.3306 -1.5848 -97.104)" stroke-width=".75154">
        <path d="m5.7227 295.07h-2.5725v-1.2715h2.5725z" fill="#7482cf"/>
        <path d="m4.9968 294.66c0.33111-0.0252 0.62401 0.16366 0.62401 0.16366v-1.2841s-0.2929-0.18883-0.62401-0.16365c-0.33111 0.0252-0.56034 0.21401-0.56034 0.21401s-0.22923-0.18884-0.56034-0.21401c-0.33111-0.0252-0.62401 0.16365-0.62401 0.16365v1.2841s0.2929-0.18883 0.62401-0.16366c0.33111 0.0252 0.56034 0.21402 0.56034 0.21402s0.22923-0.18884 0.56034-0.21402z" fill="#eee8dc"/>
        <path d="m4.4364 293.57v1.2752" fill="none" stroke="#b5bef1" stroke-linecap="round" stroke-width=".049711"/>
      </g>
      <path d="m2.5691 292.42s0.45201-0.2539 1.158-0.31456m1.1996-2e-3c0.70608 0.0565 1.2331 0.33014 1.2331 0.33014" fill="none" opacity=".35331" stroke="#000" stroke-linecap="round" stroke-width=".26458"/>
      <circle cx="4.3267" cy="292.06" r=".21461" opacity=".35331"/>
    </g>
  </symbol>

  <symbol id="directory" viewBox="0 0 8.4667 8.4667">
    <g transform="matrix(.75553 0 0 .66822 2.1881 -192.93)" stroke-width=".37237">
      <path d="m4.176 289.58-2.773 2.5724h0.53485v3.8086h4.3765l0.033073-3.8086h0.53485z" fill="#eee" stroke="#000"/>
      <path d="m2.0345 292.01 2.1232-1.8999 2.093 1.8999" fill="none" stroke="#ff0c0c"/>
      <g fill="#69a49e">
        <rect x="4.4016" y="294.04" width="1.2862" height="1.3698"/>
        <rect x="2.5808" y="292.1" width="1.2862" height="1.3698"/>
        <rect x="4.3849" y="292.1" width="1.2862" height="1.3698"/>
      </g>
      <path d="m3.5089 295.01-3e-7 0.25968" fill="#520" stroke="#825120"/>
      <path d="m2.5892 295.96v-1.8709h1.2862v1.8709" fill="none" opacity=".75" stroke="#000"/>
    </g>
    <g transform="matrix(.75553 0 0 .66822 -.099914 -189.99)" stroke-width=".37237">
      <path d="m4.176 289.58-2.773 2.5724h0.53485v3.8086h4.3765l0.033073-3.8086h0.53485z" fill="#eee" stroke="#000"/>
      <path d="m2.0345 292.01 2.1232-1.8999 2.093 1.8999" fill="none" stroke="#ff0c0c"/>
      <g fill="#69a49e">
        <rect x="4.4016" y="294.04" width="1.2862" height="1.3698"/>
        <rect x="2.5808" y="292.1" width="1.2862" height="1.3698"/>
        <rect x="4.3849" y="292.1" width="1.2862" height="1.3698"/>
      </g>
      <path d="m3.5089 295.01-3e-7 0.25968" fill="#520" stroke="#825120"/>
      <path d="m2.5892 295.96v-1.8709h1.2862v1.8709" fill="none" opacity=".75" stroke="#000"/>
    </g>
    <g transform="rotate(-10.7 -1536 138.39)">
      <path d="m3.5485 294.11a1.237 1.0928 0 0 1-1.4594-0.66854 1.237 1.0928 0 0 1 0.58106-1.3586 1.237 1.0928 0 0 1 1.5952 0.35107 1.237 1.0928 0 0 1-0.20829 1.4406" fill="#0ce4f0" fill-opacity=".44393"/>
      <path d="m4.057 293.87 1.3218 2.5925-0.70158 0.30068-1.1287-2.6578z" fill="#bf853c" stroke="#000" stroke-width=".26458px"/>
      <path d="m3.5485 294.11a1.237 1.0928 0 0 1-1.4594-0.66854 1.237 1.0928 0 0 1 0.58106-1.3586 1.237 1.0928 0 0 1 1.5952 0.35107 1.237 1.0928 0 0 1-0.20829 1.4406" fill="none" stroke="#000" stroke-miterlimit="1" stroke-width=".26458"/>
    </g>
  </symbol>

  <symbol id="dragon-den" viewBox="0 0 8.4667 8.4667">
    <path d="m5.1185 3.4787 1.9691-0.37644" fill="none" stroke="#000" stroke-width=".26458px"/>
    <path d="m6.798 3.2036v0.65153" fill="none" stroke="#000" stroke-width=".26458px"/>
    <g stroke="#000" stroke-width=".26458px">
      <path d="m2.1499 5.6986-0.35832-0.32761 0.18428-0.42999 0.41975 0.30714" fill="#f41c1c"/>
      <path d="m8.258 7.2443 0.095255-0.47608-0.40287-0.2378-0.1569 0.49589" fill="#1cc0f4"/>
      <path d="m7.5921 6.858 0.35832-0.32761-0.18428-0.42999-0.41975 0.30714" fill="#1cf442"/>
      <path d="m6.3378 4.8522 0.1889-0.44726-0.34692-0.31384-0.25326 0.45429" fill="#f41c1c"/>
      <path d="m3.1044 3.6448-0.1919-0.44598 0.3448-0.31617 0.25632 0.45258" fill="#1cf442"/>
      <path d="m-0.38904 7.5005s0.71665-0.081903 1.0033-0.6757c0.28666-0.5938 0.7576-0.79855 1.5152-1.1671 0.7576-0.36856 0.32761-2.0271 0.96236-2.068 0.63475-0.040951 0.73712-2.2728 1.3923-1.8019 0.65522 0.47094 0.77808 2.7642 1.6381 2.8256 0.85998 0.061427 1.1262 2.2523 1.679 2.4161 0.55284 0.16381 0.79855 0.45047 0.79855 0.45047" fill="#f4d81c"/>
    </g>
    <g fill="none" stroke-width=".26458px">
      <path d="m1.0755 6.2475-0.21136-0.95216" stroke="#000"/>
      <path d="m0.5923 5.72 0.64845-0.19105" stroke="#000"/>
      <g stroke="#a38f08">
        <path d="m2.8378 6.6153 0.50675 0.014478"/>
        <path d="m2.6951 6.3569 0.50675 0.014478"/>
        <path d="m2.7975 6.1419 0.50675 0.014478"/>
        <path d="m4.2516 3.8985 0.50675 0.014478"/>
        <path d="m4.3438 3.6631 0.50675 0.014478"/>
      </g>
    </g>
    <path d="m3.7499 2.4382-0.42712-0.72393 0.43435 0.028957 0.057914-0.34748 0.31853 0.18822 0.21718-0.4054 0.4054 0.85423z" fill="#f4d81c" stroke="#000" stroke-width=".26458px"/>
    <g fill="#f41c1c">
      <circle cx="3.8332" cy="2.0871" r=".11221"/>
      <circle cx="4.3436" cy="1.8446" r=".11221"/>
      <circle cx="4.0902" cy="1.9604" r=".11221"/>
    </g>
    <g stroke-width=".26458px">
      <path d="m5.2712 6.4345-0.15202-0.18822 0.2389-0.49227 0.35472 0.44883-0.11583 0.25337" fill="#1cc0f4" stroke="#000"/>
      <path d="m1.3099 7.3701-0.15202-0.18822 0.2389-0.49227 0.35472 0.44883-0.11583 0.25337" fill="#f41c1c" stroke="#000"/>
      <path d="m6.4781 7.1282 0.50675 0.014478" fill="none" stroke="#a38f08"/>
      <path d="m6.3354 6.8697 0.50675 0.014478" fill="none" stroke="#a38f08"/>
    </g>
  </symbol>

  <symbol id="encyclopedia" viewBox="0 0 8.4667 8.4667">
    <g transform="translate(0 -288.53)">
      <g stroke-width=".26458px">
        <path d="m4.9753 295.98c-1.8426-0.0709-3.2128 0.82682-3.2128 0.82682l-1.5735-5.1331 1.9e-7 -0.52917 8.0794 3.2668-2e-7 0.52917c-2.0316-0.16536-3.2931 1.0394-3.2931 1.0394z" fill="#7e7e7e" stroke="#000"/>
        <path d="m4.9753 295.45c-1.8426-0.0709-3.2128 0.82682-3.2128 0.82682l-1.5735-5.1331s1.3702-0.89769 3.2128-0.82682c0 0 1.2615-1.2048 3.2931-1.0394l1.5735 5.1331c-2.0316-0.16536-3.2931 1.0394-3.2931 1.0394z" fill="#ededed" stroke="#000"/>
        <g fill="none">
          <g stroke="#a4a4a4">
            <path d="m1.0867 291.68s0.99219-0.61421 2.1025-0.51972"/>
            <path d="m1.3403 292.46s0.99219-0.61421 2.1025-0.51972"/>
            <path d="m1.671 293.33s0.99219-0.61421 2.1025-0.51972"/>
            <path d="m1.9073 294.16s0.99219-0.61421 2.1025-0.51972"/>
            <path d="m2.1435 295.1s0.99219-0.61421 2.1025-0.51972"/>
            <path d="m4.2609 290.75s0.99219-0.61421 2.1025-0.51972"/>
            <path d="m4.5146 291.52s0.99219-0.61421 2.1025-0.51972"/>
            <path d="m4.8453 292.39s0.99219-0.61421 2.1025-0.51972"/>
            <path d="m5.0815 293.22s0.99219-0.61421 2.1025-0.51972"/>
            <path d="m5.3178 294.16s0.99219-0.61421 2.1025-0.51972"/>
          </g>
          <path d="m3.4018 290.31 1.5735 5.1331" stroke="#000" stroke-opacity=".14019"/>
          <path d="m4.9753 295.45-2e-7 0.52917" stroke="#000"/>
        </g>
      </g>
      <g transform="rotate(-10.7 4.1276 285.35)">
        <path d="m3.5485 294.11a1.237 1.0928 0 0 1 -1.4594 -0.66854 1.237 1.0928 0 0 1 0.58106 -1.3586 1.237 1.0928 0 0 1 1.5952 0.35107 1.237 1.0928 0 0 1 -0.20829 1.4406" fill="#0ce4f0" fill-opacity=".44393"/>
        <path d="m4.057 293.87 1.3218 2.5925-0.70158 0.30068-1.1287-2.6578z" fill="#bf853c" stroke="#000" stroke-width=".26458px"/>
        <path d="m3.5485 294.11a1.237 1.0928 0 0 1 -1.4594 -0.66854 1.237 1.0928 0 0 1 0.58106 -1.3586 1.237 1.0928 0 0 1 1.5952 0.35107 1.237 1.0928 0 0 1 -0.20829 1.4406" fill="none" stroke="#000" stroke-miterlimit="1" stroke-width=".26458"/>
      </g>
    </g>
  </symbol>

  <symbol id="feedback" viewBox="0 0 8.4667 8.4667">
    <path d="m1.7475 1.5138h4.9182c0.58632 0 1.0583 0.47202 1.0583 1.0583v2.5063c0 0.58632-0.47202 1.0583-1.0583 1.0583h-1.2296l0.033853 1.005-1.0286-1.005h-2.694c-0.58632 0-1.0583-0.47202-1.0583-1.0583v-2.5063c0-0.58632 0.47202-1.0583 1.0583-1.0583z" fill="#f4f4f4" stroke="#2e2e2e" stroke-linecap="round" stroke-miterlimit="1" stroke-width=".26458"/>
    <g transform="matrix(.86871 0 0 .86871 .52314 .096463)" fill="#686868" stroke-width=".1079">
      <path d="m2.968 5.261h0.42779v0.53527h-0.42779zm0.41515-0.30978h-0.40251v-0.32453c0-0.1419 0.019669-0.2585 0.059006-0.34982 0.039337-0.091319 0.12223-0.19739 0.24867-0.31821 0.13594-0.11794 0.26004-0.26589 0.36247-0.39829 0.036527-0.066031 0.054791-0.13347 0.054791-0.20231 0-0.12504-0.046362-0.22619-0.13909-0.30346-0.091319-0.07727-0.21284-0.1159-0.36457-0.1159-0.11099 0-0.2297 0.024586-0.35614 0.073758-0.12504 0.049172-0.25569 0.12082-0.39197 0.21495v-0.39618c0.13206-0.08008 0.26553-0.13979 0.4004-0.17913 0.13628-0.039337 0.27677-0.059006 0.42147-0.059006 0.2585 0 0.46573 0.068138 0.62167 0.20441 0.15735 0.13628 0.23602 0.3161 0.23602 0.53948 0 0.10677-0.025288 0.20863-0.075865 0.30557-0.050577 0.095534-0.13909 0.20371-0.26553 0.32453-0.11621 0.10454-0.22389 0.22369-0.32664 0.33718-0.026693 0.036527-0.04566 0.072352-0.056899 0.10748-0.00843 0.029503-0.014751 0.065328-0.018966 0.10748-0.00992 0.14654-0.00632 0.2754-0.00632 0.43201z"/>
      <path d="m5.088 5.261h0.42779v0.53527h-0.42779zm0-2.611h0.42779v1.3803l-0.042147 0.75233h-0.34139l-0.044255-0.75233z"/>
    </g>
  </symbol>

  <symbol id="fireplace" viewBox="0 0 8.4667 8.4667">
    <path d="m1.5759 7.0287v-3.5738l5.5437-0.02814-1e-7 3.6301" fill="#834141" stroke="#120909" stroke-width=".26458px"/>
    <g transform="translate(0 .27858)" fill="none" opacity=".195" stroke="#000" stroke-width=".26458px">
      <path d="m1.614 4.5596 5.4874 0.014071" stroke-opacity=".9486"/>
      <path d="m2.209 5.3079v0.60502"/>
      <g stroke-opacity=".9486">
        <path d="m1.6359 5.2942 5.4874 0.014071"/>
        <path d="m1.6319 5.974 5.4874 0.014071"/>
        <path d="m1.6181 3.8798 5.4874 0.014071"/>
      </g>
      <g>
        <path d="m2.8 3.2889v0.60502"/>
        <path d="m2.209 3.8587v0.60502"/>
        <path d="m4.3336 3.2924v0.60502"/>
        <path d="m3.5457 3.8979v0.60502"/>
        <path d="m5.7406 3.2924v0.60502"/>
        <path d="m5.0231 3.8955v0.60502"/>
        <path d="m6.4723 3.8869v0.60502"/>
        <path d="m6.4582 5.2798v0.60502"/>
      </g>
    </g>
    <path d="m1.998 7.0287 0.23919-1.9276" fill="none" stroke="#1a1a1a" stroke-width=".26458px"/>
    <path d="m2.8422 7.0569v-2.2231h2.9266l-0.02814 2.1668" fill="#301818" stroke="#030202" stroke-width=".26458px"/>
    <g fill="none" stroke-width=".26458px">
      <path d="m3.3741 7.0146v-0.61909" stroke="#393939"/>
      <path d="m5.1764 7.0006v-0.61909" stroke="#393939"/>
      <path d="m2.4904 7.0146-0.54874-1.7588" stroke="#1a1a1a"/>
    </g>
    <g>
      <path d="m1.0975 7.7041 6.5286-0.02814v-0.61909h-6.5286z" fill="#834141" stroke="#120909" stroke-width=".26458px"/>
      <path d="m2.8377 2.8639v-0.37989h-0.19698l0.01407-0.21105s0.21105-0.15477 0.23919-0.49246l-0.96634-0.01407c0.02814 0.33768 0.23919 0.49246 0.23919 0.49246l0.01407 0.21105h-0.19698v0.37989" fill="#eabc2b" stroke="#3d3006" stroke-width=".26458px"/>
      <g stroke="#000" stroke-width=".26458px">
        <path d="m3.5123 3.1315-0.00995-1.3232 0.43776-0.00995 0.00995 1.3332" fill="#b7614d"/>
        <path d="m4.4321 1.8605 0.88547 1.0248-0.91532 0.40978" fill="#b5b5b5"/>
        <path d="m3.9645 2.8454-0.00995-1.3232 0.43776-0.00995 0.00995 1.3332" fill="#a3beda"/>
      </g>
      <circle cx="6.2431" cy="2.4525" r=".43279" fill="#d2f4f8" stroke="#0d1c1e" stroke-linecap="square" stroke-width=".26458"/>
      <path d="m1.0975 3.5304 6.5286-0.02814v-0.61909h-6.5286z" fill="#e0c4b5" stroke="#120909" stroke-width=".26458px"/>
      <path d="m3.6442 6.4416-0.0070353-0.42914 1.2734 0.014071v0.43618z" fill="#5b4c38" stroke="#16120e" stroke-width=".26458px"/>
    </g>
    <g fill="none" stroke-width=".26458px">
      <path d="m3.4163 6.677h1.8163" stroke="#393939"/>
      <path d="m2.1668 2.2589s0.26537 0.11256 0.48796 0.01407" stroke="#3d3006"/>
      <g stroke="#000">
        <path d="m6.4864 7.0639v0.60502" opacity=".195"/>
        <path d="m2.2372 7.0709v0.60502" opacity=".195"/>
        <path d="m3.5632 7.0146v0.60502" opacity=".195"/>
        <path d="m5.0371 7.0006v0.60502" opacity=".195"/>
      </g>
    </g>
  </symbol>

  <symbol id="florist" viewBox="0 0 8.4667 8.4667">
    <g transform="translate(0 -288.53)" stroke="#000" stroke-width=".26458px">
      <path d="m4.6178 292.86s-0.65713 1.4009-0.79887 2.2513c-0.14174 0.85044-0.85045-1.1812-1.2757-0.75596-0.42522 0.42523 1.1339 1.3229 1.1339 1.3229l-0.094494 1.2284 0.61421-0.14174s-0.21148-1.544 0.81437-3.9481" fill="#139b00"/>
      <path d="m3.9637 290.96 1.754-0.0668 0.18375 2.2217h-2.1716z" fill="#f5d500"/>
      <g fill="#e25900">
        <path d="m3.1953 290.78s0.18375-0.65147 0.53454-0.35079 0.63613 0.83938 0.63613 0.83938l-0.15034 0.11693s-0.44807-0.38269-0.51489-0.24906c-0.066817 0.13364 0.36319 0.44535 0.36319 0.44535l-0.066818 0.20045s-1.9711-0.51783-0.80181-1.0023z"/>
        <path d="m2.8021 292.31s-0.33073-0.59059 0.12993-0.62602c0.46066-0.0354 1.0553 0.14703 1.0553 0.14703l-0.023624 0.18899s-0.58152 0.0676-0.53427 0.20938c0.047251 0.14174 0.55381 0.0333 0.55381 0.0333l0.094491 0.18899s-1.7599 1.0276-1.2757-0.14174z"/>
        <path d="m3.6155 293.66s-0.65147-0.18375-0.35079-0.53454c0.3007-0.35076 0.81988-0.62638 0.81988-0.62638l0.11693 0.15034s-0.32418 0.44808-0.19056 0.51489c0.13364 0.0668 0.40633-0.37295 0.40633-0.37295l0.20045 0.0668s-0.51783 1.9711-1.0023 0.80181z"/>
        <path d="m5.0585 294s-0.59059 0.33073-0.62602-0.12994c-0.035395-0.46065 0.12993-1.04 0.12993-1.04l0.18899 0.0236s0.06525 0.57594 0.20698 0.52869c0.14173-0.0473 0.052856-0.56356 0.052856-0.56356l0.18898-0.0945s1.0276 1.7599-0.14174 1.2757z"/>
        <path d="m6.4029 293.19s-0.18375 0.65147-0.53455 0.35078c-0.35076-0.3007-0.63613-0.82962-0.63613-0.82962l0.15032-0.11695s0.46758 0.41194 0.53439 0.27831c0.066772-0.13367-0.3827-0.48433-0.3827-0.48433l0.066804-0.20045s1.9711 0.51782 0.80181 1.0023z"/>
        <path d="m6.7627 291.74s0.33073 0.59059-0.12994 0.62602c-0.46065 0.0354-1.04-0.12993-1.04-0.12993l0.023599-0.18899s0.60518-0.0457 0.55793-0.18748c-0.047304-0.14173-0.59281-0.0724-0.59281-0.0724l-0.094502-0.18898s1.7599-1.0276 1.2757 0.14174z"/>
        <path d="m6.0371 290.41s0.65147 0.18375 0.35078 0.53455c-0.3007 0.35076-0.86862 0.68487-0.86862 0.68487l-0.13645-0.17957s0.46852-0.48984 0.33489-0.55665c-0.13367-0.0668-0.47266 0.41471-0.47266 0.41471l-0.2102-0.096s0.51782-1.9711 1.0023-0.80181z"/>
        <path d="m4.5889 289.95s0.59059-0.33073 0.62602 0.12994c0.0354 0.46065-0.12993 1.0985-0.12993 1.0985l-0.18899-0.0236s-0.074997-0.64419-0.21673-0.59694c-0.14175 0.0473-0.023602 0.61231-0.023602 0.61231l-0.20848 0.0555s-1.0276-1.7599 0.14174-1.2757z"/>
      </g>
    </g>
  </symbol>

  <symbol id="front-door" viewBox="0 0 8.4667 8.4667">
    <path d="m2.3288 7.1698 0.014333-5.7399 4.1415 0.015373 0.00502 5.7401z" fill="#a9783a" stroke="#000" stroke-width=".26458"/>
    <circle cx="5.9423" cy="5.0545" r=".26458" opacity=".5" stroke-width="1.2399"/>
    <g stroke="#000">
      <rect x="2.9322" y="2.0158" width="2.9625" height=".97125" fill="#3a9ad8" stroke-dashoffset=".25" stroke-linecap="square" stroke-width=".26458"/>
      <path d="m3.9046 2.1316 1e-6 0.85663" fill="none" stroke-width=".26458px"/>
      <path d="m4.8808 2.0619 1e-6 0.85663" fill="none" stroke-width=".26458px"/>
    </g>
    <circle cx="4.3429" cy="3.6855" r=".13945" opacity=".5"/>
    <path d="m6.4148 4.7014s-0.61757 0.027031-0.63749-0.37841c-0.01992-0.40544 0.65741-0.37841 0.65741-0.37841" opacity=".5"/>
  </symbol>

  <symbol id="greenhouse" viewBox="0 0 8.4667 8.4667">
    <g transform="translate(0 -288.53)" stroke-width=".26458px">
      <path d="m1.4032 295.89v-3.5694l2.8063-2.4388 2.8063 2.4388 3e-7 3.5694" fill="#9cceda" stroke="#183840"/>
      <g fill="none" stroke="#3d8460">
        <path d="m1.819 295.24c8.726e-4 -0.20561-0.048941-0.37825-0.094494-0.53744"/>
        <path d="m2.4568 293.53c-0.20181 0.2326 9.4e-5 0.91766-0.18899 1.7186 0 0-0.31301-0.19489-0.23033-0.502 0.082682-0.3071-0.10631-0.49609-0.10631-0.49609"/>
        <path d="m5.624 294.87 0.075172 0.37403 0.45638-0.41996"/>
        <path d="m6.148 295.25-0.10858-0.74152"/>
        <path d="m6.6971 294.87-0.10023 0.36567-0.3912-0.14679 0.30068-0.59301"/>
        <path d="m2.7167 295.23v-0.43349s0.053153-0.31301 0.25395-0.21851"/>
      </g>
      <path d="m1.4032 295.36v1.0023l5.6127 1e-5 3e-7 -1.0023z" fill="#8b8b8b" stroke="#242424"/>
      <path d="m3.249 296.24v-2.1382h1.9377v2.1382" fill="#76552c" stroke="#241a0e"/>
      <path d="m1.4032 292.32 5.6127 1e-5" fill="none" stroke="#183840" stroke-opacity=".47664"/>
      <path d="m2.3978 294.56s0.23624-0.0414 0.31892 0.23623" fill="none" stroke="#3d8460"/>
    </g>
  </symbol>

  <symbol id="grocer" viewBox="0 0 8.4667 8.4667">
    <path d="m4.0729 2.4802s0.15275-0.26032 1.5839-0.22484c1.4312 0.035485 1.6714 0.29013 1.6714 0.29013l-0.44132 0.76258-2.5667-0.10645z" fill="#f9f3de"/>
    <path d="m4.5924 0.77925s-0.087068-0.30735 1.0755-0.30735c1.1626 0 1.1606 0.30735 1.1606 0.30735l-0.54164 0.56822-1.4135-0.075274z" fill="#5191df" stroke="#1f2f41" stroke-width=".26458px"/>
    <g transform="matrix(1.0971 0 0 1.089 -14.146 -1.2276)" stroke-width=".91486">
      <path d="m16.546 7.1512s0.14986 0.47955 1.4386 0.47955c1.2888 0 1.6185-0.50952 1.6185-0.50952l-0.02997-3.6566s-0.64571 0.12485-1.5366 0.13957-1.4417-0.19882-1.4306-0.19952z" fill="#f4e8c1" stroke-width=".74328"/>
      <g>
        <path d="m16.546 7.1512s0.14986 0.47955 1.4386 0.47955c1.2888 0 1.6185-0.50952 1.6185-0.50952l-0.02997-3.6566-0.51556-0.98953-1.9482-0.029972-0.50348 0.95953z" fill="none" stroke="#3d3d3d" stroke-width=".24205px"/>
        <path d="m19.058 2.4753 0.05994-0.63243s-0.26821 0.11444-1.035 0.10752c-0.76674-0.00692-1.0032-0.10752-1.0032-0.10752l0.02997 0.60246s0.20322 0.14203 0.98843 0.14203c0.7852 0 0.95976-0.11206 0.95976-0.11206z" fill="#246dc6" stroke="#1f2f41" stroke-linejoin="bevel" stroke-width=".24206"/>
        <path d="m16.561 4.5137s0.18565 0.30523 1.5102 0.29777c1.3245-0.00747 1.5319-0.28278 1.5319-0.28278l0.01499 1.4237s-0.24987 0.28044-1.5469 0.29033c-1.297 0.00989-1.5252-0.29033-1.5252-0.29033z" fill="#dbdbdb" stroke="#3d3d3d" stroke-linejoin="bevel" stroke-width=".24205px"/>
      </g>
      <path d="m17.85 5.9561v-0.82422l0.26975-0.022479 0.25476 0.27724 0.26975-0.34468 0.26975-0.014986v0.86918l-0.22479 0.014986-0.01499-0.52451-0.19482 0.25476-0.25476 0.014986-0.14986-0.22479v0.52451z" fill="#1f2f41" stroke-width=".91486"/>
    </g>
    <g transform="matrix(-.087022 -.46678 .47369 -.088311 -131.51 34.255)">
      <path d="m4.1761 295.9c-3.9639-0.0454-1.9711-5.9802-1e-7 -6.047 1.9711-0.0668 3.9639 6.0923 1e-7 6.047z" fill="#f2e2ce" stroke="#533714" stroke-miterlimit="1" stroke-width=".55314"/>
      <g fill="#c38233" stroke-width="6.5236">
        <ellipse cx="3.1909" cy="292.44" rx=".67544" ry=".92314" opacity=".25"/>
        <ellipse cx="4.9446" cy="294.57" rx=".40006" ry=".41272" opacity=".25"/>
        <ellipse cx="3.6627" cy="295.09" rx=".35114" ry=".38371" opacity=".25"/>
        <ellipse cx="4.0262" cy="290.89" rx=".38944" ry=".41509" opacity=".25"/>
        <ellipse cx="5.4017" cy="293.05" rx=".57438" ry=".57032" opacity=".25"/>
      </g>
    </g>
    <g transform="matrix(.88806 0 0 .88807 -1.3717 1.2617)" stroke="#363408">
      <path d="m4.98 2.5027-0.41891-0.55854 0.97745-0.384 0.10473 0.66327" fill="#b8841a" stroke-width=".29793"/>
      <path d="m2.0825 6.1681s1.6439-0.038057 2.5134-0.90763c0.8029-0.8029 0.384-2.7578 0.384-2.7578l0.66327-0.27927s2.0247 2.1643 0.27927 4.0494c-1.8299 1.9763-4.1192 0.27927-4.1192 0.27927z" fill="#e1d82a" stroke-width=".29793px"/>
      <path d="m1.8033 6.5521s2.3738 0.54109 3.4211-0.87272c1.0473-1.4138 0.41891-3.456 0.41891-3.456" fill="none" opacity=".333" stroke-width=".29793px"/>
    </g>
    <g transform="matrix(-.18011 .98365 .98365 .18011 -283.77 -49.672)" stroke-width=".26458px">
      <path d="m2.4997 290.66s0.97707 0.77848 0.43704 1.0749c-0.57657 0.31644-0.43704-1.0749-0.43704-1.0749z" fill="#c8b46b" stroke="#4d481c"/>
      <path d="m3.8935 289.61s-0.82737 1.2014 0.69689 6.1657" fill="none" stroke="#446725"/>
      <path d="m3.7045 292.38s0.88588 0.64965 0.31892 0.99219-0.31892-0.99219-0.31892-0.99219z" fill="#c8b46b" stroke="#4d481c"/>
      <path d="m3.4683 293.09s1.0394 0.56696 0.51972 0.98037c-0.51972 0.41341-0.51972-0.98037-0.51972-0.98037z" fill="#c8b46b" stroke="#4d481c"/>
      <path d="m2.4524 293.1s1.4841-2e-3 1.8544 1.5828" fill="none" stroke="#446725"/>
      <path d="m2.4722 290.32s1.6704 2.7729 2.205 5.9467" fill="none" stroke="#446725"/>
      <g fill="#c8b46b" stroke="#4d481c">
        <path d="m2.4524 289.75s1.0276 0.68508 0.4016 1.0749-0.4016-1.0749-0.4016-1.0749z"/>
        <path d="m3.1139 291.14s0.96856 0.62602 0.44885 1.0276c-0.51972 0.4016-0.44885-1.0276-0.44885-1.0276z"/>
        <path d="m2.8895 291.76s1.0749 0.57877 0.55515 0.99219c-0.51972 0.41341-0.55515-0.99219-0.55515-0.99219z"/>
        <path d="m4.177 293.79s0.89769 0.74414 0.29529 1.0158c-0.6024 0.27167-0.29529-1.0158-0.29529-1.0158z"/>
      </g>
    </g>
  </symbol>

  <symbol id="home" viewBox="0 0 8.4667 8.4667">
    <g transform="translate(0 -288.53)">
      <path d="m4.176 289.58-2.773 2.5724h0.53485v3.8086h4.3765l0.033073-3.8086h0.53485z" fill="#eee" stroke="#000" stroke-width=".26458"/>
      <path d="m1.9142 292.01 2.2435-2.0976 2.2133 2.0976" fill="none" stroke="#ff0c0c" stroke-width=".26458px"/>
      <g fill="#69a49e">
        <rect x="4.4016" y="294.04" width="1.2862" height="1.3698"/>
        <rect x="2.5808" y="292.1" width="1.2862" height="1.3698"/>
        <rect x="4.3849" y="292.1" width="1.2862" height="1.3698"/>
      </g>
      <path d="m3.5089 295.01-3e-7 0.25968" fill="#520" stroke="#825120" stroke-width=".26458px"/>
      <path d="m2.5892 295.96v-1.8709h1.2862v1.8709" fill="none" opacity=".75" stroke="#000" stroke-width=".26458px"/>
    </g>
  </symbol>

  <symbol id="log-out" viewBox="0 0 8.4667 8.4667">
    <g transform="translate(0 -288.53)">
      <path d="m7.5116 293.83h-4.3097v1.3364l-2.2718-2.1048 2.2718-2.1048v1.3364h4.3097z" fill="#bd4040" stroke="#000" stroke-width=".26458"/>
    </g>
  </symbol>

  <symbol id="mailbox" viewBox="0 0 8.4667 8.4667">
    <rect transform="matrix(.99622 -.086873 .087011 .99621 0 0)" x="-.048394" y="2.9222" width="7.7585" height="3.8345" fill="#efecbf" stroke="#000" stroke-linecap="round" stroke-width=".26458"/>
    <g fill="none">
      <g stroke="#000" stroke-width=".26458">
        <path d="m0.96718 3.6574 0.9412-0.076087"/>
        <path d="m2.2257 3.5537 0.7885-0.056926"/>
        <path d="m1.015 4.2278 0.48611-0.039051"/>
        <path d="m1.7824 4.1573 0.77217-0.068508"/>
      </g>
      <g transform="matrix(1.1484 .096184 -.096261 1.1475 -.30795 -2.4397)" opacity=".66994" stroke="#299645" stroke-width=".11484">
        <circle cx="6.718" cy="4.5028" r=".42712" stroke-linecap="round"/>
        <g>
          <path d="m5.883 4.3146s0.058921-0.094111 0.23007-0.10497c0.17115-0.010859 0.12907 0.090491 0.31986 0.090491 0.19079 0 0.22727-0.079632 0.22727-0.079632"/>
          <path d="m5.8822 4.5592s0.058921-0.094111 0.23007-0.10497c0.17115-0.010859 0.12907 0.090491 0.31986 0.090491 0.19079 0 0.22727-0.079632 0.22727-0.079632"/>
          <path d="m5.8858 4.8017s0.058921-0.094111 0.23007-0.10497c0.17115-0.010859 0.12907 0.090491 0.31986 0.090491 0.19079 0 0.22727-0.079632 0.22727-0.079632"/>
          <path d="m6.7904 4.3436s0.21356 0.10497 0.14478 0.20994c-0.068773 0.10497-0.43797-0.079632-0.3511 0.068773 0.086871 0.1484 0.33662 0.27871 0.33662 0.27871"/>
          <path d="m6.5913 4.1264 0.039816 0.39092"/>
        </g>
      </g>
      <g stroke="#000" stroke-width=".26458">
        <path d="m3.2918 4.5245 1.0989-0.092187"/>
        <path d="m4.7086 4.411 0.62975-0.053598"/>
        <path d="m3.3556 5.0546 0.82991-0.073088"/>
      </g>
      <rect transform="matrix(.99622 -.086873 .087011 .99621 0 0)" x=".20859" y="3.181" width="7.2478" height="3.3243" stroke="#1fa8ff" stroke-dasharray="0.529168, 1.5875" stroke-linejoin="bevel" stroke-width=".26458"/>
      <rect transform="matrix(.99622 -.086873 .087011 .99621 0 0)" x=".20859" y="3.181" width="7.2478" height="3.3243" stroke="#ec6140" stroke-dasharray="0.529169, 1.5875" stroke-dashoffset="1.0583" stroke-linejoin="bevel" stroke-width=".26458"/>
    </g>
  </symbol>

  <symbol id="market" viewBox="0 0 8.4667 8.4667">
    <path d="m1.4766 2.6932 5.534-0.087166-0.13765 3.2649-5.351-0.047982z" fill="#fff" stroke-width=".82253"/>
    <path d="m4.2503 0.81581a3.3998 3.3998 0 0 0 -3.3998 3.3998 3.3998 3.3998 0 0 0 3.3998 3.3994 3.3998 3.3998 0 0 0 3.3994 -3.3994 3.3998 3.3998 0 0 0 -3.3994 -3.3998zm-0.60453 2.0426c0.54496-0.023694 0.66321 0.44982 0.66321 0.44982s0.42679-0.47374 1.0665-0.42634c0.63973 0.047389 0.75793 0.61626 0.75793 0.61626l0.00696 0.63755 0.55542-0.0113-0.033464 0.60322-0.51544 0.00348 0.010429 0.97046-0.71101 0.023469v-0.98915l-0.82923 0.0060806v0.9357l-0.68711 0.023902-0.024339-0.95482-0.92135 0.0065178-0.025641 0.90092-0.66363 0.023468v-0.91961l-0.45807 0.00304-0.033464-0.53631 0.49154-0.01v-1.3329h0.78185l-0.023468 0.49761s0.0474-0.49739 0.59236-0.52109zm-0.11256 0.73056c-0.13744 0.005554-0.31393 0.10426-0.52716 0.40636l-0.00565 0.2047 0.89138-0.018253-0.00913-0.35202s-0.12035-0.25002-0.34942-0.24076zm1.565 0.00652c-0.1312 0.00138-0.29452 0.080208-0.4811 0.32899v0.2425l0.82923-0.016952v-0.34421s-0.12946-0.21266-0.34813-0.21035z" fill="#dcaa0e" stroke="#443504" stroke-width=".22252"/>
  </symbol>

  <symbol id="meta" viewBox="0 0 8.4667 8.4667">
    <path d="m4.1961 1.1422c-1.7277-3.92e-5 -3.1284 1.4006-3.1283 3.1283-3.91e-5 1.7277 1.4006 3.1284 3.1283 3.1283 1.7277 3.9e-5 3.1284-1.4006 3.1283-3.1283 3.93e-5 -1.7277-1.4006-3.1284-3.1283-3.1283zm0.041635 0.91975c0.40721 0 0.73372 0.11164 0.97937 0.29618 0.24787 0.18454 0.37188 0.44741 0.37188 0.74991 0 0.14459-0.04003 0.28271-0.1197 0.41399-0.31265 0.3925-0.60627 0.57463-0.93253 0.8961-0.042049 0.049465-0.072189 0.097688-0.089894 0.14525-0.01328 0.039952-0.023168 0.088648-0.029807 0.14572-0.015603 0.19825-0.00994 0.37274-0.00994 0.58478h-0.63399v-0.43906c0-0.19215 0.030766-0.35041 0.092733-0.47407 0.33952-0.55951 0.66416-0.62268 0.96281-0.97038 0.05754-0.089417 0.086582-0.18072 0.086582-0.27394 0-0.16932-0.072994-0.27693-0.21906-0.38157-0.14385-0.10464-0.33536-0.12797-0.57438-0.12797-0.17483 0-0.36195 0.033242-0.56113 0.09983-0.19696 0.066587-0.40276 0.16351-0.61743 0.29097v-0.61367c0.20803-0.10844 0.41822-0.20885 0.63068-0.26212 0.21467-0.05327 0.43585-0.079958 0.6638-0.079958zm-0.48448 3.6516h0.67373v0.72483h-0.67373z" fill="#a22da2" stroke="#3c113c" stroke-linecap="round" stroke-miterlimit="1" stroke-width=".26458"/>
  </symbol>

  <symbol id="museum" viewBox="0 0 8.4667 8.4667">
    <g transform="translate(0 -288.53)" stroke="#000">
      <path d="m2.5182 296.91-0.018515-2.3626s0.83325 0.27167 1.685 0.32617 1.7035-0.22509 1.7035-0.22509v2.2644" fill="#8e8e8e" stroke-width=".26458"/>
      <g fill="none" stroke-width=".26458">
        <path d="m3.3329 294.86v2.0546"/>
        <path d="m4.1847 294.88v2.0364"/>
        <path d="m5.0364 294.93v1.9804"/>
      </g>
      <g>
        <path d="m4.1847 295.25s2.2384 0.0501 2.2217-0.83521c0.00835-0.5596-0.029232-0.73082-0.66609-0.85819-0.72573-0.10445-2.4949-0.14087-3.1154-0.0459-0.59509 0.0856-0.58674 0.31947-0.57839 0.8206 0.013086 0.78517 2.1382 0.91873 2.1382 0.91873z" fill="#b6b6b6" stroke-width=".26458px"/>
        <path d="m4.1847 294.88s2.2384 0.0501 2.2217-0.83521c-0.016703-0.88533-2.2217-0.81852-2.2217-0.81852s-2.1549-0.0501-2.1382 0.735c0.016704 0.7851 2.1382 0.91873 2.1382 0.91873z" fill="#d9d9d9" stroke-width=".26458px"/>
        <path d="m3.2526 289.61s0.43297-0.29356 1.0653-0.28656 1.1931 0.29488 1.1931 0.29488l-1.2513 1.5642z" fill="#c2c2c2" stroke-miterlimit="1" stroke-width=".26458"/>
        <path d="m5.1686 294-0.16665-0.32706s0.51846-0.29069 0.51846-1.6352-0.48143-1.7261-0.48143-1.7261l0.5555-0.67225s-0.64936 0.11813-1.2812 0.11813c-0.63179 1e-5 -1.163-0.1181-1.163-0.1181l0.48143 0.67226s-0.53698 0.39972-0.5555 1.617c-0.018517 1.2173 0.48143 1.7079 0.48143 1.7079l-0.18517 0.3452s0.29287 0.21919 0.89527 0.21919 0.90084-0.20103 0.90084-0.20103z" fill="#f9f9f9" stroke-miterlimit="1" stroke-width=".26458"/>
      </g>
      <path d="m3.5576 293.63s0.67839 0.20511 1.4443 0.0363" fill="none" stroke-width=".26458px"/>
      <path d="m3.6317 290.31s0.64136 0.16877 1.4073-4e-5" fill="none" stroke-width=".26458px"/>
    </g>
  </symbol>

  <symbol id="news" viewBox="0 0 8.4667 8.4667">
    <g transform="matrix(1.4 0 0 1.4 -1.6575 -1.7005)" stroke="#000" stroke-width=".18899">
      <path d="m4.0585 3.1567h-2.5224c0.00692 2.8305 0.3842 2.8477 0.3842 2.8477l1.662-0.29489" fill="#8d8d8d"/>
      <path d="m6.466 5.9765c0.70158 0 0.40091-3.2987 0.40091-3.2987l-4.5457 0.0279s0.30068 3.2987-0.40091 3.2987z" fill="#e4e4e4"/>
      <path d="m2.7889 3.2683 3.2072-0.0167" fill="none"/>
      <path d="m6.2467 3.2515h0.23386" fill="none"/>
      <path d="m2.9059 3.9197h1.6537s-0.01392 0.6459-0.03341 0.89368-0.08352 0.593-0.08352 0.593h-1.6203s0.0529-0.34522 0.06682-0.593 0.0167-0.89368 0.0167-0.89368z" fill="#666"/>
      <g fill="none">
        <path d="m5.0941 3.9197h1.3531"/>
        <path d="m5.1025 4.4041h1.3531"/>
        <path d="m5.044 4.922h1.3531"/>
        <path d="m4.9605 5.4064h1.3531"/>
      </g>
    </g>
  </symbol>

  <symbol id="painter" viewBox="0 0 8.4667 8.4667">
    <path d="m1.9298 8.0102s7.6193 0.12951 6.3458-0.92813c-1.2735-1.0576-3.4545-1.1041-1.7268-1.7483 1.2735-0.47486-6.4969-1.0792-6.4969-1.0792s6.5329 0.8369 5.3098 1.2519c-1.2087 0.41011-0.86338 0.60437 0.5612 1.1871 1.4246 0.58278-3.5893 0.67282-3.5893 0.67282z" fill="#ff009988"/>
    <g stroke="#000" stroke-width=".26458">
      <path d="m3.5459 5.879s0.20271 0.75203-1.4839 1.9072c0 0 0.29262-1.714 1.2658-2.0477" fill="#d785f8"/>
      <path d="m4.1653 5.063s0.4074-0.60254 1.2707-1.9414c0.86326-1.3389 1.3546-2.4034 1.3546-2.4034l-0.097886-0.18473-0.19296 0.025051s-0.7686 1.1067-1.706 2.6534c-0.93735 1.5467-1.0015 1.6793-1.0015 1.6793l-0.094843 0.51767z" fill="#aea080"/>
      <path d="m3.792 4.8902s-0.2439 0.29646-0.32916 0.41959c-0.093477 0.13499-0.14772 0.39372-0.13617 0.43255 0.022111 0.07425 0.14998 0.16109 0.23004 0.12364 0.035174-0.016448 0.24093-0.1899 0.32676-0.31269 0.10951-0.15668 0.28159-0.49127 0.28159-0.49127s-0.25769-0.058655-0.37305-0.17183z" fill="#979797"/>
    </g>
  </symbol>

  <symbol id="park" viewBox="0 0 8.4667 8.4667">
    <g transform="translate(0 -288.53)">
      <path d="m5.0364 290.63-0.14199 0.64312 0.80181-0.1921 0.56795-0.60136-0.66817-0.51784z" fill="#28a53e" stroke="#071d0b" stroke-width=".26458px"/>
      <path d="m6.7799 290.24c1.1339 2.3151 0.89769 6.0004 0.89769 6.0004h-0.82682s0.42522-3.6144-0.4016-5.7641" fill="#a57528" stroke="#1f1607" stroke-width=".26458px"/>
      <g fill="#28a53e" stroke="#071d0b" stroke-width=".26458px">
        <path d="m6.5314 291.39 0.54289 0.67652 0.43431-0.95215-0.72866-0.86803z"/>
        <path d="m6.9689 289.82s0.69689-0.4075 1.2107 0.21262c0 0-0.59649 0.065-0.83273 0.42522"/>
        <path d="m6.1894 289.65c-1.6773-0.56696-2.2915 1.2993-2.2915 1.2993 1.0867-0.51969 1.8899-0.49609 1.8899-0.49609-0.56696 0.96856-0.047247 2.1497-0.047247 2.1497 1.2284-0.94494 1.0725-1.8096 1.0725-1.8096s0.39215 0.86462 1.4316 1.1245c0 0 0.4016-1.3465-0.8032-1.8899 0 0-0.094494-0.96857-1.252-0.37798z"/>
      </g>
      <path d="m0.62602 296.24-0.21261-2.3624 0.41341-0.0473 0.21261 2.3978z" fill="#a57528" stroke="#1f1607" stroke-width=".26458px"/>
      <g fill="none" opacity=".5" stroke="#000">
        <path d="m1.3605 294.83s2.4096 0.47247 5.0318 0.0473" stroke-width=".26458px"/>
        <path d="m7.6895 295.82-0.82682-0.0709 0.85045-0.17717-1.2499-7e-3c-2.6222 0.42517-5.0318-0.0473-5.0318-0.0473l-0.8644-4e-3 0.34254 0.20035-0.30711 0.0472" stroke-miterlimit="1" stroke-width=".26458"/>
        <g stroke-width=".26458px">
          <path d="m1.3702 294.17 0.0612 1.351"/>
          <path d="m2.0719 294.17 0.0612 1.351"/>
          <path d="m2.7806 294.32 0.0612 1.351"/>
          <path d="m3.4893 294.36 0.0612 1.351"/>
          <path d="m4.198 294.39 0.0612 1.351"/>
          <path d="m4.9303 294.29 0.0612 1.351"/>
          <path d="m5.6863 294.27 0.0612 1.351"/>
          <path d="m6.402 294.21 0.0612 1.351"/>
        </g>
        <path d="m7.7131 294.52-0.74414-0.16537 0.74414-0.11811-0.8032-0.0945-0.50791 0.0709c-2.6222 0.42517-5.0318-0.0473-5.0318-0.0473l-0.92132 0.0826 0.42522 0.24812-0.41341 0.0473" stroke-miterlimit="1" stroke-width=".26458"/>
      </g>
      <g transform="rotate(40.587 2.6643 292.6)" stroke="#6f6f6f">
        <circle cx="2.6643" cy="292.6" r=".86027" fill="#fff" stroke-linecap="round" stroke-width=".26458"/>
        <g fill="none" opacity=".452" stroke-width=".26458px">
          <path d="m1.8899 292.35s0.76776 0.24805 1.5237-0.0591"/>
          <path d="m1.9608 293.03s0.77958-0.27167 1.4528-0.0473"/>
          <path d="m2.2442 292.89s-0.11812-0.24805-0.023624-0.47247"/>
          <path d="m3.0238 292.41s0.12993 0.23624 0.023622 0.47247"/>
        </g>
      </g>
      <g fill="none" stroke-width=".26458px">
        <path d="m3.8979 292.97s-0.12993 0.41341-0.44885 0.62602" stroke="#000" stroke-opacity=".26636"/>
        <path d="m4.1932 293.35s-0.1792 0.27096-0.28348 0.35436" stroke="#000" stroke-opacity=".26636"/>
        <g stroke="#071d0b">
          <path d="m5.7878 290.46s0.18899-0.38389 0.6024-0.4902c0 0 0.39569 0.29531 0.42877 0.8481"/>
          <path d="m7.4414 290.03s-0.59649-0.31892-0.79139 0.21851"/>
          <path d="m6.3902 289.97s-0.023624-0.0708-0.2008-0.313"/>
        </g>
      </g>
    </g>
  </symbol>

  <symbol id="pet-logs" viewBox="0 0 8.4667 8.4667">
    <g transform="translate(0 -288.53)">
      <path d="m1.6461 289.59 0.98402 5.8796-0.25316 0.75832-0.98402-5.8796z" fill="#604017"/>
      <path d="m2.63 295.48-0.25307 0.75244 4.4641-0.71702 0.25316-0.75833z" fill="#a6a6a6" stroke="#432d11" stroke-width=".26458px"/>
      <g fill="none">
        <g stroke="#432d11">
          <path d="m2.51 295.86 4.4401-0.69314" stroke-opacity=".45161" stroke-width=".088106"/>
          <path d="m2.3768 296.23 0.25319-0.75344" stroke-width=".26458px"/>
          <path d="m1.6191 289.51-0.2262 0.84147 0.98402 5.8796 4.4641-0.71703 0.29052-0.69344" stroke-width=".26458"/>
        </g>
        <path d="m2.9929 294.98s0.32401 0.80068 0.228 1.1472c-0.096002 0.34655-0.084001 0.77676-0.084001 0.77676" stroke="#bf0000" stroke-width=".39688"/>
      </g>
      <path d="m1.6461 289.59 0.98402 5.8796 4.4641-0.71703-1.056-5.9035z" fill="#976424" stroke="#432d11" stroke-width=".26458px"/>
      <path d="m3.266 291.31c0.73931-0.4466 1.0116 0.33638 1.0116 0.33638s0.070308-0.82392 0.9137-0.63755c0.89292 0.19732 0.29469 1.3538-0.59351 2.4634-1.2128-0.74121-2.1574-1.6636-1.3318-2.1622z" fill="#cfb391"/>
    </g>
  </symbol>

  <symbol id="pet-shelter" viewBox="0 0 8.4667 8.4667">
    <path class="colorA" d="m1.9447 1.5904c2.3732-0.58466 5.7498-0.83799 4.9201-0.13642-1.9744 1.6695-0.37161 1.5433-0.57883 3.43-0.14497 0.95182-0.51939 1.7442-0.90124 2.033-0.58444 0.44204-1.6294 0.21174-2.3981 0.091253-0.72761-0.11405-1.1851-1.0306-1.2542-1.4421-0.039097-1.0565 0-1.9098 0.82967-2.7674 0.5128-0.53-1.0294-1.1068-0.61743-1.2083z" fill="#80bdff" stroke-width=".26458"/>
    <path class="colorB" d="m4.545 3.8282c0.33208 0 1.3521 2.7402-0.047452 2.6704-1.3995-0.069658-0.28466-2.6704 0.047452-2.6704z" fill="#c4e0fe" stroke-width=".26458"/>
    <g transform="matrix(.17756 0 0 .17756 -.00080233 -.70287)" fill="none" stroke="#000" stroke-width="1.4901">
      <path d="m15.715 42.652s-14.25-9.4164 0-24.064c0 0-1.9594-3.4875-7.4815-3.1388 0 0 2.85-3.1388 13.894-3.1388 0 0 9.6191-5.0571 18.169 0 0 0-4.4533 1.5694-7.4815 5.2314"/>
      <path d="m32.867 39.376c0.54021-1.4855 5.0953-14.645-1.1194-19.742"/>
      <path d="m24.938 17.828s1.9875-0.2485 4.2752 0"/>
      <path d="m15.715 26.958s-2.1375 4.3159 0 8.3702"/>
      <path d="m16.784 43.866s3.3845 4.1851 6.4128 0c0 0 3.7407 5.5801 7.4815-1.0463"/>
      <path d="m22.422 13.942 0.08417 1.3694"/>
      <path d="m31.257 13.552 0.02404 1.3256-0.02404-1.3256"/>
    </g>
  </symbol>

  <symbol id="plaza" viewBox="0 0 8.4667 8.4667">
    <g transform="translate(0 -288.53)">
      <path d="m4.2637 293.52c-2.575 0.0236-2.5513 0.46988-2.5513 0.46988 1.4213 1.7853 3.9057 1.2111 5.1381 0.0118 0 0-0.011815-0.50529-2.5868-0.48169z" fill="#39b3e3" stroke="#000" stroke-width=".26458px"/>
      <path d="m2.5392 294s-0.14174-2.9057 0.73233-2.9293 0.99219 1.2048 0.99219 1.2048 0.11812-1.2284 0.99219-1.2048c0.87407 0.0236 0.73233 2.9293 0.73233 2.9293" fill="#39b3e3" fill-opacity=".69626" stroke="#146e90" stroke-width=".26458px"/>
      <path d="m4.0319 294.48 0.012528-2.0568h0.45103v2.1294" fill="#717171" stroke="#000" stroke-width=".26458"/>
      <path d="m6.8387 294.84s-0.023624 0.4252-2.5986 0.4016c-2.575-0.0236-2.5513-0.44885-2.5513-0.44885l0.023621-0.79723s-0.023624 0.42522 2.5513 0.44885c2.575 0.0236 2.5927-0.41932 2.5927-0.41932z" fill="#b2b2b2" stroke="#000" stroke-width=".26458px"/>
    </g>
  </symbol>

  <symbol id="portal" viewBox="0 0 8.4667 8.4667">
    <path d="m1.9922 6.7933 0.019922-5.7574h4.2632l1e-6 5.7574" fill="#6cb7cc" stroke="#000" stroke-width=".26458px"/>
    <g fill="#fff" fill-opacity=".43363">
      <path d="m4.821 2.7293-0.35232-0.35931-0.46045 0.20301 0.23285-0.44611-0.33536-0.37518l0.49623 0.083596 0.25319-0.43488 0.073839 0.49777 0.49184 0.10641-0.45059 0.22405z"/>
      <path transform="matrix(.55419 -.33413 .33413 .55419 .62141 4.3514)" d="m5.8756 4.1906-0.35232-0.35931-0.46045 0.20301 0.23285-0.44611-0.33536-0.37518l0.49623 0.083595 0.25319-0.43488 0.073839 0.49777 0.49184 0.10641-0.45059 0.22405z"/>
      <path d="m5.6366 6.7405-0.35232-0.35931-0.46045 0.20301 0.23285-0.44611-0.33536-0.37518l0.49623 0.083596 0.25319-0.43488 0.073839 0.49777 0.49184 0.10641-0.45059 0.22405z"/>
    </g>
    <path d="m1.9909 6.8757 0.013215-5.7897 2.8279 1.3913 8e-7 5.7963z" fill="#a9783a" stroke="#000" stroke-width=".26458"/>
    <path transform="matrix(.55419 -.33413 .33413 .55419 1.3588 3.288)" d="m5.8756 4.1906-0.35232-0.35931-0.46045 0.20301 0.23285-0.44611-0.33536-0.37518l0.49623 0.083595 0.25319-0.43488 0.073839 0.49777 0.49184 0.10641-0.45059 0.22405z" fill="#fff" fill-opacity=".43363"/>
    <ellipse cx="4.3977" cy="5.349" rx=".18926" ry=".12949"/>
    <ellipse cx="4.333" cy="5.349" rx=".16933" ry=".26894" fill="#4a4622"/>
  </symbol>

  <symbol id="settings" viewBox="0 0 8.4667 8.4667">
    <g transform="translate(0 -288.53)">
      <path d="m3.6916 289.98-1.019 0.35123 0.30091 0.56791-0.60151 0.56792-0.58463-0.30077-0.43444 1.0022 0.5514 0.25047-0.00103 0.0537c-0.042812 0.17946-0.064833 0.36326-0.065629 0.54777 5.133e-4 0.15178 0.015394 0.30318 0.044442 0.45216l-0.61271 0.19928 0.41789 0.95208 0.53382-0.30076h5.16e-4c0.15129 0.23326 0.34187 0.43853 0.56327 0.60668l0.088367 0.0951-0.33435 0.50126 1.0025 0.40049 0.16691-0.55087h0.048576c0.15997 0.0332 0.3229 0.05 0.48628 0.0501 0.15975-8.7e-4 0.31901-0.0177 0.47542-0.0501h0.042375l0.13333 0.56792 1.0857-0.45113-0.30076-0.5178 0.091467-0.0987c0.16938-0.13936 0.31891-0.30123 0.44442-0.48111l0.082166-0.0884 0.50126 0.25063 0.35088-0.98547-0.5302-0.19895c0.01828-0.11661 0.027953-0.23441 0.028939-0.35243-7.408e-4 -0.19286-0.024696-0.38492-0.071313-0.57206l0.67283-0.2465-0.40101-0.90227-0.61598 0.3731c-0.12346-0.18337-0.27161-0.34891-0.44029-0.49188l-0.096118-0.11473 0.30076-0.55138-0.76843-0.43409-0.35088 0.61805-0.025321-2e-3c-0.19876-0.0532-0.40352-0.0806-0.60927-0.0817-0.077514 7.4e-4 -0.15495 5e-3 -0.23203 0.0134l-0.16898-0.0134zm0.56809 2.0049c0.53501-4e-5 0.96878 0.4261 0.96893 0.95188 1.4e-4 0.52599-0.43372 0.95244-0.96893 0.9524-0.53521 4e-5 -0.96907-0.42641-0.96893-0.9524 1.503e-4 -0.52578 0.43393-0.95192 0.96893-0.95188z" fill="#8d8e8f" opacity=".75" stroke="#000" stroke-linecap="round" stroke-width=".26458"/>
    </g>
  </symbol>

  <symbol id="stats" viewBox="0 0 8.4667 8.4667">
    <g transform="translate(0 -288.53)" fill="none">
      <g stroke="#c0c0c0" stroke-width=".26458px">
        <path d="m5.9342 290.29v5.2444"/>
        <path d="m4.8759 290.29v5.2444"/>
        <path d="m3.8176 290.29v5.2444"/>
        <path d="m2.7592 290.29v5.2444"/>
        <path d="m1.6536 291.24h5.1972"/>
        <path d="m1.6536 292.29h5.1972"/>
        <path d="m1.6536 293.35h5.1972"/>
        <path d="m1.6536 294.41h5.1972"/>
      </g>
      <path d="m1.6536 290.28v5.1499h5.1972" stroke="#000" stroke-width=".26458px"/>
      <path d="m1.6536 295.43 1.2284-2.4568 0.99219-9e-3 1.1339 0.7087 1.8426-2.7309" stroke="#0078ff" stroke-width=".52917"/>
    </g>
  </symbol>

  <symbol id="trader" viewBox="0 0 8.4667 8.4667">
    <g transform="translate(0 -288.53)">
      <g transform="matrix(.84381 0 0 .84381 .69838 45.932)" stroke-miterlimit="3.3333" stroke-width=".31356">
        <g stroke-miterlimit="3.3333" stroke-width=".31356">
          <path d="m1.7729 293.08-0.95047-3.2533-0.95047 3.2533" fill="none" stroke="#000" stroke-opacity=".39252"/>
          <path d="m-0.12807 293.08s0.94543 0.25057 1.9009 0c0 0 0.00336 0.46772-0.94879 0.46772-0.95215 0-0.95215-0.46772-0.95215-0.46772z" fill="#cea35e" stroke="#201a0e"/>
          <path d="m6.5833 294.31 0.95047-3.2533 0.95047 3.2533" fill="none" stroke="#000" stroke-opacity=".39252"/>
        </g>
        <g stroke="#201a0e">
          <path d="m0.76811 289.69c1.8757 1.2663 3.4336 0.59345 3.4336 0.59345s1.2338 1.1651 3.4295 0.61669" fill="none" stroke-miterlimit="3.3333" stroke-width=".31356"/>
          <path transform="matrix(.31356 0 0 .31356 -.82765 287.51)" d="m15.387 8.2402-0.26562 9.7285-0.86719 1.332 0.94336 1.4473a1.4226 1.4226 0 0 0-0.63867 1.1855 1.4226 1.4226 0 0 0 0.5918 1.1504c-0.088472 2.3079-5.7988 3.4629-5.7988 3.4629s1.9127 0.56836 6.6504 0.56836 6.6504-0.56836 6.6504-0.56836-5.7566-1.163-5.8027-3.4883a1.4226 1.4226 0 0 0 0.55469-1.125 1.4226 1.4226 0 0 0-0.67188-1.207l0.93164-1.4258-0.86523-1.332-0.25977-9.7285h-1.1523z" fill="#cea35e" stroke-miterlimit="1" stroke-width="1"/>
          <g stroke-miterlimit="3.3333" stroke-width=".31356">
            <circle cx="4.1928" cy="289.68" r=".44607" fill="#cea35e" stroke-linecap="round"/>
            <circle cx="4.1844" cy="294.39" r=".44607" fill="none" opacity=".333" stroke-linecap="round"/>
            <path d="m8.4842 294.31s-0.94543 0.25057-1.9009 0c0 0-0.00336 0.46772 0.94879 0.46772 0.95215 0 0.95215-0.46772 0.95215-0.46772z" fill="#cea35e"/>
          </g>
        </g>
      </g>
      <path d="m4.0008 293.29 0.22195 0.0473 0.22195-0.0473" fill="none" opacity=".333" stroke="#201a0e" stroke-width=".26458px"/>
    </g>
  </symbol>

  <symbol id="hattier" viewBox="0 0 8.4667 8.4667">
    <g transform="translate(.02122 -288.25)" stroke="#3b311c">
      <g stroke-width=".26458px">
        <path d="m4.4306 294.41c1.5743 0.27587 4.1164 1.5015 3.6635 1.0131-0.45288-0.48845-2.1377-1.7878-2.1377-1.7878l-2.9005-0.50841s-0.48588-0.0442-1.2756 0.21448c-1.0612 0.34763-2.0913 0.98938-1.1766 0.75039 0.91472-0.23901 2.2525 0.0424 3.8268 0.31826z" fill="#cec1a2"/>
        <path d="m2.8751 293.53s0.33817 0.18944 1.6353 0.4168c1.2971 0.22737 1.4994 0.13266 1.4994 0.13266s0.39238-1.9207-0.00645-2.3997c-0.39884-0.47896-2.3031-0.73837-2.6821-0.37723-0.37899 0.36123-0.44613 2.2274-0.44613 2.2274z" fill="#cec1a2"/>
        <path d="m3.4934 293.74s-0.032671-0.89977 0.067266-1.395c0.099938-0.49524 1.0492-2.0906 1.0492-2.0906s0.45256 0.0399 0.59763-0.26337 0.044306-0.70222 0.044306-0.70222-0.54377 0.18079-0.64994 0.41198c-0.10618 0.2312-0.082728 0.47197-0.082728 0.47197l-0.7765 1.2838s0.013674-0.60236-0.11303-0.70349c-0.12671-0.10109 0.08273-0.47197-0.068107-0.73506-0.15084-0.2631-0.4247 0.92477-0.45933 0.74778-0.034619-0.17703-0.2257-0.21053-0.34327-0.13905-0.11757 0.0715 0.056039 0.6541-0.17996 0.65213-0.236-2e-3 -0.66059-0.57596-0.66059-0.57596s0.27537-0.37246-0.06052-0.62854c-0.33588-0.25611-0.72096-0.23156-0.72096-0.23156s-0.13056 0.59505 0.15593 0.90823c0.28649 0.31317 0.58063-0.0166 0.58063-0.0166s0.46639 0.41044 0.42479 0.79759c-0.041597 0.38713-0.83764-0.0154-0.83764-0.0154s0.28025 0.0491 0.93325 0.51857c0.653 0.46944 0.4813 1.4899 0.4813 1.4899s0.14497 0.0841 0.2733 0.12872c0.12833 0.0446 0.34493 0.0862 0.34493 0.0862z" fill="#219225" stroke="#0f4211"/>
      </g>
      <g fill="none">
        <g stroke="#592f63" stroke-width=".26458px">
          <path d="m5.2632 293.99s0.022652-0.71188 0.3612-1.2661c0.33854-0.55424 1.7318-1.1932 1.7318-1.1932"/>
          <path d="m7.0617 290.99s-1.4036 0.96257-1.7385 2.5029"/>
          <path d="m5.8115 291.08s0.41564-0.25254 0.57427 8e-3c0.15864 0.26022-0.16677 0.68661-0.16677 0.68661"/>
          <path d="m6.5535 293.09c-0.44024-0.56054-1.0519-0.24935-1.0519-0.24935s0.29369-0.93399-0.26066-1.1613"/>
        </g>
        <path d="m2.8641 292.94s0.66538 0.18357 1.8279 0.33139c1.1625 0.14803 1.3791 0.15988 1.3791 0.15988" stroke="#ac3c3c" stroke-linecap="round" stroke-width=".52917"/>
      </g>
    </g>
  </symbol>

  <symbol id="fieldGuide" viewBox="0 0 8.4667 8.4667">
    <g transform="translate(0 -288.53)">
      <g>
        <path d="m0.27876 292.71c0-2.1919 1.7769-3.9688 3.9688-3.9688s3.9688 1.7769 3.9688 3.9688" fill="#ffd40e"/>
        <path d="m8.2163 292.71c0 2.1919-1.7769 3.9688-3.9688 3.9688s-3.9688-1.7769-3.9688-3.9688" fill="#ac28cf"/>
        <path d="m1.911 292.71c0-1.741 1.4113-3.1523 3.1523-3.1523 1.741 0 3.1523 1.4113 3.1523 3.1523" fill="#fff5d6"/>
        <path d="m8.2156 292.71c0 1.741-1.4113 3.1523-3.1523 3.1523-1.741 0-3.1523-1.4113-3.1523-3.1523" fill="#6a23a9"/>
      </g>
      <g transform="matrix(1 0 0 -1 0 585.74)">
        <path d="m4.5729 293.03c0.010347-0.3285 0.036063-0.87155 0.1298-1.0441 0.063866-0.11752 0.12913-0.32692 0.18466-0.52618 0.048185 0.16478 0.1456 0.30786 0.34074 0.22562 0.23402-0.0987 0.1107-0.30011-0.02627-0.45278 0.28196 0.14518 0.94879 0.44472 1.05 0.0641 0.1279-0.48087-1.0639-0.29825-1.0639-0.29825s1.2648-0.37155 1.0438-0.78501c-0.17444-0.32632-0.75311 0.1845-0.99594 0.42032 0.00305-0.0196 0.0033-0.0404-7.727e-4 -0.0634-6.897e-4 -4e-3 -0.00226-6e-3 -0.0031-0.0105 0.18077-0.31389 0.4732-0.91483 0.11899-1.0222-0.34134-0.10347-0.42023 0.5374-0.43964 0.9264-0.22472 0.0673-0.48213 0.23875-0.48213 0.23875s0.73034-0.65037 0.45277-0.8615c-0.27757-0.21112-0.57794 0.71856-0.57794 0.71856s0.14543-0.95291-0.2233-0.90013c-0.36873 0.0528 0.079583 0.96504 0.079583 0.96504 0.00389 0.0425 0.014847 0.0747 0.028588 0.10271-0.038997-4e-3 -0.18414-0.0149-0.29592 0.0224-0.097914-0.13426-0.33997-0.19933-0.33997-0.19933s0.48048-0.56715 0.081901-0.68766c-0.23693-0.0716-0.27428 0.15783-0.26965 0.36005-0.099617-0.24313-0.47619-0.94139-0.76652-0.6891-0.29033 0.25229 0.62823 0.87809 0.62823 0.87809s-1.1808-0.51148-1.2795-0.0571c-0.098665 0.45431 1.1775 0.28975 1.1775 0.28975s-1.2171 0.36406-0.95036 0.77881c0.2667 0.41476 1.108-0.64206 1.108-0.64206v-7.7e-4c0.02932-0.0173 0.052-0.0351 0.072629-0.0541 0.025593 0.0305 0.075165 0.0952 0.12517 0.15686 0.043234 0.081 0.092866 0.15582 0.15685 0.19701 0.21469 0.28249 0.45485 0.62648 0.56017 0.89009 0.12575 0.31476 0.12122 0.79568 0.098126 1.077m0.5849-2.2059c-4.101e-4 3e-3 -2e-3 7e-3 -0.00232 0.0105l-0.010048-7e-3c0.00425-5.5e-4 0.00813-1e-3 0.012365-3e-3zm-0.78965 0.16457-0.068766 0.16767-0.090399-0.11438c0.054393 7e-3 0.10901-0.0193 0.15917-0.0534zm0.22252 0.0703c0.026197 0.0484 0.068067 0.0746 0.1159 0.0888 0.073791 0.061 0.15905 0.0842 0.24184-9e-3 4.789e-4 -5.4e-4 3.017e-4 -1e-3 7.727e-4 -2e-3 0.00721-1e-3 0.014712-3e-3 0.021634-4e-3 -0.078807 0.29299-0.17815 0.64262-0.23952 0.73556l-0.27043-0.51691z" stroke="#000" stroke-width=".52917"/>
        <g transform="matrix(.60628 -.082417 .082417 .60628 1.3129 288.75)" stroke-width=".26458"></g>
      </g>
      <g transform="translate(0 -.33409)">
        <path d="m4.5729 293.05c0.010347-0.3285 0.036063-0.88909 0.1298-1.0616 0.063866-0.11752 0.12913-0.32692 0.18466-0.52618 0.048185 0.16478 0.1456 0.30786 0.34074 0.22562 0.23402-0.0987 0.1107-0.30011-0.02627-0.45278 0.28196 0.14518 0.94879 0.44472 1.05 0.0641 0.1279-0.48087-1.0639-0.29825-1.0639-0.29825s1.2648-0.37155 1.0438-0.78501c-0.17444-0.32632-0.75311 0.1845-0.99594 0.42032 0.00305-0.0196 0.0033-0.0404-7.727e-4 -0.0634-6.897e-4 -4e-3 -0.00226-6e-3 -0.0031-0.0105 0.18077-0.31389 0.4732-0.91483 0.11899-1.0222-0.34134-0.10347-0.42023 0.5374-0.43964 0.9264-0.22472 0.0673-0.48213 0.23875-0.48213 0.23875s0.73034-0.65037 0.45277-0.8615c-0.27757-0.21112-0.57794 0.71856-0.57794 0.71856s0.14543-0.95291-0.2233-0.90013c-0.36873 0.0528 0.079583 0.96504 0.079583 0.96504 0.00389 0.0425 0.014847 0.0747 0.028588 0.10271-0.038997-4e-3 -0.18414-0.0149-0.29592 0.0224-0.097914-0.13426-0.33997-0.19933-0.33997-0.19933s0.48048-0.56715 0.081901-0.68766c-0.23693-0.0716-0.27428 0.15783-0.26965 0.36005-0.099617-0.24313-0.47619-0.94139-0.76652-0.6891-0.29033 0.25229 0.62823 0.87809 0.62823 0.87809s-1.1808-0.51148-1.2795-0.0571c-0.098665 0.45431 1.1775 0.28975 1.1775 0.28975s-1.2171 0.36406-0.95036 0.77881c0.2667 0.41476 1.108-0.64206 1.108-0.64206v-7.7e-4c0.02932-0.0173 0.052-0.0351 0.072629-0.0541 0.025593 0.0305 0.075165 0.0952 0.12517 0.15686 0.043234 0.081 0.092866 0.15582 0.15685 0.19701 0.21469 0.28249 0.45485 0.62648 0.56017 0.89009 0.12575 0.31476 0.12122 0.81907 0.098126 1.1003m0.5849-2.2292c-4.101e-4 3e-3 -2e-3 7e-3 -0.00232 0.0105l-0.010048-7e-3c0.00425-5.5e-4 0.00813-1e-3 0.012365-3e-3zm-0.78965 0.16457-0.068766 0.16767-0.090399-0.11438c0.054393 7e-3 0.10901-0.0193 0.15917-0.0534zm0.22252 0.0703c0.026197 0.0484 0.068067 0.0746 0.1159 0.0888 0.073791 0.061 0.15905 0.0842 0.24184-9e-3 4.789e-4 -5.4e-4 3.017e-4 -1e-3 7.727e-4 -2e-3 0.00721-1e-3 0.014712-3e-3 0.021634-4e-3 -0.078807 0.29299-0.17815 0.64262-0.23952 0.73556l-0.27043-0.51691z" fill="none" stroke="#000" stroke-width=".52917"/>
        <g transform="matrix(.60628 -.082417 .082417 .60628 1.3129 288.75)" stroke-width=".26458">
          <path transform="matrix(1.5116,0,0,1.5116,-8.6485,-24.535)" d="m7.7852 18.402-0.25 0.10742s0.66302 1.0232 0.80664 1.5977c0.088884 0.35554 0.014087 0.86612-0.051621 1.1641l0.29757 0.03796c0.058937-0.35044 0.16755-0.941 0.29311-1.1122 0.19747-0.26928 0.48438-1.0586 0.48438-1.0586l-0.21484-0.21484s-0.39582 0.98724-0.52148 1.1309l-0.21484-0.59375 0.3418-0.55469-0.19727-0.17969-0.28906 0.50195z" fill="#75b007"/>
          <path d="m4.4263 3.9755s0.87454 0.33454 0.48089 0.67062-0.65572-0.53897-0.65572-0.53897-0.54699 0.50381-0.70302 0.012112c-0.15602-0.4917 0.71202-0.26581 0.71202-0.26581z" fill="#b08f8f"/>
          <path d="m2.9763 3.2828s-0.081939-1.2427 0.53701-0.95968c0.61894 0.28303-0.28318 1.0954-0.28318 1.0954s0.90409 0.37238 0.40201 0.8394-0.7104-0.70618-0.7104-0.70618z" fill="#b08f8f"/>
          <path d="m4.1965 3.6727s-0.52535-1.5762 0.08341-1.5804c0.60876-0.00422 0.16349 1.5062 0.16349 1.5062s0.69116-1.4396 1.0942-1.0366c0.40303 0.40303-0.92207 1.2963-0.92207 1.2963s1.3089-0.64678 1.3337-0.038222c0.024773 0.60856-1.4222 0.27073-1.4222 0.27073s-0.34766-0.02658-0.33045-0.41802z" fill="#eddcdc"/>
          <path d="m5.4811 4.537s0.88382 0.905 0.21137 1.0866c-0.67245 0.18157-0.50009-1.0272-0.50009-1.0272s-0.95518 0.29685-0.86907-0.38741c0.086104-0.68425 1.0233 0.085547 1.0233 0.085547z" fill="#b08f8f"/>
          <path d="m5.3701 4.0392s0.2451-2.2078 0.9941-1.8648c0.749 0.34305-0.64942 1.9162-0.64942 1.9162s1.6601-1.3469 1.927-0.62867c0.26687 0.71822-1.8624 1.0414-1.8624 1.0414s1.9703-0.034119 1.6573 0.71649c-0.31302 0.75061-1.8971-0.48577-1.8971-0.48577s-0.4114-0.231-0.1694-0.69486z" fill="#eddcdc"/>
          <path d="m2.7408 3.7313s-1.5955 1.5274-1.9361 0.79698c-0.3406-0.73041 1.7113-1.0521 1.7113-1.0521s-2.1028-0.014531-1.843-0.72854c0.25988-0.71401 2.0587 0.37388 2.0587 0.37388s-1.495-1.2084-0.78085-1.5837c0.7142-0.37538 1.1078 1.5583 1.1078 1.5583s0.15985 0.4336-0.31782 0.63516z" fill="#eddcdc"/>
        </g>
      </g>
      <g fill="#f70000">
        <ellipse transform="rotate(19.425)" cx="100.39" cy="276.93" rx=".15355" ry=".064965" opacity=".79412"/>
        <ellipse transform="matrix(-.94308 .33258 .33258 .94308 0 0)" cx="95.945" cy="278.5" rx=".15355" ry=".064965" opacity=".79412"/>
        <ellipse transform="rotate(19.425)" cx="103.72" cy="277.51" rx=".11379" ry=".048143" opacity=".79412"/>
        <ellipse transform="matrix(-.94308 .33258 .33258 .94308 0 0)" cx="93.612" cy="281.07" rx=".11379" ry=".048143" opacity=".79412"/>
        <ellipse transform="rotate(19.425)" cx="104.09" cy="276.78" rx=".13082" ry=".055345" opacity=".79412"/>
        <ellipse transform="matrix(-.94308 .33258 .33258 .94308 0 0)" cx="92.914" cy="280.72" rx=".13082" ry=".055345" opacity=".79412"/>
        <ellipse transform="rotate(19.425)" cx="101.27" cy="278.42" rx=".11876" ry=".050246" opacity=".79412"/>
        <ellipse transform="matrix(-.94308 .33258 .33258 .94308 0 0)" cx="96.1" cy="280.24" rx=".11876" ry=".050246" opacity=".79412"/>
        <ellipse transform="rotate(19.425)" cx="100.79" cy="277.87" rx=".15355" ry=".064965" opacity=".79412"/>
        <ellipse transform="matrix(-.94308 .33258 .33258 .94308 0 0)" cx="96.224" cy="279.48" rx=".15355" ry=".064965" opacity=".79412"/>
        <ellipse transform="rotate(19.425)" cx="103.89" cy="275.8" rx=".15355" ry=".064965" opacity=".79412"/>
        <ellipse transform="matrix(-.94308 .33258 .33258 .94308 0 0)" cx="92.514" cy="279.81" rx=".15355" ry=".064965" opacity=".79412"/>
        <ellipse transform="rotate(19.425)" cx="102.79" cy="277" rx=".24798" ry=".10492" opacity=".79412"/>
        <ellipse transform="matrix(-.94308 .33258 .33258 .94308 0 0)" cx="94.372" cy="279.97" rx=".24798" ry=".10492" opacity=".79412"/>
        <ellipse transform="rotate(19.425)" cx="102.45" cy="277.94" rx=".085342" ry=".036106" opacity=".79412"/>
        <ellipse transform="matrix(-.94308 .33258 .33258 .94308 0 0)" cx="94.79" cy="280.64" rx=".085342" ry=".036106" opacity=".79412"/>
        <ellipse transform="rotate(19.425)" cx="101.9" cy="276.6" rx=".15355" ry=".064965" opacity=".79412"/>
        <ellipse transform="matrix(-.94308 .33258 .33258 .94308 0 0)" cx="94.568" cy="279.19" rx=".15355" ry=".064965" opacity=".79412"/>
        <ellipse transform="rotate(19.425)" cx="102.78" cy="275.78" rx=".10808" ry=".045726" opacity=".79412"/>
        <ellipse transform="matrix(-.94308 .33258 .33258 .94308 0 0)" cx="93.237" cy="279.14" rx=".10808" ry=".045726" opacity=".79412"/>
      </g>
    </g>
  </symbol>

  <symbol id="starkindred" viewBox="0 0 8.4667 8.4667">
    <g transform="translate(0 -288.53)">
      <g>
        <path d="m1.7358 295.88v0.58941h5.0321v-0.66014l-1.37-1.0845z" fill="#808080" stroke="#000" stroke-width=".27913px"/>
        <rect x="1.7358" y="289.23" width="5.0321" height="6.6485" fill="#303030" stroke="#000" stroke-linecap="round" stroke-linejoin="round" stroke-width=".27913" style="paint-order:markers fill stroke"/>
        <circle cx="4.2401" cy="292.62" r="1.8663" fill="#fff" style="paint-order:markers fill stroke"/>
        <path transform="matrix(.23729 0 0 .23729 .59601 288.96)" d="m15.357 9.1657 1.4977 4.3086 4.5606 0.09294-3.635 2.7558 1.3209 4.3661-3.7442-2.6054-3.7442 2.6054 1.3209-4.3661-3.6349-2.7558 4.5606-0.09294z" fill="#303030" style="paint-order:markers fill stroke"/>
      </g>
      <path d="m1.749 296.17h4.9926" fill="none" stroke="#000" stroke-opacity=".24648" stroke-width=".092951"/>
      <path d="m1.8899 289.08-0.011812 1.9844 0.51972-0.55516 0.46066 0.53153 0.011812-1.9607z" fill="#f00" stroke="#000" stroke-linecap="round" stroke-linejoin="round" stroke-width=".26458"/>
    </g>
  </symbol>

  <symbol id="achievements" viewBox="0 0 8.4667 8.4667">
    <g transform="translate(0 -288.53)">
      <g fill="#e9d635">
        <path d="m3.3103 295.79 0.31738-1.1359-0.95215-1.7372 0.10357-0.30948 0.33074 0.12573 0.65147 1.1359 0.10858-0.45938 0.63476 0.0167 0.12528 0.42597 0.70158-1.1359 0.37245-0.097 0.061866 0.36429-1.0524 1.6203 0.35079 1.1693"/>
        <path d="m1.9406 296.41 0.35079-0.68488 3.9088-0.0167 0.3675 0.70158z"/>
        <circle cx="4.2541" cy="291.07" r="1.9461" stroke="#443504" stroke-width=".26458"/>
      </g>
      <circle cx="3.6321" cy="290.38" r=".52562" fill="#f6eeac"/>
      <path d="m2.5041 296.44 0.47247-0.72052" fill="none" stroke="#f6eeac" stroke-width=".26458px"/>
      <path d="m3.1183 296.41 0.49609-0.72051 0.66146 0.0118-0.41341 0.73233z" fill="#f6eeac"/>
      <g fill="none">
        <path d="m3.5612 295.61 1.032-2.0482" stroke="#f6eeac" stroke-width=".52917"/>
        <path d="m1.9406 296.41 0.35079-0.68488 3.9088-0.0167 0.3675 0.70158z" stroke="#443504" stroke-width=".26458px"/>
        <path d="m3.3841 294.29 0.27758-0.56106" stroke="#f6eeac" stroke-width=".26458px"/>
        <path d="m3.3103 295.79 0.31738-1.1359-0.95215-1.7372 0.10357-0.30948 0.33074 0.12573 0.65147 1.1359 0.10858-0.45938 0.63476 0.0167 0.12528 0.42597 0.70158-1.1359 0.37245-0.097 0.061866 0.36429-1.0524 1.6203 0.35079 1.1693" stroke="#443504" stroke-width=".26458"/>
      </g>
      <path d="m3.5024 292.24s0.89368 0.25891 1.4199-0.40926c0.52619-0.66817 0.48443-1.4282 0.48443-1.4282s0.85192 1.1442-0.23386 1.9043c-1.0858 0.76005-1.6704-0.0668-1.6704-0.0668z" fill="#f1e47d"/>
    </g>
  </symbol>

  <symbol id="zoologist" viewBox="0 0 8.4667 8.4667">
    <g transform="translate(0 -288.53)">
      <path d="m4.9408 293.31c-0.011812 0.91332-0.44579 0.46141-0.98113 0.46141s-0.96932 0.35741-0.95751-0.46141c0.00772-0.53529 0.43398-0.96932 0.96932-0.96932s0.97625 0.43402 0.96932 0.96932z" stroke-linecap="round" stroke-miterlimit="8" stroke-width=".26458" style="paint-order:markers fill stroke"/>
      <g>
        <ellipse transform="rotate(-15)" cx="-72.304" cy="282.65" rx=".3842" ry=".53036" style="paint-order:markers fill stroke"/>
        <ellipse transform="rotate(15)" cx="79.931" cy="280.59" rx=".3842" ry=".53036" style="paint-order:markers fill stroke"/>
        <ellipse transform="rotate(30)" cx="150.87" cy="250.66" rx=".28815" ry=".40713" style="paint-order:markers fill stroke"/>
        <ellipse transform="rotate(-30)" cx="-144.03" cy="254.65" rx=".28815" ry=".40713" style="paint-order:markers fill stroke"/>
      </g>
      <circle cx="3.9392" cy="292.59" r="2.2265" fill="#66babf" fill-opacity=".25352" style="paint-order:markers fill stroke"/>
      <path d="m5.665 294.22 1.9991 1.4933s0.31985 0.2203 0.52975-0.0606c0.2099-0.28084-0.069967-0.51114-0.069967-0.51114l-2.069-1.533" fill="#b86019" stroke="#402109" stroke-width=".26458px"/>
      <path d="m3.9548 290.05a2.5516 2.5516 0 0 0-2.5518 2.5514 2.5516 2.5516 0 0 0 2.5518 2.5518 2.5516 2.5516 0 0 0 2.5514-2.5518 2.5516 2.5516 0 0 0-2.5514-2.5514zm0 0.41786a2.1333 2.1333 0 0 1 2.133 2.1335 2.1333 2.1333 0 0 1-2.133 2.1335 2.1333 2.1333 0 0 1-2.1335-2.1335 2.1333 2.1333 0 0 1 2.1335-2.1335z" fill="#b8b8b8" stroke="#2b2b2b" stroke-linecap="round" stroke-miterlimit="8" stroke-width=".26458" style="paint-order:markers fill stroke"/>
    </g>
  </symbol>
  
  <symbol id="cooking-buddy" viewBox="0 0 8.4667 8.4667">
   <g transform="translate(0 -288.53)">
    <g>
     <g stroke="#2a2a2a" stroke-width=".26458px">
      <path d="m2.7758 296.11s-0.23624 0.74414 0.47247 0.2008" fill="#616161"/>
      <path d="m5.9075 296.11s0.23624 0.74414-0.47247 0.2008" fill="#616161"/>
      <path d="m4.3467 296.43c-4.1223 0.0473-2.386-4.9137-0.047247-4.9137s4.1695 4.8664 0.047247 4.9137z" fill="#d8d8d8"/>
     </g>
     <path d="m2.008 293.6s2.3387 0.87407 4.6538 0.0236c0 0-0.14174-0.38978-0.23624-0.56696-0.094494-0.17717-0.33073-0.49608-0.33073-0.49608-1.7245 0.51972-3.5672 0-3.5672 0s-0.22049 0.28742-0.30711 0.46066c-0.086619 0.17324-0.21261 0.57878-0.21261 0.57878z" fill="#236924" stroke="#133913" stroke-width=".26458px"/>
     <path d="m2.7994 293.26 0.37798 0.0591 0.011811-0.3071 0.4016 0.0591v0.29529l0.35435 0.0591v0.33073l-0.35435-0.0473v-0.33073l-0.41341-0.0472v0.3071l-0.4016-0.0827z" fill="#cdeecd"/>
     <path d="m5.8824 293.26-0.37798 0.0591-0.011811-0.3071-0.4016 0.0591v0.29529l-0.35435 0.0591v0.33073l0.35435-0.0473v-0.33073l0.41341-0.0472v0.3071l0.4016-0.0827z" fill="#cdeecd"/>
    </g>
    <g fill="none" stroke="#898989" stroke-width=".26458px">
     <path d="m4.219 294.76 0.26674-3e-3"/>
     <path d="m3.8239 294.95 0.26674-3e-3"/>
     <path d="m4.609 294.95 0.26674-3e-3"/>
     <path d="m3.8239 295.36 0.26674-3e-3"/>
     <path d="m4.6006 295.36 0.26674-3e-3"/>
     <path d="m4.2081 295.53 0.26674-3e-3"/>
     <path d="m4.2081 295.17 0.26674-3e-3"/>
    </g>
   </g>
  </symbol>
  
  <symbol id="cooking-alien" viewBox="0 0 8.4667 8.4667">
   <g transform="translate(0 -288.53)">
    <g stroke="#2a2a2a" stroke-width=".26458px">
     <path d="m2.7758 296.11s-0.23624 0.74414 0.47247 0.2008" fill="#616161"/>
     <path d="m5.9075 296.11s0.23624 0.74414-0.47247 0.2008" fill="#616161"/>
     <path d="m4.3467 296.43c-4.1223 0.0473-2.386-4.9137-0.047247-4.9137s4.1695 4.8664 0.047247 4.9137z" fill="#d8d8d8"/>
    </g>
    <path d="m2.008 293.6s2.3387 0.87407 4.6538 0.0236c0 0-0.14174-0.38978-0.23624-0.56696-0.094494-0.17717-0.33073-0.49608-0.33073-0.49608-1.7245 0.51972-3.5672 0-3.5672 0s-0.22049 0.28742-0.30711 0.46066c-0.086619 0.17324-0.21261 0.57878-0.21261 0.57878z" fill="#236924" stroke="#133913" stroke-width=".26458px"/>
    <path d="m2.7994 293.26 0.37798 0.0591 0.011811-0.3071 0.4016 0.0591v0.29529l0.35435 0.0591v0.33073l-0.35435-0.0473v-0.33073l-0.41341-0.0472v0.3071l-0.4016-0.0827z" fill="#cdeecd"/>
    <path d="m5.8824 293.26-0.37798 0.0591-0.011811-0.3071-0.4016 0.0591v0.29529l-0.35435 0.0591v0.33073l0.35435-0.0473v-0.33073l0.41341-0.0472v0.3071l0.4016-0.0827z" fill="#cdeecd"/>
    <g fill="none" stroke="#898989" stroke-width=".26458px">
     <path d="m4.219 294.76 0.26674-3e-3"/>
     <path d="m3.8239 294.95 0.26674-3e-3"/>
     <path d="m4.609 294.95 0.26674-3e-3"/>
     <path d="m3.8239 295.36 0.26674-3e-3"/>
     <path d="m4.6006 295.36 0.26674-3e-3"/>
     <path d="m4.2081 295.53 0.26674-3e-3"/>
     <path d="m4.2081 295.17 0.26674-3e-3"/>
    </g>
   </g>
   <g transform="translate(.34616 -292.58)">
    <path d="m3.2536 296.08s-0.35435-1.441 0.47247-2.2915" fill="none" stroke="#000" stroke-width=".26458px"/>
    <circle cx="3.8619" cy="293.67" r=".3012"/>
    <path d="m4.6727 296.06s0.014796-1.4839 1.027-2.1022" fill="none" stroke="#000" stroke-width=".26458px"/>
    <circle transform="rotate(14.386)" cx="78.691" cy="283.2" r=".3012"/>
   </g>
  </symbol>

  <symbol id="infinity-vault" viewBox="0 0 12.7 12.7">
    <g transform="translate(0 -288.53)" stroke="#000">
      <circle cx="6.2957" cy="294.88" r="4.8074" fill="#765b7e" stroke-linecap="round" stroke-linejoin="bevel" stroke-miterlimit="40" stroke-width=".26458"/>
      <path d="m6.7799 290.38h-3.3309l-0.98038 0.98037h-1.7836v1.5946h1.4174l0.42522 0.42522v3.0711l-0.41341 0.41341h-1.4292v1.5001h1.7245l1.0394 1.0394h3.3545v-1.2757h-2.1497l-0.37798-0.37798v-5.6696l0.44885-0.44885h2.0552z" fill="#b39aba" stroke-width=".26458px"/>
      <g fill="none">
        <path d="m10.221 292.74h0.95305s0.17668 0.0129 0.29361 0.10473c0.11693 0.0919 0.14199 0.27562 0.14199 0.27562v3.5246s-0.0084 0.13363-0.13364 0.28397c-0.12528 0.15034-0.26727 0.15869-0.26727 0.15869h-0.9944" stroke-linecap="round" stroke-width=".39688"/>
        <circle cx="6.3075" cy="294.89" r="1.0394" stroke-linecap="round" stroke-linejoin="bevel" stroke-miterlimit="40" stroke-width=".39688"/>
        <g stroke-width=".26458px">
          <path d="m6.8036 294.04 2.3151-4.016"/>
          <path d="m6.8036 295.81 2.3387 3.9688"/>
          <path d="m5.2208 294.86h-4.5593"/>
          <path d="m6.3075 293.09v3.6734"/>
          <path d="m4.7304 295.81 3.4141-1.9711"/>
          <path d="m4.7022 293.94 3.3345 1.9252"/>
        </g>
        <g stroke-width=".39688">
          <path d="m8.6226 290.07 0.70871 0.4016"/>
          <path d="m9.3549 299.33-0.68508 0.4016"/>
          <path d="m0.94494 294.44-0.023624 0.82683"/>
        </g>
      </g>
      <g fill="#cab157" stroke-linecap="round" stroke-linejoin="bevel" stroke-miterlimit="40" stroke-width=".26458">
        <rect x=".92132" y="290.45" width=".94494" height=".89769"/>
        <rect x=".92132" y="298.36" width=".94494" height=".89769"/>
        <rect x="5.835" y="291.64" width=".94494" height=".68508"/>
        <rect x="5.8586" y="297.43" width=".94494" height=".68508"/>
      </g>
    </g>
  </symbol>
</svg>
