<?xml version="1.0" encoding="UTF-8"?>
<svg width="32" height="16" version="1.1" viewBox="0 0 8.4667 4.2333" xmlns="http://www.w3.org/2000/svg">
 <g transform="translate(0 -292.77)">
  <path d="m3.4354 296.9 0.016703-0.63476s-2.3386-0.0334-2.5224-0.16705c-0.18375-0.13363-0.26727-2.94-0.033409-3.0736 0.23386-0.13364 6.5982-0.10023 6.7987 0.0835 0.20045 0.18375 0.050113 2.8564-0.083522 3.0903-0.13363 0.23386-3.3576 0.0835-3.3576 0.0835z" fill="#fff" stroke="#2a2a2a" stroke-miterlimit="1" stroke-width=".26458"/>
  <g fill="none" stroke="#2a2a2a">
   <path d="m1.416 295.34-0.00353-1.5192s0.7851 0.0334 0.7684 0.3842c-0.016704 0.35079-0.71829 0.35079-0.71829 0.35079 0.26472 0.23426 0.75279 0.60548 0.75086 0.78545" stroke-miterlimit="1" stroke-width=".26458"/>
   <g stroke-width=".26458px">
    <path d="m2.5688 294.76h0.60136s-0.016703-0.33409-0.30068-0.35079c-0.28397-0.0167-0.4009 0.7851-0.033409 0.80181 0.3675 0.0167 0.35282-0.19168 0.35282-0.19168"/>
    <path d="m4.2038 294.72s-0.47852-0.0845-0.48443 0.23082c-0.00502 0.26806 0.21614 0.26626 0.21614 0.26626l0.2752-0.0118-0.00692-0.48527s0.019358-0.37363-0.24955-0.37829c-0.24564-4e-3 -0.26591 0.21513-0.26591 0.21513"/>
    <path d="m4.7129 293.65c0.028515 0.43767 0.023625 1.7009 0.023625 1.7009"/>
    <path d="m5.3035 293.66-0.047247 1.6536"/>
    <path d="m5.6815 294.46s-0.023623 0.46889 0.11812 0.64607c0.14174 0.17717 0.46066 0.11812 0.46066 0.11812"/>
    <path d="m6.2484 294.45 0.011811 0.83864s0.07087 0.44884-0.53153 0.44884"/>
    <path d="m6.5555 293.98s-0.011811-0.22442 0.34254-0.22442c0.35435 0 0.38979 0.36616 0.17718 0.59058-0.21261 0.22443-0.2008 0.51972-0.2008 0.51972"/>
   </g>
  </g>
  <circle cx="6.8744" cy="295.25" r=".15355" fill="#414141"/>
 </g>
</svg>
