<?xml version="1.0" encoding="UTF-8"?>
<svg width="32" height="32" version="1.1" viewBox="0 0 8.4667 8.4667" xmlns="http://www.w3.org/2000/svg">
 <g transform="translate(0 -289.59)">
  <g>
   <g stroke-miterlimit="1">
    <path d="m3.1276 291.72s0.026784-0.32457 1.1346-0.32184c1.1079 3e-3 1.1467 0.29813 1.1467 0.29813l-0.23005 1.1987-1.8503 0.0688z" fill="#ceba84" stroke="#2d2511" stroke-width=".21712"/>
    <path d="m5.2796 292.37-2.0227-0.0239v3.7474s0.013542 0.44323 1.0112 0.4282c0.99759-0.0151 1.0115-0.40432 1.0115-0.40432z" fill="#9d2121" stroke="#390d14" stroke-width=".2052"/>
    <path d="m5.409 291.84s-0.057405 0.32083-1.1409 0.31691c-1.0835-4e-3 -1.1404-0.3406-1.1404-0.3406v0.53137s0.06107 0.34694 1.1467 0.34055c1.0857-6e-3 1.1346-0.31685 1.1346-0.31685z" fill="#a08640" stroke="#2d2511" stroke-width=".21712"/>
   </g>
   <path d="m5.2796 293.26c-0.94111 0.6453-2.0227-0.0239-2.0227-0.0239v2.1414s1.0816 0.66917 2.0227 0.0239z" fill="#f2eada" stroke="#221f17" stroke-width=".2052"/>
  </g>
  <g transform="translate(0 -.14967)" stroke="#003" stroke-width=".26458">
   <path d="m4.3283 294.16c-0.33416 0.53784-0.9146 0.82298-0.022009 1.1936 0.73275-0.31899 0.27141-0.6181 0.022009-1.1936z" fill="#9d2121" stroke="#390d14" stroke-width=".23283"/>
  </g>
 </g>
</svg>
