<?xml version="1.0" encoding="UTF-8"?>
<svg width="32" height="32" version="1.1" viewBox="0 0 8.4667 8.4667" xmlns="http://www.w3.org/2000/svg">
 <path d="m8.3027 6.3645-2.86e-5 0.79847-4.0716 1.2597-4.0892-1.281-1.909e-5 -0.77617z" fill="#4d7b51"/>
 <path d="m0.29151 6.3645 3.9396-1.2361 3.9396 1.2361-3.9396 1.2361z" fill="#7cad81" stroke="#4d7b51" stroke-linejoin="round" stroke-width=".26458"/>
 <g transform="translate(0 1.4045)">
  <path d="m1.237 5.1185-7.7e-4 0.95777 0.27991 0.089414-0.054426-0.97967z" fill="#b29147"/>
  <path d="m5.3219 4.2023 0.55803-0.098974 0.42033 0.1328-0.087939 0.25984-0.59285-0.091358z" fill="#b29147"/>
  <path d="m1.4617 5.186 3.954-0.24966 0.30922-0.59532 0.5753-0.10491 1.9172 0.60083 0.067948 0.051483 0.01714 0.077104-0.00583 0.79274-4.0657 1.2599-2.7693-0.86803z" fill="#0065a5"/>
  <path d="m1.237 5.1185s0.39585-0.2529 0.88516-0.34087c0.48931-0.087966 1.248-0.29688 1.4844-0.35186 0.23641-0.054978 0.69273-0.14844 1.1381-0.12095 0.44533 0.027489 0.57728-0.10252 0.57728-0.10252l1.1545 0.36091-2.8919 0.70922-2.1229-0.086424z" fill="#cab179"/>
  <path d="m1.4617 5.186s0.43541-0.36543 1.555-0.34988c1.1196 0.01555 0.76196-0.35766 1.4773-0.34211 0.89714 0.019503 0.88357-0.274 1.2635-0.15745 0.68421 0.20993 1.9943 0.62396 1.9943 0.62396l-3.5221 1.0963z" fill="#008de6"/>
 </g>
 <path d="m2.0218 6.2414 0.10996 0.076718 1.8276 0.61336 1.1546-0.38485-0.0066353-0.09953-3.0921-0.26541z" fill="#482912"/>
 <path d="m2.0151 6.1817 1.9375 0.65026 1.1546-0.38485-1.901-0.65026z" fill="#6b3e1b"/>
 <path d="m3.3405 5.7573v0.14899" fill="none" stroke="#9a5926" stroke-width=".066146"/>
 <circle cx="4.2754" cy="2.7437" r="2.7437" fill="#fff"/>
 <path d="m4.117 6.0154v0.14899" fill="none" stroke="#9a5926" stroke-width=".066146"/>
 <path d="m5.0874 5.0839-0.84938 1.2826-0.84938-1.2826" fill="#fff"/>
 <g fill="none" stroke-width=".066146">
  <path d="m2.3157 6.3553v0.095035" stroke="#482912"/>
  <path d="m3.958 6.8997v0.095035" stroke="#482912"/>
  <g stroke="#9a5926">
   <path d="m3.9576 6.6314v0.14899"/>
   <path d="m3.0943 6.344v0.14899"/>
   <path d="m2.3178 6.086v0.14899"/>
   <path d="m4.9803 6.3027v0.14899"/>
  </g>
  <path d="m3.0954 6.6111v0.095035" stroke="#482912"/>
  <path d="m4.9811 6.5367v0.095035" stroke="#482912"/>
 </g>
 <g transform="matrix(.14497 0 0 .14497 2.078 .37488)" fill="#000" stroke="none">
  <g transform="matrix(2.3086 .34544 -.34544 2.3086 98.623 -665.27)">
   <g transform="matrix(1.1237 0 0 1.1237 -.74673 -36.423)">
    <path d="m4.8443 293.86s-0.20045 0.36749-0.033409 0.56795c0.16704 0.20045 0.31738 0.90203 0.35079 1.0858 0.033409 0.18375 0.31738 0.35079 0.26727 0.45102-0.050113 0.10022-0.13363 0.66817-0.13363 0.66817s-0.083522 0.13364-0.21716-0.30068c-0.13363-0.43431-0.050113-0.63476-0.30068-1.0858-0.25057-0.45102-0.56795-0.86863-0.3842-1.4366"/>
    <path d="m5.2371 293.63s0.056626 0.41475 0.31002 0.47704c0.25339 0.0623 0.7906 0.5379 0.9265 0.66601s0.4636 0.0941 0.48271 0.20454c0.019108 0.11041 0.28878 0.61719 0.28878 0.61719s0.012038 0.15713-0.35319-0.11325c-0.36522-0.27036-0.41689-0.48128-0.88616-0.69573-0.46927-0.21446-0.97251-0.36238-1.1615-0.9286"/>
    <path d="m3.3073 290.62s-1.0394-0.63778-0.94494-0.42516c0.094494 0.21261 0.097241 0.75208 1.0828 1.1363 0 0-0.87019 0.4465-0.6812 0.68274 0.18899 0.23623 1.2785-0.30497 1.2785-0.30497l0.15202-0.20619s0.97908 0.36941 1.1444 0.36941 1.7856-0.03 0.23624-0.42522c-1.5494-0.39521-1.4647-0.16536-0.61421-0.44885 0.85045-0.28348 1.4647-1.4646 1.252-1.4883-0.21261-0.0236-1.4205 0.82362-2.0219 1.5419s-0.88382-0.43167-0.88382-0.43167z"/>
    <path d="m1.9377 292.79s0.20045-0.0501 0.28397 0.0334c0.083522 0.0835 0.3842 0.0167 0.60136-0.0835 0.21716-0.10023 0.3675-0.0334 0.48443-0.50113 0.11693-0.4677 0.7684-0.23385 0.7684-0.23385l0.28397-0.50114s0.70326-0.0167 0.96885 0 0.85192-0.13852 0.93544-0.18862c0.083522-0.0501 0.33409-0.37931 0.43431-0.37931 0.10023 0-0.13111-0.0789-0.13111-0.0789s0.14174-0.24805-0.11812-0.0354c0 0 0.12993-0.37807-0.17718 0.0472-0.19489 0.14764-0.34845 0.24586-0.67327 0.27537-0.32482 0.0295-1.2055 9e-3 -1.3893-0.0412-0.18375-0.0501-0.57147 3e-3 -0.54785-0.19823 0.023623-0.2008 0.23624-0.41341 0.23624-0.41341l-0.17718 0.0472-0.094494-0.36617-0.35435-0.0591-0.17718 0.41341s0.027666 0.42992 0.2796 0.52207l-0.20045 0.17115s-0.17295 0.15377-0.14377 0.53941c0.029187 0.38563 0.05281 0.51556-0.26611 0.72818-0.31892 0.21261-0.28348 0.27167-0.54334 0.11811-0.25986-0.15355-0.37798-0.14174-0.24805-0.0236l-0.29529 0.0827 0.30711 0.0354-0.25986 0.1063z"/>
    <path d="m3.2072 291.77s-0.033409 0.4009 0.10023 0.53454c0.13363 0.13363 0.33409 0.36749 0.33409 0.53453 0 0.16705 0.21716 1.0023 0.21716 1.0023s0.59274 0.2439 0.98556 0.0167 1.019-0.20045 1.019-0.20045-1.4867-1.1025-1.5869-1.8208l-0.066817-0.73499-0.18375-0.0501 0.016704 0.7517-0.61806-0.0334-0.050113-0.65147-0.20045 0.10023z"/>
    <path d="m3.0947 290.53s-0.026292-0.30286 0.20994-0.46822c0.23624-0.16537 0.20766 0.10209 0.20766 0.10209s0.36502-0.27354 0.2469-0.0491c-0.11812 0.22441-0.038485 0.42712-0.038485 0.42712s-0.31892-0.55526-0.62602-0.0119z"/>
   </g>
  </g>
  <path d="m21.018 21.596s0.70078 1.2848 0.1168 1.9856c-0.58398 0.70078-1.1096 3.1535-1.2264 3.796-0.1168 0.6424-1.1096 1.2264-0.93439 1.5768 0.1752 0.35038 0.46718 2.336 0.46718 2.336s0.292 0.46721 0.7592-1.0512c0.46718-1.5184 0.1752-2.2192 1.0512-3.796 0.87601-1.5768 1.9856-3.0368 1.3432-5.0224"/>
  <path d="m19.645 20.792s-0.19797 1.45-1.0838 1.6678c-0.88587 0.2178-2.764 1.8805-3.2391 2.3284-0.47512 0.44788-1.6208 0.32898-1.6876 0.71508-0.0668 0.386-1.0096 2.1577-1.0096 2.1577s-0.04209 0.54934 1.2348-0.39593c1.2768-0.94519 1.4575-1.6826 3.0981-2.4323 1.6406-0.74976 3.4-1.2669 4.0607-3.2464"/>
  <path d="m27.298 10.454s3.9113-1.6965 3.4798-1.007c-0.43162 0.68944-0.70639 2.5554-4.3066 3.4007 0 0 2.7924 1.9734 2.0221 2.6981-0.77031 0.72474-4.2753-1.6842-4.2753-1.6842l-0.4248-0.78844s-3.5705 0.79721-4.1428 0.71592c-0.57222-0.08129-6.1658-0.98184-0.60861-1.588 5.5573-0.60608 5.1511 0.14785 2.3467-1.2516-2.8043-1.3994-4.3496-5.7896-3.6017-5.7671 0.74751 0.02286 4.5118 3.5493 6.2402 6.3312 1.7284 2.7819 3.2714-1.0596 3.2714-1.0596z"/>
  <path d="m30.665 18.627s-0.53548-0.04658-0.91931-0.12201c-0.40515-0.07961-0.90237-0.47421-1.6616-0.82457-0.7592-0.35036-1.6521-0.85116-1.6936-1.752-0.04154-0.90082-2.6864-0.81755-2.6864-0.81755l-0.99278-1.752 0.52574-1.4014s1.9575-1.3906 0.6738 0.71893l0.93113-2.926s0.0036-0.58821 1.1316-0.78603c1.128-0.19782 1.1609 0.97834 1.1609 0.97834s-0.09672 1.503-0.9775 1.8252l0.70078 0.59835s0.60464 0.53759 0.50263 1.8858c-0.10204 1.3482-0.18463 1.8024 0.93034 2.5458 1.115 0.7433 0.9727 0.98649 1.8444 1.0741 0.87175 0.08765 1.0459-0.18329 0.59169 0.22974l0.88541 0.19729-0.65123 0.01356 0.44931 0.37163z"/>
  <path d="m24.743 11.93s-2.6225 1.4995-3.508 1.8115c-0.88549 0.31193-1.8403 1.5538-2.0425 1.8316-0.20218 0.27782-0.56198 1.6924-0.88744 1.8305-0.32549 0.13818 0.53454 0.07546 0.53454 0.07546s-0.1183 1.0009 0.43238-0.04789c0 0 0.09929 1.4069 0.5103-0.39754 0.42934-0.74813 1.0913-1.8083 2.1054-2.352 1.0141-0.54361 3.8962-1.6573 3.8962-1.6573z"/>
  <path d="m26.741 14.29s0.1168 1.4016-0.35041 1.8688c-0.46718 0.46718-0.91898 1.4731-1.3275 2.4932-0.37803 0.94386-0.74247 1.6939-1.2301 3.4386-0.40352 1.4439-0.40861 2.7139-0.40861 2.7139s-1.8658 0.83449-4.017-0.72087c-2.6025-1.8816-5.3288-1.6878-5.3288-1.6878s8.5743-5.361 8.9247-7.8722l0.27033-1.9083 0.60566-0.10168-0.05841 1.8933 2.1608-0.11677 0.1752-2.2776 0.51711 0.93816z"/>
 </g>
</svg>
