<?xml version="1.0" encoding="UTF-8"?>
<svg width="320" height="320" version="1.1" viewBox="0 0 84.667 84.667" xmlns="http://www.w3.org/2000/svg">
 <g transform="translate(0 -288.53)">
  <g>
   <rect x="-4.1427" y="286.53" width="92.876" height="49.846" fill="#495435" style="paint-order:markers fill stroke"/>
   <path d="m92.208 296.04s-7.3079-2.2504-13.54 1.4787c-5.4181 3.2422-12.223-0.52589-15.676-2.889-7.0288-4.81-13.304-1.2043-13.304-1.2043s3.0571 9.656-5.8629 7.8888-13.034 1.7794-20.736 5e-3c-7.7022-1.7742-10.607-3.0042-6.3533 2.8122 4.2536 5.8164-21.295 3.1442-21.295 3.1442l-2.9243 43.733 96.939 2.2453z" fill="#939e82" opacity=".23659"/>
   <path d="m75.784 288.34s0.75595 3.3073 2.2679 4.3467c1.5119 1.0394 3.3073 1.0394 3.8743 2.2679 0.56696 1.2284 4.0996 5.4063 4.0996 5.4063l0.15263-1.4376-0.75595-1.7954s-1.5119-1.5119-2.2679-2.8348c-0.75595-1.3229 0.18899-6.3311 0.18899-6.3311h-1.7009s0.28348 4.4412-0.18899 4.4412c-0.47247 0-1.5119 0.0945-1.5119 0.0945s-0.04725-0.89769-0.66146-1.4174c-0.61421-0.51972-1.6536-0.66146-1.6536-0.66146l-0.75595-2.3624z" fill="#1d2216"/>
   <path d="m-9.3315 308.01s32.255 0.83423 20.981 6.0136c-5.3113 2.4399 19.621 5.1145 19.621 5.1145s11.893 9.7553 16.571 6.4145 5.2052-0.57003 11.86 0.2879c6.2283 0.80295 3.7754-2.4261 6.7153-3.2279 2.94-0.8018 10.424 1.8709 14.566 2.0045 4.1427 0.13364 12.428-1.0691 12.428-1.0691l2.0283 18.849-107.16-5.2917z" fill="#939e82"/>
   <path d="m-4.1427 331.16s9.889 0.13363 11.626 0.53454c1.7373 0.4009 2.2718-0.40091 4.1427 0 1.8709 0.4009 4.1427-0.53454 5.6127-0.13364 1.47 0.40091 3.7418-0.66817 5.2118 0 1.47 0.66818 6.5481-0.13363 8.2854 0.53454 1.7373 0.66818 5.3454-0.4009 6.6817 0 1.3363 0.40091 4.2763-1.7372 7.2163-0.66817 2.94 1.0691 6.8154-0.66818 9.7553 0.80181 2.94 1.47 3.6081-2.2718 6.2808-0.26727 2.6727 2.0045 6.2808-1.2027 8.419-0.66818s9.3544 1.2027 9.6217 0.53454c0.26727-0.66817 6.0136-0.8018 6.6817 0 0.66817 0.80181 0.66817 42.629 0.66817 42.629l-88.065-0.53454z" fill="#2d3421"/>
  </g>
  <g transform="rotate(6.4289 66.886 342.09)">
   <path d="m63.656 304.74c-0.14978 5.3e-4 -0.32107 0.0186-0.516 0.058-1.5594 0.31581-1.9537 2.4672-1.4997 3.237 0.454 0.76982 1.4014 1.5199 1.4014 1.5199s-0.57236 0.19724-1.283 0.92758c-0.7106 0.73034-1.0662 1.4014-1.0662 1.4014s-1.8553-0.39475-4.0858 1.6384c-2.2305 2.0331-2.7045 3.6126-2.7045 3.6126s0.39472 0.23693 0.55263 0.29616c0.15791 0.0592 0.29616 0.0983 0.29616 0.0983s-0.11832 0.49382-0.3157 1.3031c-0.19739 0.80931-0.23693 1.1053-0.23693 1.1053s-0.33575-0.02-0.71079-0.0397c-0.37504-0.0197-0.71018 0.0592-0.71018 0.0592s0.23695 2.3096 1.0857 3.5729c0.84878 1.2633 2.1318 3.4544 2.1318 3.4544l-2.7045 0.73034s-0.20614 0.1782-0.06656 0.75047c0.13958 0.57226 0.33524 0.80972 0.33524 0.80972l3.4611-1.0607s0.06979 0.61378 0.48852 0.53004c0.41872-0.0838 0.44699-0.27907 0.44699-0.27907s0.55822 0.32076 0.76758-0.13983c0.17225-0.37895 0.07446-0.60624 0.03297-0.67842l0.3157 0.0648 0.43295-0.68391 1.0265-0.28823c-0.39181 0.36336-0.91088 0.93604-1.1944 1.893-0.44664 1.5074-0.1954 2.82-0.1954 2.82s-0.50195 0.1674-0.50195 0.66988c0 0.50247 0.25097 1.9541 0.25097 1.9541l0.05557 3.4056 0.25159 0.69798s-0.92129 0.33498-1.4796 1.5632c-0.5583 1.2283-0.78145 2.596-0.16732 2.2331 0.61413-0.36289 1.8982-1.2004 3.3219-1.7586 1.4237-0.55831 1.9815-1.424 1.9815-1.424s-0.5857-0.83711-0.69736-1.3117c-0.11166-0.47456-0.2514-1.4236-0.02809-2.2331 0.22332-0.80954-0.13984-1.4515-0.13984-1.4515s0.27932-0.25142 0.4189-0.41891c0.13958-0.16749 0.02809-0.58622 0.02809-0.58622s0.58596-0.22314 1.228-0.75353c0.64205-0.53038 1.1724-1.145 1.1724-1.145s0.12544 0.65618 0.16732 1.1028c0.04188 0.44664 0.07023 1.3257 0.07023 1.3257s0.16014-1.1154 0.22993-1.5062c0.06979-0.39079 0.33524-0.83719 0.33524-0.83719s0.14792 0.65985 0.10605 1.2461c-0.04188 0.58622-0.085 1.209-0.085 1.209s0.27566-0.48199 0.35941-0.92864c0.08374-0.44664 0.15038-0.73318 0.15038-0.73318s0.20919 0.83727 0.26502 2.0237 0.06239 2.0111 0.06239 2.0111 0.27013-0.811 0.45158-1.5787c0.18145-0.76766 0.59753-1.1426 0.59753-1.1426s0.19549 0.74026 0.40486 1.3544 0.33524 0.69736 0.33524 0.69736l-0.01404-0.68392s0.18101 0.44708 0.51599 0.94955c0.33498 0.50248 0.47508 0.54409 0.47508 0.54409s-0.2378-0.78145-0.27968-1.242c-0.04188-0.46059 0.08375-0.48843 0.39081 0.30715 0.30707 0.79558 0.61809 0.96864 0.61809 0.96864s-0.31628-0.84725-0.45017-2.4623c-0.14062-1.6962 0.09524-3.2386 0.09524-3.2386s0.72562 0.66953 1.926 1.0045c1.2004 0.33498 2.4285 0.1258 2.4285 0.1258s-0.52858 0.50875-0.37066 2.384c0.15791 1.8752 0.39448 3.336 0.39448 3.336l0.1777 1.2634s1.125 0.0985 2.8029 0.138c1.6778 0.0395 3.2572 0 3.2572 0s0.11829-0.11819-1.3227-0.6314c-1.4409-0.51321-2.161-1.1253-2.3485-1.1944-0.18752-0.0691-0.39509-0.0495-0.39509-0.0495s-0.05943-0.97539 0.0104-1.8826c0.06979-0.90725 0.19541-1.228 0.19541-1.228s0.19523-0.0701 0.26502-0.23754c0.06979-0.16749 0.01405-0.41829 0.01405-0.41829s0.36272-0.58657 0.36272-1.8148c0-1.2283-0.75354-2.0658-0.75354-2.0658l-0.65583 0.5166s-0.69806-1.3678-2.0799-2.5403c-1.3818-1.1724-2.5403-1.3678-2.5403-1.3678l0.14839-1.2586s0.29613-0.2959 0.1777-0.86834c-0.11844-0.57243-0.41463-0.77002-0.41463-0.77002l0.27662-0.25647-0.47386-0.33586 0.09893-0.63141s0.17754-0.21705 0.37494-0.43417c0.19739-0.21713 0.27601-0.45432 0.27601-0.45432s0.29642 0.49368 0.51355 0.77003c0.21713 0.27634 0.45371 0.3554 0.45371 0.3554l-0.27601 0.9868s0.72997 0.25656 1.6774 0.61187c0.94747 0.35529 1.9547 0.61187 1.9547 0.61187s0.13799 0.29586 0.07877 0.69063c-0.05921 0.39479 0.25647 0.53309 0.25647 0.53309s0.19754 0.27642 0.59232 0.29616c0.39478 0.0197 0.71079-0.3157 0.71079-0.3157s0.03917 0.17748 0.39448 0.138c0.3553-0.0395 0.65156-0.39447 0.65156-0.39447s5.4876 2.5458 6.6719 3.5723c1.1843 1.0264-0.11846-1.2237-0.11846-1.2237s-2.4086-1.6578-4.1457-2.6447c-1.737-0.98695-2.1318-1.145-2.1318-1.145s0.05962-0.31579-0.03908-0.67109c-0.09869-0.3553-0.41463-0.37495-0.41463-0.37495s0.11857-1.5794-0.25647-1.678c-0.37504-0.0987-0.53309 0.47386-0.53309 0.47386l-0.29616 1.3226s-1.2039-0.96743-1.6579-1.6188c-0.45399-0.65139-0.67144-1.1252-1.1847-0.8488-0.51321 0.27635-0.57218 0.25647-0.57218 0.25647l-0.21739-1.184s0.47376-4.4e-4 0.8488-0.13861c0.37504-0.13818 0.55263-0.41402 0.55263-0.41402s-0.71069-0.65187-1.0857-1.8954c-0.37504-1.2436-2.1711-3.099-3.2963-3.8886-1.1251-0.78957-1.2237-0.82865-1.2237-0.82865s0.08372-0.46162-0.10451-0.87514c-0.13974-0.30699-0.3889-0.58552-0.3889-0.58552s1.1446-0.63179 1.421-1.3226c0.27635-0.69087 0.39464-1.915-0.53309-2.6453-0.92773-0.73034-1.6774 0.0794-1.6774 0.0794s0.75018-0.31593 1.145 0.37494c0.39478 0.69086 0.13788 2.033-0.33586 2.5659-0.47374 0.53296-0.74987 0.63202-0.74987 0.63202s-0.09852-0.41476-1.6579-0.94771c-1.5594-0.53295-2.7241 0.0592-2.7241 0.0592l-0.47386-0.6711s0.15789-0.53337-0.05924-0.80971c-0.21713-0.27635-0.92761-1.2233-0.3157-1.9932s1.7959-0.25708 1.7959-0.25708-0.01469-0.8312-1.0631-0.82742zm-4.6537 15.602s0.27907 0.67031 0.66988 1.2286c0.39081 0.5583 1.0888 1.1163 1.0888 1.1163l-0.30716 0.13984s0.3629 0.36289 0.19541 0.58621c-0.16749 0.22332-0.27906 0.39081-0.27906 0.39081s-0.13992 0.94904-0.05618 1.0607c0.08375 0.11167 0.30716 0.19542 0.30716 0.19542s0.10381 0.17057 0.20945 0.38592l-2.7033 0.8836-0.31143-0.65522s0.02775-0.43321-0.12579-1.159c-0.15354-0.72579-0.15327-1.8142-0.15327-1.8142l-0.25891-1.3416s0.41218-0.0962 0.9984-0.43112c0.58622-0.33498 0.72606-0.58621 0.72606-0.58621z" fill="#13160e"/>
   <ellipse transform="matrix(1 0 .070424 .99752 0 0)" cx="42.79" cy="312.06" rx=".7954" ry=".86053" fill="#d22525" style="paint-order:markers fill stroke"/>
   <ellipse transform="matrix(1 0 .07062 .9975 0 0)" cx="46.469" cy="312.27" rx=".62809" ry=".79058" fill="#d22525" style="paint-order:markers fill stroke"/>
  </g>
  <path d="m9.889 285.59s-1.0691 4.4099-0.4009 4.4099c0.66817 0 3.3409-2.8063 3.3409-2.8063l0.93544 0.80181s-1.6036 2.8063-3.2072 3.8754-2.5391 6.8154-2.5391 6.8154 0.48638 0.61608 0.25014 1.7973c-0.23624 1.1812-0.66146 1.3702-0.66146 1.3702l-0.14174 1.0394s1.0394 0 1.4647-1.1339c0.42522-1.1339 1.1339-2.4096 1.1339-2.4096l0.42522 0.37797s-0.56696 2.5041-1.2284 3.638c-0.66146 1.1339-1.5119 1.9371-1.8426 2.9293-0.33073 0.99219-0.66146 1.8899-0.66146 1.8899s-0.14174 2.8821-0.89769 5.5752-0.56696 4.205-1.0394 5.1499c-0.47247 0.94494-0.99219 3.5435-1.6536 6.2838-0.66146 2.7403-0.8032 10.111 0.61421 12.804 1.4174 2.6931 2.1261 3.0238 2.1261 3.0238l-0.89769 0.14174s-1.9371-3.3073-2.5041-1.2757c-0.56696 2.0316-3.26 1.4647-3.26 1.4647l0.094494-0.75595s0.8032 0 1.4174-0.0472c0.61421-0.0472 0.89769-0.8032 0.89769-0.8032l-2.3624 0.47247 0.14174-28.537s1.0394-2.2679 1.3229-4.4885c0.28348-2.2206 1.4174-4.6302 1.3702-6.5201-0.047247-1.8899-0.094494-3.7325-0.094494-3.7325s0.66146-0.0472 0.94494-1.5592c0.28348-1.5119 0-2.9293 0-2.9293s-1.2284-1.9371-0.99219-4.2522 0.18899 1.8899 0.89769 1.8899c0.70871 0 0.8032-2.5041 0.8032-2.5041z" fill="#1d2216"/>
  <path d="m32.446 301.43c-3.9478 0-5.6057 2.7638-5.6057 2.7638s-0.58238 0.21627-1.3361 0.91414c-0.75371 0.69789-0.97703 1.4515-0.97703 1.4515s-1.1728-1.0605-1.8148-1.228-1.1724 1.1169-1.1724 1.1169-3.0986 1.3673-5.276 4.6055c-2.1774 3.2382-2.4285 5.9184-2.4285 5.9184l-0.66988 0.89338s0.55839 0.22297 1.0888 0.33464c0.53039 0.11166 1.1163 0.1954 1.1163 0.1954s-0.27898 1.0611-0.36272 2.0102c-0.08374 0.94912-0.05557 1.4796-0.05557 1.4796s-1.9543-0.36334-2.0939-0.36334c-0.13957 0 0.36272 2.5684 0.36272 2.5684s0.11184 0.69815 0.2235 2.0939c0.11167 1.3958 0.44699 5.4714 0.44699 5.4714s-0.22341 0.19514-0.30716 0.83718c-0.08375 0.64204 0.36272 0.75354 0.36272 0.75354l-0.36272 1.2005s-0.3629-0.13984-0.97703-0.33525c-0.61413-0.1954-0.58622 0.36334-0.58622 0.36334l0.75354 2.1214s-0.72606 0.78171-2.0939 1.675c-1.3678 0.89329-7.9556 5.8345-11.585 8.8214-3.629 2.9869-4.048 4.0193-4.048 4.0193s1.5079-0.39046 2.5128-0.92085c1.0049-0.53038 5.9734-3.6847 8.2345-5.3596 2.2611-1.6749 8.6541-5.3322 8.6541-5.3322l0.80972 1.0332s0.44638-0.0559 0.64179-0.69797c0.19541-0.64205-0.11175-1.7867-0.11175-1.7867s0.3629 0.0278 0.78162 0.16731c0.41873 0.13958 1.1725 0.3355 1.2842-0.30655 0.11166-0.64211 0.64179-0.58621 0.64179-0.58621l-0.6137 2.4004s-0.27959 0.0558-0.55874 0c-0.27915-0.0559-0.11114 0.39082-0.11114 0.39082s-0.44673 0.33471-0.89338 1.4234c-0.44664 1.0887-0.64205 2.373-0.97703 3.8526-0.33498 1.4795 0.13923 3.4057 0.13923 5.4714 0 2.0657-1.0607 2.7357-1.0607 2.7357s-0.47464 0.86518-0.11175 1.1443c0.3629 0.27915 0.02809 0.80989-0.55813 1.424-0.58622 0.61413-2.0096 2.4841-2.205 3.6565-0.19541 1.1724-0.50256 1.7586-0.50256 1.7586s0.97712-0.44629 2.652-1.1162c1.6749-0.66997 2.4285-0.39099 4.0754-1.2005 1.647-0.80955 3.3775-1.2561 3.3775-1.2561l0.05618-1.0051s0.50256-0.55795 0.89337-1.1162c0.39081-0.55831 0.25088-0.61414-0.44699-0.39082-0.69788 0.22333-0.53004-1.9822-0.53004-1.9822s0.80954-0.78145 1.5633-3.88c0.75371-3.0986 0-5.1367 0-5.1367l0.19541-0.69797s1.4793-0.47431 2.903-1.6188c1.4237-1.1445 2.205-2.9311 2.205-2.9311s0.2515 0.41846 0.72606 1.0326c0.47456 0.61412 0.80972 0.8378 0.80972 0.8378s-0.02809 1.3674-0.2235 3.9356c-0.19541 2.5682-1.2005 5.974-1.2005 5.974s0.69771-1.0046 1.1443-2.2887c0.44664-1.2841 0.89337-3.5173 0.89337-3.5173s0.08383 0.94912 0.30716 1.7587c0.22332 0.80953 0.53065 3.2657 0.53065 3.2657s-0.13949-2.3724-0.08366-4.4382c0.05582-2.0657-0.02809-3.8245-0.02809-3.8245s0.33516 2.9866 0.80972 5.4152c0.47456 2.4286 1.5907 3.8807 1.5907 3.8807s-0.44621-1.2563-0.8091-2.8474c-0.36289-1.5912-0.25159-3.0984-0.25159-3.0984s0.50273 2.3164 1.3123 4.4101c0.80954 2.0936 1.5633 2.7357 1.5633 2.7357s-0.02809-1.535 0.16732-3.0703c0.19541-1.5353 0.86528-3.6846 0.86528-3.6846s0.02799 0.50223-0.08366 1.8142c-0.11166 1.312-0.72606 2.903-0.72606 2.903s1.0331-0.89312 1.8985-2.903c0.86537-2.0099 0.81216-3.2755 0.81216-3.2755l0.19724 1.8558s0.07898-1.8162 0.11846-2.961c0.03948-1.1449 0.51294-2.6447 0.51294-2.6447s0.11853 1.5395 0.3554 4.2635c0.23687 2.724 1.0662 5.0134 1.0662 5.0134s-0.55306-3.1973-0.63202-5.4476c-0.07896-2.2502 0-4.1457 0-4.1457s0.31626 0.51355 1.6585 1.3031c1.3422 0.78955 3.5924 1.5791 3.5924 1.5791s-0.67101 0.71028-1.1053 3.3158c-0.43426 2.6056 0.51294 3.8294 0.51294 3.8294l-0.07877 1.54s-0.27647 0.19748-0.47386 0.3554c-0.19739 0.1579-0.15816 0.74987-0.15816 0.74987s-0.43405-0.31604-0.74987-0.0397c-0.31582 0.27636 1.0662 1.0265 1.0662 1.0265l-0.23693 1.0662s2.9604 1.0261 6.7898 1.0656c3.8294 0.0395 6.4747-0.0788 6.4747-0.0788v-0.39448s-1.8951-0.59239-3.869-1.6188c-1.9739-1.0264-3.2175-2.1617-3.2175-2.1617s0.10852-0.0688 0.2467-0.39448c0.13818-0.32569-0.66118-0.36525-0.85857-1.5101-0.19739-1.1449 0.47365-3.3953 1.2237-6.1193 0.75008-2.724-1.0265-4.0266-1.0265-4.0266l-0.71018 0.11847s-0.23693-1.0266-1.0265-3.0795c-0.78956-2.0528-1.046-2.4475-1.046-2.4475l2.191 0.73033s-0.35556 0.39459-0.21739 0.80911c0.13817 0.41454 0.4934 0.49401 0.4934 0.49401s0.09905 0.23659 0.57278 0.51294c0.47374 0.27634 0.69064 0.25647 0.69064 0.25647s0.19716 0.13804 0.69064 0.25647c0.49348 0.11844 0.86895-0.51294 0.86895-0.51294s0.33532-8e-5 0.63141-0.29616c0.29608-0.29609 0.15816-0.59233 0.15816-0.59233s0.49348-0.15788 1.5791 0.11847c1.0856 0.27634 2.8224 0.90803 2.8224 0.90803s-0.49331 0.84868-0.13801 1.2237c0.35531 0.37504 1.8808-0.72239 1.8808-0.72239s0.67015 0.3349 5.3041 1.0607c4.6339 0.7258 12.416 3.2541 12.416 3.2541s-1.7375-1.5789-4.0272-2.4475c-2.2897-0.86852-11.962-3.5698-11.962-3.5698s-0.55839-0.55838-0.89337-0.69796c-0.33498-0.13958-0.53056-0.7257-0.80972-1.2561-0.27915-0.53042-0.27915-0.25169-0.58622 0.0274-0.30707 0.27915-0.4189 0.97703-0.4189 0.97703s-1.2001-0.2788-2.205-0.53004c-1.0049-0.25125-2.4285-0.69796-2.4285-0.69796s0.05557-1.0048 0.05557-1.3398-0.35234-0.82803-0.35234-0.82803 0.47344-0.43419 0.45371-0.55263c-0.01973-0.11843-0.71079-1.2042-0.71079-1.2042s-0.78905-3.2768-1.1443-6.0008c-0.3553-2.724-0.61902-3.9206-0.78651-4.2556-0.16749-0.33498-1.6469 1.2561-1.6469 1.2561s-0.16758-0.53004-0.50256-1.8979c-0.33498-1.3678-0.75354-1.9822-0.75354-1.9822s0.30698-0.0835 1.8423-1.3398c1.5353-1.2562 0.27906-1.3124-0.11175-1.424-0.39081-0.11167-1.5076-3.2379-3.35-5.1361-1.8424-1.8982-5.4714-2.8474-5.4714-2.8474s-0.05566-0.61423-0.94894-0.89338c-0.89328-0.27915-1.3776 0.32121-1.3776 0.32121s-2.053-4.0272-6.0008-4.0272zm9.7312 19.206s0.49383 0.84897 1.3623 1.5004c0.86851 0.65138 1.7959 0.80972 1.7959 0.80972s-0.15773 0.13768-0.13801 0.47324c0.01973 0.33557 0.47386 1.5004 0.47386 1.5004l-0.4934 0.25647 0.4934 0.59232s-0.21701 0.15781-0.3157 0.43417c-0.09869 0.27635 0.82876 1.0662 2.0328 2.5861 1.2041 1.5199 1.5987 2.5067 1.5987 2.5067s-2.1e-5 0.0786-0.05924 0.276c-0.05923 0.19738 0.09893 0.55324 0.09893 0.55324s0.29616 0.25652 0.29616 0.37495c0 0.11844-0.27662 0.31569-0.27662 0.31569l-4.8357-1.7373s-0.21709-0.29563-0.61187-0.59172c-0.39478-0.29608-0.86895-0.73033-0.86895-0.73033s0.11873-2e-5 0.33586-0.11846c0.21713-0.11843 0.0984-0.37551-0.33586-1.0466-0.43426-0.67112-0.71018-1.2628-0.71018-1.2628l0.71018-0.0201s-1.0066-2.0525-1.2237-2.5855c-0.21713-0.53293 0.13862-1.0265 0.13862-1.0265l-0.98741-0.53309v-0.33524s0.25702 0.0195 0.80971-0.7108c0.55269-0.73034 0.71018-1.4808 0.71018-1.4808zm-20.055 0.3163s0.29612 0.82909 0.90803 1.6976c0.61191 0.86853 1.3422 1.3813 1.3422 1.3813s-0.39494 4.5e-4 -0.59233 0.0794c-0.19739 0.0789 0.23693 0.88787 0.23693 0.88787s-0.21686 0.45411-0.51294 1.145-0.63141 1.3031-0.63141 1.3031 0.31578-0.02 0.61187 0.0195c0.29608 0.0395 0.23644 0.11842-0.07938 0.73033-0.31582 0.61191-0.80927 0.80936-0.6711 1.0265s0.61187 0.51294 0.61187 0.51294-1.3024 0.78964-2.3485 1.8753c-1.0462 1.0856-1.5791 2.2899-1.5791 2.2899s-0.19752-0.25692-0.47386-0.33585c-0.27635-0.0789-0.51355-0.11847-0.51355-0.11847s0.29618-0.21708 0.3554-0.55263c0.05921-0.33556-0.33524-0.80911-0.33524-0.80911s0.03918-1.0858 0.45371-2.3492c0.41452-1.2633 1.007-2.5659 1.007-2.5659l0.03908-0.51295s0.3953-0.71108 0.43478-1.0466c0.03948-0.33557-0.31631-0.73033-0.31631-0.73033s0.33564-0.31575 0.29616-0.4934c-0.03948-0.17766-0.3554-1.184-0.3554-1.184s0.45448-0.0594 1.0466-0.7108c0.59217-0.65138 1.0656-1.5394 1.0656-1.5394z"/>
  <path d="m29.161 299.91s0.44664 0.22332 0.80954 0.94911c0.3629 0.7258 0.33498 1.2004 0.33498 1.2004" fill="none" stroke="#000" stroke-width=".26458px"/>
  <path d="m35.386 302.56s0.05583-0.64205 0.27915-1.4237c0.22332-0.78163 0.69788-1.3678 0.69788-1.3678" fill="none" stroke="#000" stroke-width=".26458px"/>
  <g>
   <ellipse transform="rotate(26.444)" cx="166.06" cy="251.76" rx=".57226" ry=".87933" style="paint-order:markers fill stroke"/>
   <ellipse transform="matrix(.94682 -.32177 .36476 .9311 0 0)" cx="-82.202" cy="293.05" rx=".67635" ry=".78737" style="paint-order:markers fill stroke"/>
   <path d="m25.932 295.94c-1.3817 2.2503 0.15791 4.7769 0.15791 4.7769l0.43426 0.82904s0.19739-0.35531 0.27634-0.11844c0.07896 0.23686 0.07896 0.78956 0.07896 0.78956l0.86852 1.1844-0.78956 0.86851-0.55269-0.67113s-0.67112 0-0.86852-0.25661c-0.19739-0.2566-0.09869-0.43425-0.09869-0.43425s-2.3489-0.84878-2.4279-3.0596c-0.07896-2.2108 1.0659-4.7768 3.4741-5.6454 2.4082-0.86851 3.2767 0.94748 3.2767 0.94748s-2.4476-1.4607-3.8294 0.78955z"/>
   <path d="m35.26 295.39s1.5281-1.9392 3.7389-0.87331c2.2108 1.0659 3.553 3.3556 3.1188 5.7638-0.43426 2.4082-2.6845 2.724-2.6845 2.724s0.13817 0.61191-0.03948 0.63165c-0.17765 0.0197-0.41452-0.0395-0.41452-0.0395l-1.5594 1.0067-0.49348-0.96721 1.3028-1.3225s0.01972-0.63165 0.11843-0.69086c0.09869-0.0592 0.13818 0.0789 0.13818 0.0789s0.83583-0.25537 1.1708-2.3211c0.33498-2.0657-0.39081-4.0756-1.982-4.4106-1.5912-0.33498-2.4145 0.42001-2.4145 0.42001z"/>
  </g>
  <ellipse cx="30.176" cy="305.38" rx="1.1646" ry="1.4607" fill="#d22525" style="paint-order:markers fill stroke"/>
  <ellipse transform="matrix(1 0 .082477 .99659 0 0)" cx="9.975" cy="306.44" rx="1.0462" ry="1.436" fill="#d22525" style="paint-order:markers fill stroke"/>
  <g fill="#3e482e">
   <path d="m75.903 366.4-0.73902-2.3151 1.3058 0.75595 0.08566-2.2206 0.75623 2.5986 1.267-0.66146-1.2969 1.9844"/>
   <path d="m6.2209 356.47 1.1635-1.9659-1.2838 0.64191 0.44132-1.8856-1.2437 2.2066-0.92276-0.56168 0.64192 1.685"/>
   <path d="m5.0451 374.25 1.3314-5.9821-3.1853 1.9533-0.77592-5.7379-1.3051 6.7146-3.439-1.7092 3.8468 5.1275"/>
   <path d="m61.674 349.21-0.90512-1.5293 0.99875 0.49937-0.34332-1.4669 0.96754 1.7166 0.71785-0.43695-0.49938 1.3108"/>
   <path d="m81.375 353.57 0.40305-1.4783-0.83481 0.39364-0.13826-1.4844-0.40398 1.6654-0.8613-0.54603 0.92972 1.4286"/>
   <path d="m33.98 363.97 0.54742-2.0078-1.1338 0.53465-0.18778-2.0162-0.5487 2.262-1.1698-0.74162 1.2628 1.9403"/>
  </g>
  <path d="m-8.8333 330.25s1.076-4.6464 14.368-8.1095c13.292-3.4631 14.615-6.9414 18.603 1.4588 3.9877 8.4002 11.166 4.9855 11.166 4.9855s-2.9243 8.828 3.1902 9.1228c6.1145 0.2948 3.1902-14.561 8.773-9.322 5.5828 5.2387 3.1902 13.928 11.963 13.874 8.773-0.0546 15.685-1.1689 11.431 3.7149-4.2536 4.8838 16.217 8.3033 16.217 8.3033l2.9243 44.374-96.939-19.009z" fill="#939e82" opacity=".23659"/>
  <path d="m96.484 358.07s-3.7219 14.003-17.014 7.6259c-13.292-6.3775-13.292-14.958-17.28-7.4326-3.9877 7.5259-11.166 2.5374-11.166 2.5374s2.9243 9.4692-3.1902 8.4234c-6.1145-1.0458-4.7938-7.7766-10.377-3.762-5.5828 4.0146-1.5866 5.7452-10.36 3.7671-8.773-1.9781-15.685-4.6078-11.431 1.2086 4.2536 5.8164-16.217 4.7478-16.217 4.7478l-2.9243 43.733 96.939 2.2453z" fill="#939e82" opacity=".23659"/>
 </g>
</svg>
