<?xml version="1.0" encoding="UTF-8"?>
<svg width="320" height="320" version="1.1" viewBox="0 0 84.667 84.667" xmlns="http://www.w3.org/2000/svg">
 <g transform="translate(0 -288.53)">
  <path d="m-7.276 377.26 98.561 0.36314 0.75838-89.497-92.806-0.3592z" fill="#0a1c2a"/>
  <path d="m21.545 287.59-11.528 13.985 9.4494 18.143 21.545 10.772 24.757-9.6384 9.6384-15.875-10.583-17.765z" fill="#222"/>
  <rect x="-9.3544" y="356.69" width="105.97" height="24.856" fill="#112b44" style="paint-order:markers fill stroke"/>
  <path d="m64.445 314.28-0.23624-2.7403 0.85045 0.0473-0.33073-4.2995 0.48534-1.0505 3.5714 5.1791z" fill="#feeec0"/>
  <path d="m18.852 306.58 0.39184 1.2619-0.26727 3.9422 0.93544-0.33409-0.13364 3.0736-3.7418-3.1404z" fill="#feeec0"/>
  <path transform="matrix(.26458 0 0 .20529 8.419 295.81)" d="m196.98 69.195-58.878-33.488 45.209 50.44-48.204-47.586 30.614 60.422-34.246-58.44 13.932 66.287-17.953-65.312-3.6989 67.634-0.43736-67.734-21.078 64.372 17.108-65.539-37.02 56.723 33.488-58.878-50.44 45.209 47.586-48.204-60.422 30.614 58.44-34.246-66.287 13.932 65.312-17.953-67.634-3.6989 67.734-0.43736-64.372-21.078 65.539 17.108-56.723-37.02 58.878 33.488-45.209-50.44 48.204 47.586-30.614-60.422 34.246 58.44-13.932-66.287 17.953 65.312 3.6989-67.634 0.43735 67.734 21.078-64.372-17.108 65.539 37.02-56.723-33.488 58.878 50.44-45.209-47.586 48.204 60.422-30.614-58.44 34.246 66.287-13.932-65.312 17.953 67.634 3.6989-67.734 0.43735 64.372 21.078-65.539-17.108z" fill="#d0a295" style="paint-order:markers fill stroke"/>
  <path d="m13.749 300.01s-0.61421 3.9688 2.5513 9.1659 8.9769 13.513 18.474 15.639c9.4967 2.1261 21.261-1.3229 25.372-5.8586 4.1105-4.5357 7.654-10.205 8.9297-14.363s0.99219-5.0554 0.99219-5.0554l2.4295 5.5622-8.2043 15.614-11.234 5.9579-11.766 1.413-17.622-5.0781-13.315-14.833z" fill="#feeec0"/>
  <path d="m39.876 327.94 1.4907-26.834s0.0705-0.0866 0.26389-0.0934c0.19339-7e-3 0.24985 0.081 0.24985 0.081l2.7203 27.697z" fill="#feeec0"/>
  <path d="m13.107 304.42s0.21691 1.7885 0.68938 2.9224 0.94494 1.7009 0.94494 1.7009l0.28348-0.94494s0.63783 0.23623 1.6064-0.30711 2.2206-1.2048 2.2206-1.2048l-1.0631 4.2286 1.9135 2.9529-1.6064 0.96856s8.1737 12.544 23.907 12.213c15.733-0.33073 24.71-10.914 24.71-10.914l1.1576 4.772s-1.1576-0.4016-1.819 0.87407c-0.66146 1.2757-0.63784 2.197-0.63784 2.197l0.61421 0.16537s-0.07061 0.31633-0.25436 0.55019-0.35914 0.3842-0.35914 0.3842l9.6141 36.036h-5.2917l-6.8036-35.813-0.65924 0.15269s-0.06681-1.9043-1.7038-0.90204c-1.637 1.0023-1.1359 1.9711-1.1359 1.9711l-0.20045 0.3675-0.30068 1.47 3.4745 30.769-4.3431 0.13363-2.4054-30.201-0.33409-0.46771s0.03341-1.6871-1.3865-1.0357c-1.4199 0.65146-1.6704 3.7084-1.6704 3.7084l-2.2384 1.353-1.186-3.4244-7.6172 2.3386-5.9467-2.2718-1.2695 4.4099-2.1382-0.66817 0.33409-3.0068-0.46772-0.26727s-0.10023-1.7038-1.3363-2.1382c-1.2361-0.43431-1.5034 0.43432-1.5034 0.43432s0.23386 0.3842 0.08352 0.68488c-0.15034 0.30067-0.46772 0.26726-0.46772 0.26726l-1.1583 24.576-0.33073 4.4885-5.2917-0.33073 3.5908-29.199s-0.30711-0.13584-0.23624-0.32482c0.07087-0.18899 0.28348-0.36617 0.28348-0.36617s0.13588-2.887-1.2005-3.4048c-1.3363-0.51784-1.9711-0.0334-1.9711-0.0334l-0.23386 0.28397s0.16704 0.40091 0.0167 0.50113c-0.15034 0.10023-0.26727 0.0835-0.26727 0.0835l-6.3247 34.708-6.2419 0.70233 9.8443-35.457s-0.89769-1.0985-0.48428-1.1103 0.68508-0.49609-0.05906-1.7836-1.3938-1.6655-1.7718-1.4292c-0.37798 0.23624-0.48428 0.42523-0.48428 0.42523l-4.7129-2.9057s-1.2284-3.1183-3.1656-0.51971c-1.9371 2.5986 1.0394-7.7485 1.0394-7.7485z" fill="#473d4f"/>
  <path d="m66.713 316.03 8.5045 39.971-0.23624 1.1339-0.42522 0.0945 0.04725 0.70871-2.1261 0.23623 0.20367 0.85023 0.41761 0.23386 0.28397 0.58465v1.0023l-1.5535 0.0835v0.55125l0.46772 0.60135-0.01669 0.30068-0.43431 0.16704v0.88533l-0.68488 0.0835 0.01669 0.73499 5.6464 0.9139 4.8272-3.5365-12.866-50.212-3.4712 2.0037z" fill="#feeec0"/>
  <path d="m25.891 348.02-7.5122 1.2754-0.33073 1.6066h-0.51986l-0.09457 1.2284 0.47232-0.047-0.94465 5.4333-0.90899 0.0413-0.05013 0.41807-0.76843 0.0331 0.01705 0.36742-0.83561 0.0336v0.41754l-0.78496 0.0165-0.01654 0.36794-0.75189 0.0165-0.05013 0.41755-0.75138-0.0165v0.30076l-0.73536 0.0165v0.38395l-1.002-0.0331 0.01654 0.95188 15.017 0.65164zm-6.7329 4.3465 0.709 0.0946-0.82682 4.748h-0.49609zm1.6066 0.0946 0.77928 0.11782-0.51935 4.6778-0.87436-0.0475z" fill="#143e68"/>
  <path d="m57.511 348.07 7.5122 1.2754 0.33073 1.6066h0.51986l0.09457 1.2284-0.47232-0.047 0.94465 5.4333 0.90899 0.0413 0.05013 0.41807 0.76843 0.0331-0.01705 0.36742 0.83561 0.0336v0.41754l0.78496 0.0165 0.01654 0.36794 0.75189 0.0165 0.05013 0.41755 0.75138-0.0165v0.30076l0.73536 0.0165v0.38395l1.002-0.0331-0.01654 0.95188-15.017 0.65164zm6.7329 4.3465-0.709 0.0946 0.82682 4.748h0.49609zm-1.6066 0.0946-0.77928 0.11782 0.51935 4.6778 0.87436-0.0475z" fill="#143e68"/>
  <path d="m65.214 306.24 1.1025 4.5436-1.6704 2.8397 1.1359 0.80181s1.0023-1.3029 1.2695-1.2361c0.26727 0.0668-0.06682 1.1359-0.06682 1.1359l0.73499-0.63477 0.20045 0.26727-0.80181 0.7684s1.5034-0.60135 1.0023-0.0668c-0.50113 0.53454-0.73499 0.8018-0.73499 0.8018l0.23386 0.13364s0.73499-0.63477 0.83522-0.33409 8.9362 40.364 8.9362 40.364l0.63784 2.1734h-0.68508l0.09449 1.252 0.44885 0.51972 0.21261 1.2048-0.35435 0.7087 1.1576 0.0945-1.2993 0.16536-0.16536 2.008-0.68508-0.0236 0.07087 1.441 0.82682 0.14174 7.4178-0.56696 0.09449-8.0556h-0.7087l0.11812-0.89769-0.37798-0.21262-0.35435-0.68508-10.796-36.758s-0.16536-0.92132 0.87407-1.1339 1.8899 0.59059 1.8899 0.59059l-2.5277-10.442-1.9278-1.8036s-0.28512 1.1822-0.78442 2.079c-0.49929 0.89679-1.0497 1.4927-1.0497 1.4927l-0.50859-0.82943-0.73158 0.0383-0.47854-0.36269z" fill="#473d4f"/>
  <path d="m18.096 288.39 4.8664 0.21261 1.2757 0.18899s0.09449 1.1103-1.7481 1.5828c-1.8426 0.47247-1.8426 1.5119-1.8426 1.5119s0.4016 0.11812 0.28348 0.59059-0.21261 0.6615-0.21261 0.6615l-0.94494-0.756-0.35435 0.8032s-0.69689 0.2008-0.50791 0.77958c0.18899 0.57877 0.35435 0.76776 0.30711 1.0512-0.04725 0.28349-0.46066 0.31892-0.46066 0.31892l-0.72052-0.25986-0.36616 0.47247-0.58184 1.4195-2.9567-5.7964z" fill="#feeec0"/>
  <path d="m15.733 297.09s0.40314 0.41852 0.73723 0.28489c0.33409-0.13364 0.61806-0.40091 0.61806-0.40091s-0.31585-1.6557-0.97731-2.8842c-0.66146-1.2284-0.85045-1.5119-0.85045-1.5119l0.23624-0.94494 0.77958-0.25986s0.23624 0.59059 0.7087 1.8426c0.47247 1.252 0.68508 2.3387 0.68508 2.3387s0.51972-0.0709 0.75595-0.11811c0.23624-0.0473 0.33073-0.0945 0.33073-0.0945s-1.3938-4.1341-1.2757-4.4885c0.11812-0.35435 0.54334-1.2284 0.54334-1.2284l1.3938 3.5672 1.2993-0.0472-2.0789-4.9137-10.512 0.0236 0.33073 1.3229 2.0316-0.0472-1.5119 1.8426s-0.99226 0.10514-1.0591 1.2076c-0.066817 1.1025 0.4009 1.8375 0.4009 1.8375l-10.591 21.448-0.13363 18.575 4.6772-5.7463 12.895-32.267z" fill="#473d4f"/>
  <path d="m15.686 297.23-17.691 49.304 0.66817-14.566 15.888-38.376s0.99219 0.51972 1.2757 1.7481-0.14174 1.8899-0.14174 1.8899z" fill="#feeec0"/>
  <path d="m68.321 297.72 17.473 51.015 0.53454-17.306-18.442-44.634-9.2876 2.205 0.73499 1.1359s2.205 0.30068 2.6059 0.80181 0.43431 0.83521 0.43431 0.83521-0.3675 0.70159-0.20045 1.0357c0.16704 0.33409 0.33409 0.40091 0.33409 0.40091l0.98437-0.69278 0.40209 0.72623 0.48442 0.10018s0.21715 0.23386 0.23386 0.78511c0.01669 0.55124 0.30068 1.4032 0.30068 1.4032l0.93544-0.7684 0.16704 0.71829s0.30068 0.35079 0.41761 0.83521c0.11693 0.48443 0.4009 1.1025 0.83522 1.1693 0.43431 0.0668 1.0524 0.23386 1.0524 0.23386z" fill="#feeec0"/>
  <path d="m62.508 293.21 3.4019-6.7325 10.843 0.18899-1.5355 2.9057-0.61421 0.0473 0.63783 1.7009s1.1103 0.68509 1.0631 1.6773c-0.04725 0.99219-0.51972 1.4174-0.51972 1.4174l11.479 22.382-2.0062 16.668-16.001-39.453s-1.0023 0.53453-1.2528 1.4032-0.26727 1.3364-0.26727 1.3364-0.60136-0.11693-0.30068-1.3029c0.30068-1.186 1.4032-2.6894 1.4032-2.6894l-0.10023-1.0858-1.0023-0.0167-1.7205 3.8253-1.1025 0.0501 2.0045-4.126s-0.53454-0.61806-0.61806-1.0691c-0.08352-0.45102-0.08352-0.46772-0.08352-0.46772l-0.56795 0.0334-1.754 3.3409z" fill="#473d4f"/>
  <path d="m11.481 318.3-11.056 37.207-0.49609 0.0945-1.2048 9.0006 9.1601 0.47156 0.81462-2.8926-0.52533-7.1701 7.8903-36.144z" fill="#473d4f"/>
  <g fill="#feeec0">
   <path d="m15.969 315.39-9.7219 42.262 1.5702 0.20045-0.50113 1.2361-0.46772 0.0668-0.33409 1.4032 0.4009 0.0668-0.06682 0.70159-0.7684 0.23386 1.3029 0.13363-0.16704 1.9377 0.70158 0.0668-0.03341 1.3698 5.5793-1.0023v-1.0357l-0.80181 0.0668-0.53454-0.96885 0.4009-0.83522-0.10023-0.33409-1.2695-0.26727v-1.0023l0.16704-0.36749 0.33409-0.13364 0.46772-1.0691-1.7038-0.20045-0.10023-0.66817-0.60136-0.13364-0.3675-1.1025 7.851-38.955 0.50113-1.2361s-1.3698-1.3698-1.1693-1.0023 0.43431 0.7684 0.56795 1.2361 0.06682 0.70158 0.06682 0.70158-0.21716-0.7684-0.61806-1.0524-0.58465-0.31738-0.58465-0.31738z"/>
   <path d="m17.103 314.06 0.28348-0.12992 0.68508 1.3465-0.16536 0.22442z"/>
   <path d="m25.891 331.29s-0.04732-3.5436 2.4568-3.9216c2.5041-0.37797 3.4018 1.0394 3.4018 1.0394v-2.1261l2.9293 4.3467s2.2679-4.4412 7.276-4.4412 7.6068 4.1105 7.6068 4.1105l3.0238-3.7325 0.09449 2.0316s0.28348-1.6536 2.5513-1.0867c2.2679 0.56697 2.6458 4.2051 2.6458 4.2051l-18.825 0.70417z"/>
  </g>
  <path d="m42.05 324.25-1.078 2.405c-4.1993 0.65213-6.3267 4.7062-6.3267 4.7062l-2.5642-4.0401v2.7404s-0.14167-1.9136-3.0474-1.9136c-2.9057 0-3.1419 3.1419-3.1419 3.1419l-1.5121 30.609h35.199l-1.7007-30.184s-0.425-3.0238-2.6929-3.3073c-2.2679-0.28348-2.9766 1.7952-2.9766 1.7952l0.14159-2.7874-2.835 3.5905s-2.0088-3.808-6.3293-4.3703z" fill="#143e68"/>
  <g fill="#fffccc">
   <path d="m36.266 356.92 0.48799-21.165 0.89932-0.985-0.29977-0.83346 0.09993-1.2881 1.5988-0.2273v-0.98501l3.1976-1.0607 2.9978 0.75766-0.09993 1.3638 1.6987 0.30308-0.3997 1.8942 1.0992 1.6669 0.68 20.625-0.71897 0.58129-10.489-0.13257z"/>
   <path d="m27.178 333.33 0.56526-0.51866 2.685-0.77799v0.82985s-0.98921 0.6224-0.98921 1.2966 0.84789 1.8672 0.84789 1.8672l-0.84789 0.98545-0.77724 19.596-2.473 0.0473 1.2718-20.836s0.70658-0.41493 0.63592-1.1929c-0.07066-0.778-0.91855-1.2967-0.91855-1.2967z"/>
   <path d="m53.887 333.23 0.07066-0.88173 2.685 0.88173s-0.84789 0.46679-0.84789 1.1929 0.77723 1.2966 0.77723 1.2966l0.91855 21.001-2.1904-5e-3 -1.2718-20.685s0.63592-0.72612 0.70658-1.2966c0.07066-0.57053-0.84789-1.5041-0.8479-1.5041z"/>
  </g>
  <path d="m31.538 361.3-0.53454 1.8709 21.181-0.13364-0.33409-1.5368z" fill="#143e68"/>
  <path d="m33.141 333.37-0.66818 23.787" fill="none" stroke="#fffccc" stroke-width=".26458px"/>
  <path d="m51.182 333.5 0.66818 23.787" fill="none" stroke="#fffccc" stroke-width=".26458px"/>
  <ellipse cx="41.625" cy="301.11" rx="2.5986" ry="1.8818" fill="#feeec0" opacity=".47003" style="paint-order:markers fill stroke"/>
  <g fill="#fefefe">
   <circle cx="79.741" cy="295.77" r=".2008" opacity=".347" style="paint-order:markers fill stroke"/>
   <circle cx="83.789" cy="307.51" r=".2008" opacity=".347" style="paint-order:markers fill stroke"/>
   <circle cx="80.181" cy="337.64" r=".2008" opacity=".347" style="paint-order:markers fill stroke"/>
   <circle cx="83.589" cy="345.86" r=".2008" opacity=".347" style="paint-order:markers fill stroke"/>
   <circle cx="71.161" cy="342.25" r=".2008" opacity=".347" style="paint-order:markers fill stroke"/>
   <circle cx="61.138" cy="336.37" r=".2008" opacity=".347" style="paint-order:markers fill stroke"/>
   <circle cx="63.944" cy="340.65" r=".2008" opacity=".347" style="paint-order:markers fill stroke"/>
   <circle cx="62.742" cy="344.59" r=".2008" opacity=".347" style="paint-order:markers fill stroke"/>
   <circle cx="19.778" cy="343.32" r=".2008" opacity=".347" style="paint-order:markers fill stroke"/>
   <circle cx="22.651" cy="334.17" r=".2008" opacity=".347" style="paint-order:markers fill stroke"/>
   <circle cx="15.769" cy="331.63" r=".2008" opacity=".347" style="paint-order:markers fill stroke"/>
   <circle cx="49.231" cy="323.59" r=".2008" opacity=".347" style="paint-order:markers fill stroke"/>
   <circle cx="15.781" cy="304.6" r=".2008" opacity=".347" style="paint-order:markers fill stroke"/>
   <circle cx="1.2027" cy="342.99" r=".2008" opacity=".347" style="paint-order:markers fill stroke"/>
   <circle cx="3.0068" cy="342.79" r=".2008" opacity=".347" style="paint-order:markers fill stroke"/>
   <circle cx="78.444" cy="290.14" r=".2008" opacity=".347" style="paint-order:markers fill stroke"/>
   <circle cx="80.448" cy="291.61" r=".2008" opacity=".347" style="paint-order:markers fill stroke"/>
   <circle cx="3.9422" cy="291.94" r=".2008" opacity=".347" style="paint-order:markers fill stroke"/>
   <circle cx="1.2695" cy="296.42" r=".2008" opacity=".347" style="paint-order:markers fill stroke"/>
   <circle cx="4.009" cy="298.56" r=".2008" opacity=".347" style="paint-order:markers fill stroke"/>
   <circle cx="15.769" cy="299.42" r=".2008" opacity=".11672" style="paint-order:markers fill stroke"/>
   <circle cx="16.237" cy="298.69" r=".2008" opacity=".11672" style="paint-order:markers fill stroke"/>
   <circle cx="24.121" cy="315.06" r=".2008" opacity=".11672" style="paint-order:markers fill stroke"/>
   <circle cx="26.593" cy="320.14" r=".2008" opacity=".11672" style="paint-order:markers fill stroke"/>
   <circle cx="30.469" cy="320.54" r=".2008" opacity=".11672" style="paint-order:markers fill stroke"/>
   <circle cx="36.414" cy="324.06" r=".2008" opacity=".11672" style="paint-order:markers fill stroke"/>
   <circle cx="37.215" cy="323.12" r=".2008" opacity=".11672" style="paint-order:markers fill stroke"/>
   <circle cx="21.315" cy="314.12" r=".2008" opacity=".11672" style="paint-order:markers fill stroke"/>
   <circle cx="53.654" cy="322.34" r=".2008" opacity=".11672" style="paint-order:markers fill stroke"/>
   <circle cx="46.51" cy="323.39" r=".2008" opacity=".11672" style="paint-order:markers fill stroke"/>
   <circle cx="50.98" cy="319.39" r=".2008" opacity=".11672" style="paint-order:markers fill stroke"/>
   <circle cx="54.79" cy="320.07" r=".2008" opacity=".11672" style="paint-order:markers fill stroke"/>
   <circle cx="57.463" cy="318.2" r=".2008" opacity=".11672" style="paint-order:markers fill stroke"/>
   <circle cx="61.672" cy="315.93" r=".2008" opacity=".11672" style="paint-order:markers fill stroke"/>
   <circle cx="62.942" cy="311.65" r=".2008" opacity=".11672" style="paint-order:markers fill stroke"/>
   <circle cx="67.82" cy="303.9" r=".2008" opacity=".11672" style="paint-order:markers fill stroke"/>
   <circle cx="67.552" cy="300.43" r=".2008" opacity=".11672" style="paint-order:markers fill stroke"/>
   <circle cx="66.684" cy="300.69" r=".2008" opacity=".11672" style="paint-order:markers fill stroke"/>
   <circle cx="63.61" cy="294.41" r=".2008" opacity=".11672" style="paint-order:markers fill stroke"/>
   <circle cx="6.6817" cy="294.28" r=".2008" opacity=".11672" style="paint-order:markers fill stroke"/>
   <circle cx="1.9377" cy="290.34" r=".2008" opacity=".11672" style="paint-order:markers fill stroke"/>
   <circle cx="1.0691" cy="302.1" r=".2008" opacity=".11672" style="paint-order:markers fill stroke"/>
   <circle cx="9.3544" cy="321.07" r=".2008" opacity=".11672" style="paint-order:markers fill stroke"/>
   <circle cx="6.5481" cy="329.96" r=".2008" opacity=".11672" style="paint-order:markers fill stroke"/>
   <circle cx="4.009" cy="333.9" r=".2008" opacity=".11672" style="paint-order:markers fill stroke"/>
   <circle cx="5.5458" cy="334.24" r=".2008" opacity=".11672" style="paint-order:markers fill stroke"/>
   <circle cx="2.4054" cy="341.72" r=".2008" opacity=".11672" style="paint-order:markers fill stroke"/>
   <circle cx=".60136" cy="349.67" r=".2008" opacity=".11672" style="paint-order:markers fill stroke"/>
   <circle cx="12.762" cy="344.26" r=".2008" opacity=".11672" style="paint-order:markers fill stroke"/>
   <circle cx="15.301" cy="333.5" r=".2008" opacity=".11672" style="paint-order:markers fill stroke"/>
   <circle cx="17.239" cy="322.21" r=".2008" opacity=".11672" style="paint-order:markers fill stroke"/>
   <circle cx="17.707" cy="325.08" r=".2008" opacity=".11672" style="paint-order:markers fill stroke"/>
   <circle cx="24.188" cy="326.15" r=".2008" opacity=".11672" style="paint-order:markers fill stroke"/>
   <circle cx="22.25" cy="328.56" r=".2008" opacity=".11672" style="paint-order:markers fill stroke"/>
   <circle cx="23.653" cy="335.57" r=".2008" opacity=".11672" style="paint-order:markers fill stroke"/>
   <circle cx="20.446" cy="346.8" r=".2008" opacity=".11672" style="paint-order:markers fill stroke"/>
   <circle cx="21.315" cy="343.86" r=".2008" opacity=".11672" style="paint-order:markers fill stroke"/>
   <circle cx="19.845" cy="340.45" r=".2008" opacity=".11672" style="paint-order:markers fill stroke"/>
   <circle cx="62.007" cy="326.22" r=".2008" opacity=".11672" style="paint-order:markers fill stroke"/>
   <circle cx="60.737" cy="327.96" r=".2008" opacity=".11672" style="paint-order:markers fill stroke"/>
   <circle cx="62.608" cy="332.7" r=".2008" opacity=".11672" style="paint-order:markers fill stroke"/>
   <circle cx="61.672" cy="338.05" r=".2008" opacity=".11672" style="paint-order:markers fill stroke"/>
   <circle cx="64.011" cy="344.26" r=".2008" opacity=".11672" style="paint-order:markers fill stroke"/>
   <circle cx="65.815" cy="349" r=".2008" opacity=".11672" style="paint-order:markers fill stroke"/>
   <circle cx="67.552" cy="353.61" r=".2008" opacity=".11672" style="paint-order:markers fill stroke"/>
   <circle cx="72.363" cy="347.67" r=".2008" opacity=".11672" style="paint-order:markers fill stroke"/>
   <circle cx="68.956" cy="333.17" r=".2008" opacity=".11672" style="paint-order:markers fill stroke"/>
   <circle cx="67.018" cy="326.02" r=".2008" opacity=".11672" style="paint-order:markers fill stroke"/>
   <circle cx="67.285" cy="323.28" r=".2008" opacity=".11672" style="paint-order:markers fill stroke"/>
   <circle cx="68.221" cy="329.09" r=".2008" opacity=".11672" style="paint-order:markers fill stroke"/>
   <circle cx="70.025" cy="339.98" r=".2008" opacity=".11672" style="paint-order:markers fill stroke"/>
   <circle cx="78.377" cy="331.7" r=".2008" opacity=".11672" style="paint-order:markers fill stroke"/>
   <circle cx="83.388" cy="347.93" r=".2008" opacity=".11672" style="paint-order:markers fill stroke"/>
   <circle cx="82.453" cy="344.53" r=".2008" opacity=".11672" style="paint-order:markers fill stroke"/>
   <circle cx="82.119" cy="341.45" r=".2008" opacity=".11672" style="paint-order:markers fill stroke"/>
   <circle cx="3.2741" cy="297.75" r=".2008" opacity=".11672" style="paint-order:markers fill stroke"/>
   <circle cx="5.2118" cy="293.75" r=".2008" opacity=".11672" style="paint-order:markers fill stroke"/>
   <circle cx="5.4122" cy="290.47" r=".2008" opacity=".11672" style="paint-order:markers fill stroke"/>
   <circle cx="2.0713" cy="292.88" r=".2008" opacity=".11672" style="paint-order:markers fill stroke"/>
   <circle cx="2.1382" cy="304.24" r=".2008" opacity=".11672" style="paint-order:markers fill stroke"/>
   <circle cx="2.6059" cy="301.23" r=".2008" opacity=".11672" style="paint-order:markers fill stroke"/>
   <circle cx="78.51" cy="293.01" r=".2008" opacity=".11672" style="paint-order:markers fill stroke"/>
   <circle cx="82.052" cy="290.14" r=".2008" opacity=".11672" style="paint-order:markers fill stroke"/>
   <circle cx="82.653" cy="296.82" r=".2008" opacity=".11672" style="paint-order:markers fill stroke"/>
   <circle cx="80.649" cy="299.89" r=".2008" opacity=".11672" style="paint-order:markers fill stroke"/>
   <circle cx="76.907" cy="295.68" r=".2008" opacity=".11672" style="paint-order:markers fill stroke"/>
   <circle cx="83.121" cy="293.75" r=".2008" opacity=".11672" style="paint-order:markers fill stroke"/>
   <circle cx="74.501" cy="319.87" r=".2008" opacity=".11672" style="paint-order:markers fill stroke"/>
   <circle cx="76.974" cy="325.62" r=".2008" opacity=".11672" style="paint-order:markers fill stroke"/>
   <circle cx="82.519" cy="304.24" r=".2008" opacity=".11672" style="paint-order:markers fill stroke"/>
   <circle cx="83.655" cy="304.3" r=".2008" opacity=".11672" style="paint-order:markers fill stroke"/>
   <circle cx="83.254" cy="299.49" r=".2008" opacity=".11672" style="paint-order:markers fill stroke"/>
  </g>
  <path d="m40.355 352.59c-0.1818-0.0217 0.0888 0.0685-0.11311 0.0347-0.12102-0.0173 0.13631 0.18634 0.02216 0.18505 0.14992 0.0266 0.21154-0.0334 0.12734 0.1498 0.02845 0.24311-0.26072 0.21844-0.341 0.43232-0.17972 8e-3 -0.07833 0.19613-0.192 0.24489-0.12654 0.022-0.08878 0.1175-0.05959 0.20921 0.04922 0.0929 0.0037 0.17573-0.04319 0.25842-0.04637 0.0946-0.09274 0.18915-0.1391 0.28373 0.08065 0.10462 0.07836 0.20184 0.10718 0.30582 0.04219 0.10385-0.03585 0.19103 0.04124 0.31252-0.01411 0.10265-0.20249 0.15929-0.07565 0.31835-0.16394 0.30299-0.55395 0.36689-0.76902 0.62008-0.09629 0.0862-0.46962 0.16322-0.43253 0.19689 0.1852 0.0178 0.37134 0.0296 0.55091-0.0322 0.17013-0.14981 0.32324 0.10252 0.16312 0.21129-0.1215 0.18876-0.2136 0.39626-0.32353 0.59239 0.10858 0.0337 0.21715 0.0674 0.32573 0.10104 0.07867-0.11612 0.15733-0.23223 0.236-0.34835-0.04114 0.266-0.08227 0.532-0.12341 0.798 0.06911 0.0588 0.17898 0.0163 0.26542 0.0321 0.0749-7e-3 0.241 0.0429 0.13672-0.0749-0.04422-0.0572-0.2223-0.0299-0.13929-0.13741 0.07062-0.18237 0.14124-0.36475 0.21186-0.54712 0.14168 0.0847 0.28336 0.16946 0.42504 0.25419-0.02117 0.0875-0.07135 0.18996 0.05953 0.19876 0.09876 0.0697 0.15319 0.046 0.16116-0.0756 0.04567-0.15365 0.09134-0.30729 0.13701-0.46094 0.09013 0.13663 0.04503 0.30664 0.06432 0.46076-6e-3 0.0985 0.0052 0.13827 9.55e-4 0.22407-0.02613 0.10165-0.03781 0.191 0.09633 0.15618l0.44243 9e-3c0.0022-0.11674-0.12694-0.10275-0.20771-0.13689-0.25032-2e-3 -0.03486-0.28044-0.04494-0.42605 0.08263-0.1587-0.05885-0.37105 0.16175-0.41408 0.05528-0.0532 0.22186-0.062 0.19167-0.14944-0.10783-0.31588-0.21567-0.63177-0.3235-0.94765 0.06794-0.0154-0.04037-0.15814-0.04201-0.2238-0.0016-0.0608-0.12617-0.2443-0.01311-0.19076 0.09978 0.0157 0.15854 0.0631 0.21165 0.12084 0.08875 0.0362 0.15866 0.0724 0.24012 0.0511-0.0058 0.0651-0.11353 0.1906 0.03239 0.16924 0.04834-0.0547 0.04529-0.2043 0.15997-0.10753 0.75072 0.29338 1.5014 0.58676 2.2522 0.88014 0.12218 0.0127 0.15985-0.0104 0.05162-0.0955-0.78938-0.30992-1.5788-0.61983-2.3681-0.92975 0.0297-0.0703 0.08275-0.21405-0.02538-0.193-0.04032 0.0983-0.06601 0.248-0.14154 0.0578-0.145-0.1156-0.18291-0.34916-0.16707-0.53559 0.03228-0.10525-0.14134-0.1177-0.206-0.17936-0.02872-0.12559-0.01634-0.26603-0.09767-0.37222-0.03953-0.132 0.13689-0.22371-0.02877-0.30299 0.11302-0.1264-0.16744-0.13966-0.13328-0.22595 0.0499-0.13229 0.11287-0.0687 0.1187-0.23892 0.04109-0.0404-0.02906-0.19881 0.08133-0.11958 0.02542-0.1706-0.17268-0.2993-0.35768-0.2424 0.02021-0.0988-0.07735-0.16877-0.16762-0.16098zm-0.369 1.8376c0.08014 0.0564 0.11726 0.14612 0.083 0.23845-0.05282 0.0755-0.10565 0.15093-0.15847 0.22639 0.01895-0.0863 0.08029-0.17468 0.01821-0.25686-0.0062-0.0716 0.1074-0.11025 0.05726-0.20798zm0.72717 0.11505c0.11144 0.1032 0.2309 0.20011 0.28936 0.34478 0.09703 0.12464-0.08347 3e-3 -0.14049-9e-3 -0.05772-0.0445-0.06436-0.15318-0.12754-0.2149-0.02607-0.0336-0.01324-0.0812-0.02133-0.12096z" opacity=".48265"/>
  <path d="m37.108 357.89-4.0574 3.5747-0.41577 1.1693 18.006-0.0334-0.31982-1.3698-2.9787-3.2072z" fill="#1f4871" opacity=".5836"/>
  <path d="m24.389 358.67-6.671-0.16942-3.9181 1.9729 9.3425 0.22478z" fill="#1a446d"/>
  <path d="m59.007 358.66 6.2735-0.0313 4.3431 1.8041-9.3544 0.13364z" fill="#1a446d"/>
 </g>
</svg>
