<?xml version="1.0" encoding="UTF-8"?>
<svg width="48" height="48" version="1.1" viewBox="0 0 12.7 12.7" xmlns="http://www.w3.org/2000/svg">
 <g transform="translate(-.052917 -.026458)">
  <g transform="translate(-.052917 -.18521)" stroke-linejoin="round" stroke-width=".26458">
   <g>
    <path d="m6.6313 5.4103c0.41252 0.21471-0.23918 0.49906-0.1267 0.62015 0.25758 0.27727-0.083705 0.58709-0.077173 0.8391 0.019266 0.74333-0.011508 0.53163-0.011508 0.53163l0.45921-0.01435 0.10285-0.46503c-0.04282-0.78961 0.086514-1.501 0.46431-2.0994-0.43503 0.052778-0.44346 0.36944-0.80304 0.14268-0.073573-0.046395-0.30084-0.20318-0.26903-0.39291 0.053571-0.3195 0.41413-0.71382 0.36174-0.69613-1.4319 0.48353-0.55402 1.2983-0.10066 1.5342z" fill="#3c993b" stroke="#2c572f" style="paint-order:markers fill stroke"/>
    <path d="m2.9133 9.6431 7.205-0.031989s-0.1509-0.38919-0.42595-0.55712c-0.20168-0.12314-0.52719 0.0031676-0.62171-0.1674-0.45449-0.82017-0.69217-2.0344-2.339-1.959-1.8344 0.083995-2.2852 1.0494-2.5749 1.8177-0.16138 0.42806-1.2435 0.89777-1.2435 0.89777z" fill="#926d42" stroke="#543f1d" style="paint-order:markers fill stroke"/>
    <path d="m4.8951 5.3898c1.3839 1.4026 1.5136 1.1466 1.6018 0.48985 0.088208-0.65671-1.6018-0.48985-1.6018-0.48985z" fill="#59e658" stroke="#29b332" style="paint-order:markers fill stroke"/>
    <path d="m8.9346 4.3467c-1.9617-0.18488-1.8234 0.054522-1.5419 0.65439 0.31953 0.68105 1.475-0.42123 1.5419-0.65439z" fill="#59e658" stroke="#29b332" style="paint-order:markers fill stroke"/>
   </g>
   <path d="m5.1947 8.4843c0.24866 0.00543 0.37254-0.4918 0.74104-0.63441 0.23877-0.092403 0.54536 0.18376 1.0052 0.017045" fill="none" stroke="#543f1d" stroke-linecap="round" style="paint-order:markers fill stroke"/>
   <path d="m6.9585 8.8547c0.17572-0.11182 0.4368 0.18533 0.79912 0.23043 0.3297 0.041035 0.82217-0.16722 0.87658 0.051797" fill="none" stroke="#543f1d" stroke-linecap="round" style="paint-order:markers fill stroke"/>
  </g>
 </g>
</svg>
