<?xml version="1.0" encoding="UTF-8"?>
<svg width="32" height="32" version="1.1" viewBox="0 0 8.4667 8.4667" xmlns="http://www.w3.org/2000/svg">
 <g transform="translate(0 -288.53)">
  <g>
   <path d="m2.1647 295.41-0.023624-0.66146-0.53261 0.16537v0.35435z" fill="#295995"/>
   <path d="m1.6129 290.9 0.3514-0.3514 4.8177-0.0361v3.9073l-0.33073 0.28348-4.8428 0.0709z" fill="#6197d7"/>
   <path d="m4.2587 291.67-0.93224 1.0392 0.93224 1.0392v-0.47698h1.5963v-1.1245h-1.5963zm0.35323 0.74543c0.10792 2.6e-4 0.17753 0.0366 0.2395 0.084 0.049505 0.0379 0.094993 0.0848 0.14056 0.13074 0.098963-0.0999 0.19918-0.21084 0.33796-0.21084 0.14189 0 0.23 0.0749 0.26768 0.14831 0.036726 0.0716 0.035228 0.13963 0.03514 0.14263 0 0 0.00253 0.0734-0.03514 0.14676-0.037673 0.0734-0.12579 0.14831-0.26768 0.14831-0.13878 0-0.239-0.11094-0.33796-0.21084-0.045567 0.046-0.091055 0.0929-0.14056 0.13074-0.061967 0.0474-0.13158 0.0842-0.21084 0.0842-0.13658 0-0.2226-0.0771-0.25993-0.15038-0.037333-0.0732-0.038757-0.14676-0.038757-0.14676s0.00142-0.0735 0.038757-0.14676c0.037337-0.0733 0.12335-0.15038 0.23127-0.15012zm-0.11397 0.21058c-0.020747 0.0407-0.023099 0.0866-0.023099 0.0866s0.00235 0.0448 0.023099 0.0855c0.021643 0.0425 0.050723 0.0801 0.14263 0.0801 0.034978 0 0.080121-0.0197 0.13074-0.0584 0.035846-0.0274 0.076004-0.0685 0.11524-0.10749-0.039235-0.039-0.079391-0.0801-0.11524-0.10748-0.050619-0.0387-0.095762-0.0584-0.1592-0.0587-0.063441-2.6e-4 -0.092516 0.0373-0.11416 0.0798zm0.83199-0.076c-0.061036 0-0.14752 0.0844-0.23203 0.16226 0.084511 0.0779 0.17099 0.16227 0.23203 0.16227 0.10053 0 0.1297-0.0377 0.15038-0.078s0.021704-0.0842 0.021704-0.0842-0.00102-0.0434-0.021704-0.0837c-0.020688-0.0403-0.049848-0.0785-0.15038-0.0785z" fill="#fff"/>
  </g>
  <g fill="none">
   <path d="m6.7719 290.29v4.0674c0 0.2923-0.3514 0.3514-0.3514 0.3514h-4.4755s-0.34254 0.0177-0.34254 0.34254c0 0.32486 0.57742 0.36026 0.57742 0.36026v-0.668" stroke="#225087" stroke-width=".26458px"/>
   <path d="m6.7823 290.2c0 0.32482-0.34254 0.34254-0.34254 0.34254h-4.4755s-0.3514 0.0591-0.3514 0.3514v4.0697" stroke="#225087" stroke-width=".26458px"/>
   <path d="m4.7444 294.07h-2.0293v-2.7403h2.0293" stroke="#fff" stroke-linecap="round" stroke-linejoin="bevel" stroke-miterlimit="40" stroke-width=".26458"/>
  </g>
 </g>
</svg>
