<?xml version="1.0" encoding="UTF-8"?>
<svg width="32" height="32" version="1.1" viewBox="0 0 8.4667 8.4667" xmlns="http://www.w3.org/2000/svg">
 <g transform="translate(.69405 -290.6)">
  <path d="m2.8975 294.46s0.54394-0.44196 1.2834-0.068c0 0 1.5978 0.90091 1.3174 1.2749-0.28047 0.37397-1.3082 0.22517-1.2509-0.10983 0 0-0.3753-0.27376-0.49592-0.64968 0 0-0.58885 0.54758-0.81121 0.1539z" fill="#8d6f22" stroke="#322619" stroke-width=".26458"/>
  <path d="m3.7819 294.76s0.23613 0.40384 0.55289 0.92229c0.27113 0.11167 0.83626 0.0999 0.98924 4e-3 0.22098-0.0999 0.084991-0.24647-0.10199-0.44195-0.18698-0.19548-0.37821-0.56431-0.37821-0.56431z" fill="#882621"/>
  <path d="m2.8975 294.46s0.13583 0.13848 0.12982 0.37888c-0.00601 0.24039-0.32146 0.46489-0.50175 0.36573-0.18029-0.0992-0.29558-0.29515-0.094256-0.49046 0.20133-0.19532 0.25408-0.25435 0.34182-0.14893z" fill="#8d6f22" stroke="#322619" stroke-width=".26458"/>
  <g fill="none" stroke="#322619" stroke-width=".26458">
   <path d="m2.6807 296.6 0.40386-0.76064-0.095626-2.418 0.43721 1.7468" stroke-width=".26458"/>
   <path d="m3.6186 295.04 0.37957-1.6553-0.06163 2.437 0.57803 0.65851"/>
   <path d="m3.7975 294.7 1.1832-1.0429-0.20066 2.3229 0.88816 0.55245"/>
  </g>
  <path d="m2.3313 294.51s0.27343-0.2687 0.45175-0.1402c0.17832 0.12857 0.13077 0.41669 0 0.55689-0.13077 0.14019-0.44383 0.26481-0.53101 0.035-0.08718-0.22975 0.079255-0.45174 0.079255-0.45174z" fill="#017219" stroke-width="1.3073"/>
  <path d="m3.6685 294.26s1.6701 0.15298 2.1333 0.4972c0.4632 0.34421-0.063743 0.25923-0.57794 0.15299-0.5142-0.10625-1.5171-0.35697-1.8698-0.29747 0 0 0.23798-0.10624 0.31447-0.35272z" fill="#b7b7b7" stroke="#3c3c3c" stroke-width=".26458"/>
 </g>
 <path d="m1.9463 5.7926 1.2982-1.2094" fill="none" stroke="#322619" stroke-width=".26458"/>
</svg>
