<?xml version="1.0" encoding="UTF-8" standalone="no"?>
<svg
   width="32"
   height="32"
   version="1.1"
   viewBox="0 0 8.4667 8.4667"
   id="svg9"
   sodipodi:docname="mosquito.svg"
   inkscape:version="1.4.2 (f4327f4, 2025-05-13)"
   xmlns:inkscape="http://www.inkscape.org/namespaces/inkscape"
   xmlns:sodipodi="http://sodipodi.sourceforge.net/DTD/sodipodi-0.dtd"
   xmlns="http://www.w3.org/2000/svg"
   xmlns:svg="http://www.w3.org/2000/svg">
  <defs
     id="defs9" />
  <sodipodi:namedview
     id="namedview9"
     pagecolor="#ffffff"
     bordercolor="#000000"
     borderopacity="0.25"
     inkscape:showpageshadow="2"
     inkscape:pageopacity="0.0"
     inkscape:pagecheckerboard="0"
     inkscape:deskcolor="#d1d1d1"
     inkscape:zoom="27.65625"
     inkscape:cx="16"
     inkscape:cy="13.107345"
     inkscape:window-width="1920"
     inkscape:window-height="1129"
     inkscape:window-x="-8"
     inkscape:window-y="-8"
     inkscape:window-maximized="1"
     inkscape:current-layer="svg9" />
  <g
     transform="translate(0.69404785,-290.59991)"
     id="g8">
    <g
       id="g3">
      <path
         d="m 2.8975,294.46 c 0,0 0.54394,-0.44196 1.2834,-0.068 0,0 1.5978,0.90091 1.3174,1.2749 -0.28047,0.37397 -1.3082,0.22517 -1.2509,-0.10983 0,0 -0.3753,-0.27376 -0.49592,-0.64968 0,0 -0.58885,0.54758 -0.81121,0.1539 z"
         fill="#8d6f22"
         stroke="#322619"
         stroke-width="0.26458"
         id="path1" />
      <path
         d="m 3.7819,294.76 c 0,0 0.23613,0.40384 0.55289,0.92229 0.27113,0.11167 0.83626,0.0999 0.98924,0.004 0.22098,-0.0999 0.084991,-0.24647 -0.10199,-0.44195 -0.18698,-0.19548 -0.37821,-0.56431 -0.37821,-0.56431 z"
         fill="#882621"
         id="path2" />
      <path
         d="m 2.8975,294.46 c 0,0 0.13583,0.13848 0.12982,0.37888 -0.00601,0.24039 -0.32146,0.46489 -0.50175,0.36573 -0.18029,-0.0992 -0.29558,-0.29515 -0.094256,-0.49046 0.20133,-0.19532 0.25408,-0.25435 0.34182,-0.14893 z"
         fill="#8d6f22"
         stroke="#322619"
         stroke-width="0.26458"
         id="path3" />
    </g>
    <g
       fill="none"
       stroke="#322619"
       stroke-width="0.26458"
       id="g6">
      <path
         d="m 2.6807,296.6 0.40386,-0.76064 -0.095626,-2.418 0.43721,1.7468"
         stroke-width="0.26458"
         id="path4" />
      <path
         d="m 3.6186,295.04 0.37957,-1.6553 -0.06163,2.437 0.57803,0.65851"
         id="path5" />
      <path
         d="m 3.7975,294.7 1.1832,-1.0429 -0.20066,2.3229 0.88816,0.55245"
         id="path6" />
    </g>
    <path
       d="m 2.3313,294.51 c 0,0 0.27343,-0.2687 0.45175,-0.1402 0.17832,0.12857 0.13077,0.41669 0,0.55689 -0.13077,0.14019 -0.44383,0.26481 -0.53101,0.035 -0.08718,-0.22975 0.079255,-0.45174 0.079255,-0.45174 z"
       fill="#017219"
       stroke-width="1.3073"
       id="path7" />
    <path
       d="m 3.6685,294.26 c 0,0 1.6701,0.15298 2.1333,0.4972 0.4632,0.34421 -0.063743,0.25923 -0.57794,0.15299 -0.5142,-0.10625 -1.5171,-0.35697 -1.8698,-0.29747 0,0 0.23798,-0.10624 0.31447,-0.35272 z"
       fill="#b7b7b7"
       stroke="#3c3c3c"
       stroke-width="0.26458"
       id="path8" />
  </g>
  <path
     d="m 1.9463378,5.7925864 1.2982,-1.2094"
     fill="none"
     stroke="#322619"
     stroke-width="0.26458"
     id="path9" />
</svg>
