<?xml version="1.0" encoding="UTF-8"?>
<svg width="32" height="32" version="1.1" viewBox="0 0 8.4667 8.4667" xmlns="http://www.w3.org/2000/svg">
 <path d="m8.3027 6.3646-2.86e-5 0.79847-4.0716 1.2597-4.0892-1.281-1.909e-5 -0.77617z" fill="#756d2a"/>
 <path d="m0.29151 6.3646 3.9396-1.2361 3.9396 1.2361-3.9396 1.2361z" fill="#c7bd62" stroke="#756d2a" stroke-linejoin="round" stroke-width=".26458"/>
 <circle cx="4.2754" cy="2.7437" r="2.7437" fill="#fff"/>
 <circle cx="3.8519" cy="5.9898" r=".14598" fill="#d4cc86"/>
 <circle cx="4.4799" cy="6.6204" r=".14598" fill="#d4cc86"/>
 <path d="m5.0874 5.0839-0.84938 1.2826-0.84938-1.2826" fill="#fff"/>
 <g fill="#d4cc86">
  <circle cx="5.4765" cy="6.6726" r=".14598"/>
  <circle cx="3.5223" cy="6.3853" r=".14598"/>
  <circle cx="2.7594" cy="6.5737" r=".14598"/>
  <circle cx="5.4059" cy="5.8485" r=".14598"/>
  <circle cx="5.1704" cy="6.3665" r=".14598"/>
 </g>
 <g fill="#bbae42">
  <circle cx="4.0075" cy="6.8895" r=".14598"/>
  <circle cx="4.8785" cy="6.8421" r=".14598"/>
  <circle cx="3.0985" cy="6.2629" r=".14598"/>
  <circle cx="2.1489" cy="6.525" r=".14598"/>
  <circle cx="4.8408" cy="5.9144" r=".14598"/>
 </g>
 <circle cx="3.4375" cy="6.8751" r=".14598" fill="#d4cc86"/>
 <circle cx="3.268" cy="5.8014" r=".14598" fill="#bbae42"/>
 <g fill="#36984a">
  <path transform="scale(.26458)" d="m24.047 12.527c-1.0656 0.13101-0.91016 2.3516-0.91016 2.3516l0.05859 1.9102c-0.1646 0.10142-0.53625 0.21354-0.5918-0.8418-0.0356-0.67631-1.4241-1.1746-1.2461 1.1035 0.1323 1.6934 1.3567 1.6766 1.8965 1.5879l0.16797 5.4238s0.39049 0.49805 1.3516 0.49805c0.96107 0 1.2812-0.5332 1.2812-0.5332l-0.10547-3.3457s1.7797-4.63e-4 1.7441-1.3887c-0.0356-1.3882 0.03496-3.168 0.03496-3.168s-0.14181-1.1031-0.99609-1.1387c-0.85428-0.0356-0.74805 1.0312-0.74805 1.0312s0.24893 2.7404 0.03535 2.8828c-0.21357 0.14238-0.28516-0.67578-0.28516-0.67578l-0.14062-3.7012s-0.0013-1.8162-1.3184-1.9941c-0.08231-0.01112-0.15747-0.01069-0.22852-2e-3z"/>
  <path d="m2.1379 6.0275s-0.14127-0.93237 0.27312-0.96063c0.41439-0.028254 0.33904 0.93237 0.33904 0.93237s-0.12243 0.084761-0.32963 0.084761c-0.20719 0-0.28254-0.056507-0.28254-0.056507z"/>
  <path d="m1.6488 6.2897s-0.12129-0.47953 0.2931-0.50778c0.41439-0.028254 0.31907 0.47953 0.31907 0.47953s-0.12243 0.084761-0.32963 0.084761c-0.20719 0-0.28254-0.056507-0.28254-0.056507z"/>
 </g>
</svg>
