<?xml version="1.0" encoding="UTF-8"?>
<svg width="32" height="32" version="1.1" viewBox="0 0 8.4667 8.4667" xmlns="http://www.w3.org/2000/svg">
 <path transform="scale(.26458)" d="m14.371 4.7793c-0.11417-8.207e-4 -0.17578 0.0019531-0.17578 0.0019531s2.7939 3.5501-0.6543 4.582c-3.4482 1.032-3.7246 3.1719-3.7246 3.1719 1e-7 0-1.5616 0.25074-2.5684 2.1133-1.0068 1.8625-0.6543 4.3789-0.6543 4.3789s-3.12 0.15149-2.7676 4.2793c0.35237 4.1278 7.5496 4.0781 12.08 4.0781 4.5305 0 12.284 0.55351 12.385-4.0273 0.10068-4.5809-2.7188-5.2363-2.7188-5.2363s0.45298-1.0562-0.45312-2.5664c-0.9061-1.5102-2.3652-1.9629-2.3652-1.9629s0.95615-3.9264-1.8125-6.4434c-2.4226-2.2023-5.7712-2.3634-6.5703-2.3691zm-2.9727 8.2734s1.3011 0.27129 4.1152 0.48438c2.8141 0.21309 5.6875 0.125 5.6875 0.125s-1.8953 1.1255-5.7168 0.91797c-3.8215-0.20754-4.0859-1.5273-4.0859-1.5273zm12.965 5.5723s-2.5674 1.963-8.457 2.416c-5.8897 0.45305-7.6504-1.7109-7.6504-1.7109s2.7175 0.6536 8.3555 0.35156c5.638-0.30204 7.752-1.0566 7.752-1.0566z" fill="#fff"/>
</svg>
