<?xml version="1.0" encoding="UTF-8"?>
<svg width="384" height="216" version="1.1" viewBox="0 0 101.6 57.15" xmlns="http://www.w3.org/2000/svg">
 <g transform="translate(0 -239.85)" fill="#7e7e7e">
  <path d="m8.8199 257.31-0.92738-4.9148-4.9525-0.69791 4.9147-0.92739 0.69791-4.9525 0.92738 4.9148 4.9525 0.69791-4.9147 0.92738z" opacity=".1"/>
  <path d="m21.114 281.1-0.92738-4.9148-4.9525-0.69791 4.9147-0.92738 0.69791-4.9526 0.92738 4.9148 4.9525 0.69791-4.9147 0.92739z" opacity=".1"/>
  <path d="m80.715 266.53-0.92738-4.9148-4.9525-0.69791 4.9147-0.92739 0.69791-4.9525 0.92738 4.9148 4.9525 0.69791-4.9147 0.92738z" opacity=".1"/>
  <path d="m67.753 286.71-0.92738-4.9148-4.9525-0.69791 4.9147-0.92738 0.69791-4.9526 0.92738 4.9148 4.9525 0.69791-4.9147 0.92739z" opacity=".1"/>
  <path d="m30.469 269.87-1.6253-9.8673-9.8673-1.6253 9.8673-1.6253 1.6253-9.8673 1.6253 9.8673 9.8673 1.6253-9.8673 1.6253z" opacity=".1"/>
  <path d="m50.247 273.48-0.30238-1.8358-1.8358-0.30238 1.8358-0.30238 0.30238-1.8358 0.30238 1.8358 1.8358 0.30238-1.8358 0.30238z" opacity=".1"/>
  <path d="m37.685 274.01-0.30238-1.8358-1.8358-0.30238 1.8358-0.30238 0.30238-1.8358 0.30238 1.8358 1.8358 0.30238-1.8358 0.30238z" opacity=".1"/>
  <path d="m54.657 256.78-0.30238-1.8358-1.8358-0.30238 1.8358-0.30238 0.30238-1.8358 0.30238 1.8358 1.8358 0.30238-1.8358 0.30238z" opacity=".1"/>
  <path d="m55.325 267.07-0.30238-1.8358-1.8358-0.30238 1.8358-0.30238 0.30238-1.8358 0.30238 1.8358 1.8358 0.30238-1.8358 0.30238z" opacity=".1"/>
  <path d="m66.817 254.1-0.30238-1.8358-1.8358-0.30238 1.8358-0.30238 0.30238-1.8358 0.30238 1.8358 1.8358 0.30238-1.8358 0.30238z" opacity=".1"/>
  <path d="m75.771 272.68-0.30238-1.8358-1.8358-0.30238 1.8358-0.30238 0.30238-1.8358 0.30238 1.8358 1.8358 0.30238-1.8358 0.30238z" opacity=".1"/>
  <path d="m88.199 267.2-0.30238-1.8358-1.8358-0.30238 1.8358-0.30238 0.30238-1.8358 0.30238 1.8358 1.8358 0.30238-1.8358 0.30238z" opacity=".1"/>
  <path d="m95.682 253.84-0.30238-1.8358-1.8358-0.30239 1.8358-0.30238 0.30238-1.8358 0.30238 1.8358 1.8358 0.30238-1.8358 0.30239z" opacity=".1"/>
  <path d="m86.595 245.68-0.30238-1.8358-1.8358-0.30238 1.8358-0.30238 0.30238-1.8358 0.30238 1.8358 1.8358 0.30238-1.8358 0.30238z" opacity=".1"/>
  <path d="m52.385 247.02-0.30238-1.8358-1.8358-0.30238 1.8358-0.30238 0.30238-1.8358 0.30238 1.8358 1.8358 0.30238-1.8358 0.30238z" opacity=".1"/>
  <path d="m15.635 268.13-0.30238-1.8358-1.8358-0.30239 1.8358-0.30238 0.30238-1.8358 0.30238 1.8358 1.8358 0.30238-1.8358 0.30239z" opacity=".1"/>
  <path d="m4.1427 282.3-0.30238-1.8358-1.8358-0.30238 1.8358-0.30238 0.30238-1.8358 0.30238 1.8358 1.8358 0.30238-1.8358 0.30238z" opacity=".1"/>
  <path d="m16.972 294.73-0.30238-1.8358-1.8358-0.30238 1.8358-0.30238 0.30238-1.8358 0.30238 1.8358 1.8358 0.30238-1.8358 0.30238z" opacity=".1"/>
  <path d="m41.16 286.18-0.30238-1.8358-1.8358-0.30239 1.8358-0.30238 0.30238-1.8358 0.30238 1.8358 1.8358 0.30238-1.8358 0.30239z" opacity=".1"/>
  <path d="m54.122 295.13-0.30238-1.8358-1.8358-0.30238 1.8358-0.30238 0.30238-1.8358 0.30238 1.8358 1.8358 0.30238-1.8358 0.30238z" opacity=".1"/>
  <path d="m87.264 279.09-0.30238-1.8358-1.8358-0.30238 1.8358-0.30238 0.30238-1.8358 0.30238 1.8358 1.8358 0.30238-1.8358 0.30238z" opacity=".1"/>
  <path d="m73.9 288.98-0.30238-1.8358-1.8358-0.30238 1.8358-0.30238 0.30238-1.8358 0.30238 1.8358 1.8358 0.30238-1.8358 0.30238z" opacity=".1"/>
  <path d="m63.209 263.86-0.625-3.079-3.1168-0.39553 3.079-0.625 0.39553-3.1168 0.625 3.079 3.1168 0.39553-3.079 0.62501z" opacity=".1"/>
  <path d="m56.795 288.71-0.625-3.079-3.1168-0.39553 3.079-0.625 0.39553-3.1168 0.625 3.079 3.1168 0.39553-3.079 0.62501z" opacity=".1"/>
  <path d="m45.97 281.36-0.625-3.079-3.1168-0.39553 3.079-0.62501 0.39553-3.1168 0.625 3.079 3.1168 0.39553-3.079 0.625z" opacity=".1"/>
  <path d="m28.598 292.72-0.625-3.079-3.1168-0.39554 3.079-0.625 0.39553-3.1168 0.625 3.079 3.1168 0.39553-3.079 0.62501z" opacity=".1"/>
  <path d="m5.2118 267.47-0.625-3.079-3.1168-0.39553 3.079-0.62501 0.39553-3.1168 0.625 3.079 3.1168 0.39554-3.079 0.625z" opacity=".1"/>
  <path d="m20.446 247.15-0.625-3.079-3.1168-0.39553 3.079-0.62501 0.39553-3.1168 0.625 3.079 3.1168 0.39554-3.079 0.625z" opacity=".1"/>
  <path d="m91.406 293.12-0.625-3.079-3.1168-0.39554 3.079-0.625 0.39553-3.1168 0.625 3.079 3.1168 0.39553-3.079 0.62501z" opacity=".1"/>
  <path d="m97.152 276.69-0.625-3.079-3.1168-0.39553 3.079-0.625 0.39553-3.1168 0.625 3.079 3.1168 0.39553-3.079 0.625z" opacity=".1"/>
  <path d="m99.424 286.31-0.30238-1.8358-1.8358-0.30238 1.8358-0.30238 0.30238-1.8358 0.30238 1.8358 1.8358 0.30238-1.8358 0.30238z" opacity=".1"/>
  <path d="m79.646 296.87-0.30238-1.8358-1.8358-0.30238 1.8358-0.30238 0.30238-1.8358 0.30238 1.8358 1.8358 0.30238-1.8358 0.30238z" opacity=".1"/>
  <path d="m42.629 252.23-0.625-3.079-3.1168-0.39553 3.079-0.625 0.39553-3.1168 0.625 3.079 3.1168 0.39553-3.079 0.62501z" opacity=".1"/>
  <path d="m73.098 247.15-0.625-3.079-3.1168-0.39553 3.079-0.62501 0.39553-3.1168 0.625 3.079 3.1168 0.39554-3.079 0.625z" opacity=".1"/>
  <path d="m2.2718 245.42-0.30238-1.8358-1.8358-0.30238 1.8358-0.30238 0.30238-1.8358 0.30238 1.8358 1.8358 0.30238-1.8358 0.30238z" opacity=".1"/>
  <path d="m12.562 286.18-0.30238-1.8358-1.8358-0.30239 1.8358-0.30238 0.30238-1.8358 0.30238 1.8358 1.8358 0.30238-1.8358 0.30239z" opacity=".1"/>
  <path d="m9.3544 290.59-0.30238-1.8358-1.8358-0.30238 1.8358-0.30238 0.30238-1.8358 0.30238 1.8358 1.8358 0.30238-1.8358 0.30238z" opacity=".1"/>
 </g>
</svg>
