<?xml version="1.0" encoding="UTF-8"?>
<svg width="680" height="80" version="1.1" viewBox="0 0 680 80" xmlns="http://www.w3.org/2000/svg">
 <g transform="translate(1.6418 3.0471)">
  <path d="m2.3416 40.199c-8.5317-28.934 13.434-17.505 13.434-17.505s-20.467-12.103 7.7349-20.559c28.202-8.4559 17.505 13.841 17.505 13.841s11.869-20.799 20.559 7.7349c8.6895 28.534-13.638 17.505-13.638 17.505s20.658 11.616-7.7349 20.559c-28.393 8.9422-17.098-13.434-17.098-13.434s-12.23 20.792-20.762-8.142z" fill="#940"/>
  <path d="m42.237 31.955a10.279 10.279 0 0 1-10.279 10.279 10.279 10.279 0 0 1-10.279-10.279 10.279 10.279 0 0 1 10.279-10.279 10.279 10.279 0 0 1 10.279 10.279z" fill="#333"/>
  <path d="m37.149 31.955a5.1905 5.1905 0 0 1-5.1905 5.1905 5.1905 5.1905 0 0 1-5.1905-5.1905 5.1905 5.1905 0 0 1 5.1905-5.1905 5.1905 5.1905 0 0 1 5.1905 5.1905z" fill="#fff"/>
 </g>
 <text x="72.142975" y="62.73127" font-family="'Plus Jakarta Sans'" font-size="74.667px" letter-spacing="0px" word-spacing="0px" style="line-height:1.25" xml:space="preserve"><tspan x="72.142975" y="62.73127">Poppy Seed Pets</tspan></text>
</svg>
