<?xml version="1.0" encoding="UTF-8"?>
<svg width="680" height="80" version="1.1" viewBox="0 0 680 80" xmlns="http://www.w3.org/2000/svg">
 <g transform="translate(1.6418 3.0471)">
  <path d="m2.3416 40.199c-8.5317-28.934 13.434-17.505 13.434-17.505s-20.467-12.103 7.7349-20.559c28.202-8.4559 17.505 13.841 17.505 13.841s11.869-20.799 20.559 7.7349c8.6895 28.534-13.638 17.505-13.638 17.505s20.658 11.616-7.7349 20.559c-28.393 8.9422-17.098-13.434-17.098-13.434s-12.23 20.792-20.762-8.142z" fill="#940"/>
  <path d="m42.237 31.955a10.279 10.279 0 0 1-10.279 10.279 10.279 10.279 0 0 1-10.279-10.279 10.279 10.279 0 0 1 10.279-10.279 10.279 10.279 0 0 1 10.279 10.279z" fill="#333"/>
  <path d="m37.149 31.955a5.1905 5.1905 0 0 1-5.1905 5.1905 5.1905 5.1905 0 0 1-5.1905-5.1905 5.1905 5.1905 0 0 1 5.1905-5.1905 5.1905 5.1905 0 0 1 5.1905 5.1905z" fill="#fff"/>
 </g>
 <g aria-label="Poppy Seed Pets">
  <path d="m78.714 62.731v-55.627h19.115q5.4507 0 9.5574 2.1653 4.1067 2.0907 6.3467 5.9734 2.3147 3.808 2.3147 8.8854t-2.3147 8.8854q-2.24 3.808-6.3467 5.9734-4.032 2.0907-9.5574 2.0907h-13.141v21.653zm5.9734-27.253h13.44q3.584 0 6.272-1.344 2.688-1.4187 4.1814-3.9574 1.4933-2.6133 1.4933-6.1227t-1.4933-6.048-4.1814-3.8827q-2.688-1.4187-6.272-1.4187h-13.44z"/>
  <path d="m143.15 63.627q-5.6747 0-10.304-2.688-4.6294-2.7627-7.392-7.4667-2.688-4.7787-2.688-10.827 0-5.9734 2.688-10.677t7.2427-7.392q4.6294-2.7627 10.453-2.7627t10.379 2.688q4.6294 2.688 7.2427 7.392 2.688 4.704 2.688 10.752 0 6.1227-2.7627 10.901-2.7627 4.704-7.392 7.392-4.5547 2.688-10.155 2.688zm0-5.6q4.032 0 7.2427-2.016 3.2854-2.016 5.152-5.5254 1.9413-3.5093 1.9413-7.84t-1.9413-7.7654q-1.8667-3.4347-5.152-5.4507-3.2107-2.016-7.2427-2.016t-7.3174 2.016q-3.2107 2.016-5.152 5.4507t-1.9413 7.7654 1.9413 7.84 5.152 5.5254q3.2854 2.016 7.3174 2.016z"/>
  <path d="m173.32 77.665v-54.955h5.6v8.96l-0.896-1.568q2.3893-3.808 6.3467-6.048 4.032-2.24 9.184-2.24 5.6747 0 10.08 2.7627 4.48 2.688 7.0187 7.392 2.6133 4.704 2.6133 10.752 0 5.9734-2.6133 10.752-2.5387 4.704-7.0187 7.4667-4.4054 2.688-10.08 2.688-5.152 0-9.3334-2.3147-4.1067-2.3893-6.1974-6.72l0.896-0.82134v23.893zm19.936-19.637q4.032 0 7.168-2.016 3.2107-2.016 5.0027-5.4507 1.8667-3.5093 1.8667-7.84 0-4.4054-1.8667-7.84-1.792-3.4347-5.0027-5.4507-3.136-2.016-7.168-2.016t-7.3174 2.016q-3.2107 2.016-5.152 5.5254-1.8667 3.4347-1.8667 7.7654t1.8667 7.84q1.9413 3.4347 5.152 5.4507 3.2854 2.016 7.3174 2.016z"/>
  <path d="m223.12 77.665v-54.955h5.6v8.96l-0.896-1.568q2.3893-3.808 6.3467-6.048 4.032-2.24 9.184-2.24 5.6747 0 10.08 2.7627 4.48 2.688 7.0187 7.392 2.6133 4.704 2.6133 10.752 0 5.9734-2.6133 10.752-2.5387 4.704-7.0187 7.4667-4.4054 2.688-10.08 2.688-5.152 0-9.3334-2.3147-4.1067-2.3893-6.1974-6.72l0.896-0.82134v23.893zm19.936-19.637q4.032 0 7.168-2.016 3.2107-2.016 5.0027-5.4507 1.8667-3.5093 1.8667-7.84 0-4.4054-1.8667-7.84-1.792-3.4347-5.0027-5.4507-3.136-2.016-7.168-2.016t-7.3174 2.016q-3.2107 2.016-5.152 5.5254-1.8667 3.4347-1.8667 7.7654t1.8667 7.84q1.9413 3.4347 5.152 5.4507 3.2854 2.016 7.3174 2.016z"/>
  <path d="m273 79.158q-1.1947 0-2.464-0.224-1.1947-0.14933-2.3894-0.59734v-5.2267q0.74667 0.07467 1.8667 0.224 1.1947 0.224 2.3893 0.224 3.6587 0 5.6-1.568 1.9413-1.4933 3.808-5.824l2.5387-5.9734-0.14933 4.928-16.949-42.411h6.048l13.888 35.019h-1.568l13.813-35.019h6.1974l-18.293 45.099q-1.1947 2.912-3.0613 5.5254-1.792 2.6133-4.5547 4.1814-2.7627 1.6427-6.72 1.6427z"/>
  <path d="m344.45 63.627q-5.3014 0-9.632-2.016-4.3307-2.016-7.3174-5.376-2.9867-3.4347-4.256-7.5414l5.376-2.016q1.9413 5.6747 6.048 8.6614 4.1067 2.912 9.7814 2.912 3.584 0 6.272-1.12 2.7627-1.1947 4.256-3.2853t1.4933-4.8534q0-4.1067-2.24-6.3467t-6.4214-3.4347l-10.005-2.9867q-5.8987-1.7173-9.1094-5.7494-3.136-4.032-3.136-9.184 0-4.4054 2.1654-7.7654 2.1653-3.4347 5.8987-5.376 3.808-1.9413 8.5867-1.9413 5.0027 0 8.96 1.8667 4.032 1.792 6.7947 4.7787t3.9574 6.6454l-5.2267 2.0907q-1.792-4.928-5.6-7.4667-3.7334-2.5387-8.8107-2.5387-3.2107 0-5.6747 1.12-2.3893 1.12-3.7334 3.2107t-1.344 4.928q0 3.4347 2.1654 6.1974 2.1653 2.688 6.6454 4.032l8.8107 2.6133q6.5707 1.9413 9.9307 5.6 3.36 3.6587 3.36 9.184 0 4.48-2.3147 7.9147-2.24 3.36-6.3467 5.3014-4.032 1.9413-9.3334 1.9413z"/>
  <path d="m391.34 63.627q-5.6 0-10.155-2.688-4.48-2.7627-7.0934-7.5414-2.6133-4.7787-2.6133-10.827t2.5387-10.677q2.5387-4.704 6.8694-7.392 4.4054-2.688 9.856-2.688 4.3307 0 7.6907 1.6427 3.4347 1.568 5.824 4.3307 2.3893 2.688 3.6587 6.1227 1.2693 3.36 1.2693 6.944 0 0.74667-0.0747 1.7173-0.0747 0.896-0.224 1.8667h-33.824v-5.2267h30.613l-2.688 2.24q0.672-4.1067-0.97067-7.3174-1.568-3.2853-4.5547-5.152-2.9867-1.9413-6.72-1.9413t-6.944 1.9413q-3.136 1.9413-4.928 5.4507-1.792 3.4347-1.4187 8.2134-0.37334 4.7787 1.4933 8.3627 1.9413 3.5093 5.2267 5.4507 3.36 1.9413 7.168 1.9413 4.4054 0 7.392-2.0907t4.8534-5.2267l4.7787 2.5387q-1.1947 2.688-3.6587 5.0027-2.464 2.24-5.8987 3.6587-3.36 1.344-7.4667 1.344z"/>
  <path d="m437.26 63.627q-5.6 0-10.155-2.688-4.48-2.7627-7.0934-7.5414-2.6134-4.7787-2.6134-10.827t2.5387-10.677q2.5387-4.704 6.8694-7.392 4.4054-2.688 9.856-2.688 4.3307 0 7.6907 1.6427 3.4347 1.568 5.824 4.3307 2.3894 2.688 3.6587 6.1227 1.2693 3.36 1.2693 6.944 0 0.74667-0.0747 1.7173-0.0747 0.896-0.224 1.8667h-33.824v-5.2267h30.613l-2.688 2.24q0.672-4.1067-0.97068-7.3174-1.568-3.2853-4.5547-5.152-2.9867-1.9413-6.72-1.9413t-6.944 1.9413q-3.136 1.9413-4.928 5.4507-1.792 3.4347-1.4187 8.2134-0.37333 4.7787 1.4933 8.3627 1.9413 3.5093 5.2267 5.4507 3.36 1.9413 7.168 1.9413 4.4054 0 7.392-2.0907t4.8534-5.2267l4.7787 2.5387q-1.1947 2.688-3.6587 5.0027-2.464 2.24-5.8987 3.6587-3.36 1.344-7.4667 1.344z"/>
  <path d="m483.04 63.627q-5.6 0-10.08-2.688-4.48-2.7627-7.0934-7.4667-2.5387-4.7787-2.5387-10.752 0-6.048 2.5387-10.752 2.6133-4.704 7.0187-7.392 4.48-2.7627 10.155-2.7627 5.152 0 9.184 2.24 4.032 2.24 6.3467 6.048l-0.896 1.568v-25.461h5.6v56.523h-5.6v-8.96l0.896 0.82134q-2.0907 4.3307-6.272 6.72-4.1067 2.3147-9.2587 2.3147zm0.29866-5.6q4.032 0 7.2427-2.016 3.2854-2.016 5.152-5.4507 1.9413-3.5093 1.9413-7.84t-1.9413-7.7654q-1.8667-3.5093-5.152-5.5254-3.2107-2.016-7.2427-2.016-3.9574 0-7.168 2.016t-5.0774 5.4507q-1.792 3.4347-1.792 7.84 0 4.3307 1.792 7.84 1.8667 3.4347 5.0027 5.4507 3.2107 2.016 7.2427 2.016z"/>
  <path d="m528.28 62.731v-55.627h19.115q5.4507 0 9.5574 2.1653 4.1067 2.0907 6.3467 5.9734 2.3147 3.808 2.3147 8.8854t-2.3147 8.8854q-2.24 3.808-6.3467 5.9734-4.032 2.0907-9.5574 2.0907h-13.141v21.653zm5.9734-27.253h13.44q3.584 0 6.272-1.344 2.688-1.4187 4.1814-3.9574 1.4933-2.6133 1.4933-6.1227t-1.4933-6.048-4.1814-3.8827q-2.688-1.4187-6.272-1.4187h-13.44z"/>
  <path d="m592.2 63.627q-5.6 0-10.155-2.688-4.48-2.7627-7.0934-7.5414-2.6134-4.7787-2.6134-10.827t2.5387-10.677q2.5387-4.704 6.8694-7.392 4.4054-2.688 9.856-2.688 4.3307 0 7.6907 1.6427 3.4347 1.568 5.824 4.3307 2.3894 2.688 3.6587 6.1227 1.2693 3.36 1.2693 6.944 0 0.74667-0.0747 1.7173-0.0747 0.896-0.224 1.8667h-33.824v-5.2267h30.613l-2.688 2.24q0.672-4.1067-0.97068-7.3174-1.568-3.2853-4.5547-5.152-2.9867-1.9413-6.72-1.9413t-6.944 1.9413q-3.136 1.9413-4.928 5.4507-1.792 3.4347-1.4187 8.2134-0.37333 4.7787 1.4933 8.3627 1.9413 3.5093 5.2267 5.4507 3.36 1.9413 7.168 1.9413 4.4054 0 7.392-2.0907t4.8534-5.2267l4.7787 2.5387q-1.1947 2.688-3.6587 5.0027-2.464 2.24-5.8987 3.6587-3.36 1.344-7.4667 1.344z"/>
  <path d="m635.21 63.179q-5.376 0-8.288-3.136t-2.912-8.96v-22.773h-7.392v-5.6h1.8667q2.5387 0 4.032-1.6427 1.4933-1.7173 1.4933-4.256v-3.36h5.6v9.2587h8.8107v5.6h-8.8107v22.773q0 2.016 0.59734 3.584 0.59733 1.4933 2.016 2.3893 1.4933 0.896 3.9574 0.896 0.59733 0 1.4187-0.07467t1.4187-0.14933v5.0027q-0.896 0.224-2.016 0.29867-1.12 0.14933-1.792 0.14933z"/>
  <path d="m662.76 63.627q-5.7494 0-10.08-2.912-4.3307-2.912-6.272-7.9147l4.704-2.24q1.7173 3.6587 4.7787 5.824 3.136 2.1653 6.8694 2.1653 3.584 0 6.048-1.7173 2.464-1.792 2.464-4.6294 0-2.0907-1.1947-3.2853-1.1947-1.2693-2.7627-1.9413-1.568-0.672-2.7627-0.97067l-5.7494-1.6427q-5.5254-1.568-7.9894-4.4054t-2.464-6.5707q0-3.5093 1.792-6.1227 1.792-2.6133 4.8534-4.032t6.7947-1.4187q5.0774 0 9.184 2.688 4.1814 2.6133 5.8987 7.3174l-4.7787 2.24q-1.4933-3.36-4.3307-5.2267-2.7627-1.9413-6.1974-1.9413-3.36 0-5.376 1.7173t-2.016 4.3307q0 2.016 1.0453 3.2107t2.3894 1.792q1.4187 0.59734 2.464 0.896l6.6454 1.9413q4.8534 1.4187 7.5414 4.4054 2.7627 2.9867 2.7627 7.0187 0 3.2853-1.8667 5.8987-1.792 2.6133-5.0027 4.1067-3.2107 1.4187-7.392 1.4187z"/>
 </g>
</svg>
