<?xml version="1.0" encoding="UTF-8"?>
<svg width="32" height="32" version="1.1" viewBox="0 0 8.4667 8.4667" xmlns="http://www.w3.org/2000/svg">
 <g transform="translate(0 -288.53)">
  <g stroke-width=".26458">
   <path d="m5.0266 291.86s0.43436-0.41723 0.15132-0.74665c-0.28304-0.32943-1.0183-6e-3 -1.0183-6e-3l-0.18567 0.51849-0.14066-0.37104-0.34751-9e-3s0.093864-0.30088 0.70916-0.91763c0.12618-0.12647 0.54022 0.0702 0.54022 0.0702s-0.01737-0.48245 0.055356-0.52096c0.32208-0.17053 0.54152-0.17384 0.54152-0.17384l0.06857 0.26027s-0.22382 0.22549 0.012103 0.55134c0.071379 0.0986 0.2228 0.28565 0.3993 0.49861 0.082357 0.0994 0.32373 0.0627 0.41142 0.16696 0.077435 0.0921 0.00122 0.32539 0.074615 0.412 0.12986 0.15325 0.24738 0.29106 0.33126 0.38919 0.080251 0.0939 0.1297 0.15144 0.1297 0.15144l0.35636-0.26062 0.32773 0.0137-0.10713 0.84585-0.37951-0.18239-0.56403-0.159-0.22055-0.32572s-0.22486-0.15918-0.3769-0.0285l-0.40544 0.34835-3.6798 3.4081 0.10287-0.32042-0.45089-0.0895z" fill="#9c9690" stroke="#3e3e3e" stroke-linejoin="bevel"/>
   <circle transform="rotate(139.33)" cx="187.22" cy="-225.02" r=".83522" fill="#759d9f" stroke="#223839" stroke-linecap="round" stroke-linejoin="round" stroke-miterlimit="40" style="paint-order:markers fill stroke"/>
   <circle transform="rotate(139.33)" cx="189.46" cy="-225.08" r=".53454" fill="#759d9f" stroke="#223839" stroke-linecap="round" stroke-linejoin="round" stroke-miterlimit="40" style="paint-order:markers fill stroke"/>
  </g>
  <g fill="none">
   <path d="m5.2786 291.28s-0.058466 0.1921 0.24221 0.46772c0.30068 0.27563 0.45102 0.24221 0.45102 0.24221" opacity=".33438" stroke="#3d3d3d" stroke-width=".26458px"/>
   <path d="m3.4525 293.23 0.36616 0.73232" stroke="#914d2e" stroke-linecap="round" stroke-width=".26458"/>
   <path d="m3.6585 293.07 0.36616 0.73232s0.25701 0.56153-0.21852 1.1339c-0.63783 0.76777-0.070871 0.67328-0.070871 0.67328" stroke="#914d2e" stroke-linecap="round" stroke-width=".26458"/>
  </g>
  <g transform="translate(-.66817 .58465)" fill="none" opacity=".39432" stroke="#223839" stroke-width=".26458px">
   <path d="m5.2562 291.29-0.023625 0.54334 0.31892 0.14174v0.36617"/>
   <path d="m5.209 291.82-0.23624 0.42522"/>
  </g>
 </g>
</svg>
